<svg width="110" height="27" viewBox="0 0 110 27" fill="none" xmlns="http://www.w3.org/2000/svg">
<path d="M34.9425 25.0249V0.717285H47.0376C48.3293 0.717285 49.4645 0.916855 50.4822 1.316C51.4999 1.71514 52.4002 2.27393 53.1048 3.0323C53.8485 3.79067 54.3965 4.66878 54.7879 5.70654C55.1793 6.74431 55.375 7.94173 55.375 9.21898V16.5233C55.375 17.8005 55.1793 18.9979 54.7879 20.0357C54.3965 21.0735 53.8485 21.9915 53.1048 22.7099C52.361 23.4683 51.4999 24.0271 50.4822 24.4262C49.4645 24.8254 48.2902 25.0249 47.0376 25.0249H34.9425ZM47.0376 21.5524C48.6033 21.5524 49.8559 21.1134 50.6779 20.2353C51.539 19.3572 51.9696 18.1198 51.9696 16.5233V9.21898C51.9696 8.4207 51.8522 7.74216 51.6565 7.10353C51.4216 6.46491 51.1085 5.94603 50.6779 5.50697C50.2473 5.06792 49.7385 4.74861 49.1122 4.50912C48.4859 4.26964 47.8205 4.18981 47.0376 4.18981H38.3479V21.5524H47.0376Z" fill="white"/>
<path d="M60.3071 0.717041H77.2167V4.18956H63.6205V11.1346H75.1983V14.6071H63.6205V21.5522H77.2167V25.0247H60.3071V0.717041Z" fill="white"/>
<path d="M85.3194 0.717041V25.0247H82.1488V0.717041H85.3194Z" fill="white"/>
<path d="M90.6035 25.0247V0.717041H103.53C107.334 0.717041 109.275 2.67283 109.275 6.62432V10.0968C109.275 14.0483 107.373 16.0041 103.53 16.0041H93.9806V25.0247H90.6035ZM93.9806 12.5316H103.374C104.267 12.5316 104.927 12.332 105.315 11.9329C105.703 11.5338 105.898 10.8552 105.898 9.93719V6.82389C105.898 5.90587 105.703 5.22733 105.315 4.82819C104.927 4.42905 104.267 4.22948 103.374 4.22948H93.9806V12.5316Z" fill="white"/>
<path fill-rule="evenodd" clip-rule="evenodd" d="M8.65984 0.911781C8.65984 0.408353 9.06795 0.000243874 9.57138 0.000243874H23.5634C24.0668 0.000243874 24.4749 0.408353 24.4749 0.911781C24.4749 1.41521 24.0668 1.82332 23.5634 1.82332H9.57138C9.06795 1.82332 8.65984 1.41521 8.65984 0.911781Z" fill="white"/>
<path fill-rule="evenodd" clip-rule="evenodd" d="M0.308718 5.4325C0.308718 4.92908 0.716828 4.52097 1.22026 4.52097H15.5868C16.0903 4.52097 16.4984 4.92908 16.4984 5.4325C16.4984 5.93593 16.0903 6.34404 15.5868 6.34404H1.22026C0.716828 6.34404 0.308718 5.93593 0.308718 5.4325Z" fill="white"/>
<path fill-rule="evenodd" clip-rule="evenodd" d="M0.507031 21.033C0.507031 20.5296 0.915141 20.1215 1.41857 20.1215H15.4106C15.914 20.1215 16.3221 20.5296 16.3221 21.033C16.3221 21.5364 15.914 21.9445 15.4106 21.9445H1.41857C0.915141 21.9445 0.507031 21.5364 0.507031 21.033Z" fill="white"/>
<path fill-rule="evenodd" clip-rule="evenodd" d="M24.563 25.1735C24.5642 25.6769 24.157 26.0859 23.6535 26.087L9.57341 26.1183C9.06998 26.1194 8.66096 25.7122 8.65984 25.2088C8.65872 24.7054 9.06593 24.2964 9.56935 24.2952L23.6495 24.2639C24.1529 24.2628 24.5619 24.67 24.563 25.1735Z" fill="white"/>
<path fill-rule="evenodd" clip-rule="evenodd" d="M0.553934 4.40322C1.01695 4.20559 1.55251 4.42073 1.75014 4.88375L10.1692 24.6084C10.3668 25.0714 10.1517 25.607 9.68867 25.8046C9.22566 26.0022 8.6901 25.7871 8.49247 25.3241L0.0734088 5.59942C-0.12422 5.13641 0.0909188 4.60085 0.553934 4.40322Z" fill="white"/>
<path fill-rule="evenodd" clip-rule="evenodd" d="M15.1657 4.63701C15.6293 4.44091 16.1642 4.65782 16.3603 5.12148L24.6031 24.6112C24.7992 25.0748 24.5822 25.6097 24.1186 25.8058C23.6549 26.0019 23.1201 25.785 22.924 25.3213L14.6812 5.83162C14.4851 5.36795 14.702 4.83311 15.1657 4.63701Z" fill="white"/>
<path fill-rule="evenodd" clip-rule="evenodd" d="M1.05186 21.9629C1.51874 22.1512 2.04989 21.9254 2.23821 21.4585L10.2184 1.67505C10.4067 1.20817 10.1809 0.677022 9.71406 0.488695C9.24719 0.300368 8.71604 0.526177 8.52771 0.993052L0.547508 20.7765C0.359181 21.2434 0.584989 21.7746 1.05186 21.9629Z" fill="white"/>
<path fill-rule="evenodd" clip-rule="evenodd" d="M15.0922 21.8566C15.5592 22.0446 16.0902 21.8184 16.2782 21.3513L24.3686 1.25216C24.5566 0.785141 24.3304 0.25416 23.8633 0.0661758C23.3963 -0.121808 22.8653 0.104391 22.6774 0.571405L14.587 20.6706C14.399 21.1376 14.6252 21.6686 15.0922 21.8566Z" fill="white"/>
<path fill-rule="evenodd" clip-rule="evenodd" d="M10.3867 0.504158C10.6118 0.954438 10.4293 1.50197 9.97903 1.72711L1.31942 6.05692C0.869144 6.28206 0.321608 6.09955 0.0964679 5.64927C-0.128672 5.19899 0.05384 4.65145 0.50412 4.42631L9.16373 0.0965066C9.61401 -0.128633 10.1615 0.0538787 10.3867 0.504158Z" fill="white"/>
<path fill-rule="evenodd" clip-rule="evenodd" d="M24.3191 0.467875C24.5643 0.907574 24.4066 1.46276 23.9669 1.70793L15.8985 6.20659C15.4588 6.45175 14.9036 6.29405 14.6585 5.85435C14.4133 5.41465 14.571 4.85946 15.0107 4.6143L23.0791 0.115636C23.5188 -0.129527 24.0739 0.0281758 24.3191 0.467875Z" fill="white"/>
<path fill-rule="evenodd" clip-rule="evenodd" d="M10.3867 25.6144C10.6118 25.1642 10.4293 24.6166 9.97903 24.3915L1.80051 20.3022C1.35023 20.0771 0.802697 20.2596 0.577557 20.7099C0.352417 21.1602 0.534929 21.7077 0.985209 21.9328L9.16373 26.0221C9.61401 26.2472 10.1615 26.0647 10.3867 25.6144Z" fill="white"/>
<path fill-rule="evenodd" clip-rule="evenodd" d="M24.5748 25.5874C24.8023 25.1384 24.6227 24.5899 24.1736 24.3623L15.8666 20.1537C15.4175 19.9262 14.869 20.1058 14.6415 20.5549C14.414 21.004 14.5936 21.5525 15.0427 21.78L23.3497 25.9886C23.7988 26.2161 24.3473 26.0365 24.5748 25.5874Z" fill="white"/>
</svg>
