<svg width="63" height="18" viewBox="0 0 63 18" version="1.1" xmlns="http://www.w3.org/2000/svg" xmlns:xlink="http://www.w3.org/1999/xlink">
<title>Group</title>
<desc>Created using Figma</desc>
<g id="Canvas" transform="translate(-1859 1686)">
<g id="Group">
<g id="Vector">
<use xlink:href="#path0_fill" transform="translate(1859.18 -1686)" fill="#FFFFFF"/>
</g>
<g id="Vector">
<use xlink:href="#path1_fill" transform="translate(1880.17 -1686)" fill="#FFFFFF"/>
</g>
<g id="Vector">
<use xlink:href="#path2_fill" transform="translate(1898.46 -1686)" fill="#FFFFFF"/>
</g>
<g id="Vector">
<use xlink:href="#path3_fill" transform="translate(1905.59 -1686)" fill="#FFFFFF"/>
</g>
</g>
</g>
<defs>
<path id="path0_fill" d="M 0 18L 0 0L 10.0205 0C 11.0907 0 12.0311 0.147783 12.8743 0.44335C 13.7174 0.738916 14.4633 1.15271 15.047 1.71429C 15.6631 2.27586 16.1171 2.92611 16.4414 3.69458C 16.7657 4.46305 16.9279 5.34975 16.9279 6.29557L 16.9279 11.7044C 16.9279 12.6502 16.7657 13.5369 16.4414 14.3054C 16.1171 15.0739 15.6631 15.7537 15.047 16.2857C 14.4308 16.8473 13.7174 17.2611 12.8743 17.5567C 12.0311 17.8522 11.0582 18 10.0205 18L 0 18ZM 10.0205 15.4286C 11.3177 15.4286 12.3554 15.1034 13.0364 14.4532C 13.7498 13.803 14.1066 12.8867 14.1066 11.7044L 14.1066 6.29557C 14.1066 5.70443 14.0093 5.20197 13.8471 4.72906C 13.6526 4.25616 13.3931 3.87192 13.0364 3.5468C 12.6797 3.22167 12.2581 2.98522 11.7393 2.80788C 11.2204 2.63054 10.6691 2.57143 10.0205 2.57143L 2.82131 2.57143L 2.82131 15.4286L 10.0205 15.4286Z"/>
<path id="path1_fill" d="M -9.89651e-07 0L 14.3984 0L 14.3984 2.57143L 2.82131 2.57143L 2.82131 7.71429L 12.6797 7.71429L 12.6797 10.2857L 2.82131 10.2857L 2.82131 15.4286L 14.3984 15.4286L 14.3984 18L -9.89651e-07 18L -9.89651e-07 0Z"/>
<path id="path2_fill" d="M 2.82131 0L 2.82131 18L -4.94825e-07 18L -4.94825e-07 0L 2.82131 0Z"/>
<path id="path3_fill" d="M 1.9793e-06 18L 1.9793e-06 0L 10.7988 0C 13.9768 0 15.5983 1.44828 15.5983 4.37438L 15.5983 6.94581C 15.5983 9.87192 14.0093 11.3202 10.7988 11.3202L 2.82131 11.3202L 2.82131 18L 1.9793e-06 18ZM 2.82131 8.74877L 10.6691 8.74877C 11.415 8.74877 11.9663 8.60099 12.2905 8.30542C 12.6148 8.00985 12.777 7.50739 12.777 6.82759L 12.777 4.52217C 12.777 3.84236 12.6148 3.3399 12.2905 3.04433C 11.9663 2.74877 11.415 2.60099 10.6691 2.60099L 2.82131 2.60099L 2.82131 8.74877Z"/>
</defs>
</svg>
