<svg width="475" height="424" viewBox="0 0 475 424" fill="none" xmlns="http://www.w3.org/2000/svg">
<path d="M302.103 274.324L241.019 361.745L240.612 361.494L301.696 274.123L302.103 274.324Z" fill="black"/>
<path d="M323.82 394.905L323.668 395.256L240.713 361.795L240.917 361.443L323.82 394.905Z" fill="black"/>
<path d="M323.973 395.055L323.515 395.106L301.696 274.223L302.153 274.173L323.973 395.055Z" fill="black"/>
<path d="M381.7 295.275L323.973 395.156L323.515 394.955L381.243 295.074L381.7 295.275Z" fill="black"/>
<path d="M381.599 295.375L240.917 361.795L240.713 361.443L381.344 295.023L381.599 295.375Z" fill="black"/>
<path d="M381.548 294.973L381.395 295.375L301.848 274.374L302.001 274.022L381.548 294.973Z" fill="black"/>
<path d="M323.77 395.256L174.543 401.436L174.492 401.034L323.719 394.854L323.77 395.256Z" fill="black"/>
<path d="M240.968 361.795L174.645 401.386L174.34 401.084L240.663 361.443L240.968 361.795Z" fill="black"/>
<path d="M323.77 395.256L174.543 401.436L174.492 401.034L323.719 394.854L323.77 395.256Z" fill="black"/>
<path d="M240.968 361.795L174.645 401.386L174.34 401.084L240.663 361.443L240.968 361.795Z" fill="black"/>
<path d="M174.543 401.436L172.458 401.587L172.407 401.235L174.441 401.034L174.543 401.436Z" fill="black"/>
<path d="M174.543 401.436L172.458 401.587L172.407 401.235L174.441 401.034L174.543 401.436Z" fill="black"/>
<path d="M323.77 395.256L172.458 401.587L172.407 401.235L323.719 394.854L323.77 395.256Z" fill="black"/>
<path d="M240.968 361.795L172.56 401.587L172.305 401.235L240.663 361.443L240.968 361.795Z" fill="black"/>
<path d="M172.661 401.436L172.204 401.386L182.274 313.512L182.783 313.562L172.661 401.436Z" fill="black"/>
<path d="M174.747 401.235L174.238 401.185L182.274 313.512L182.783 313.562L174.747 401.235Z" fill="black"/>
<path d="M174.747 401.235L174.238 401.185L182.274 313.512L182.783 313.562L174.747 401.235Z" fill="black"/>
<path d="M323.871 394.904L323.617 395.256L182.427 313.713L182.681 313.412L323.871 394.904Z" fill="black"/>
<path d="M240.968 361.493L240.663 361.745L182.376 313.713L182.681 313.412L240.968 361.493Z" fill="black"/>
<path d="M302.001 274.374L182.63 313.713L182.427 313.362L301.798 274.022L302.001 274.374Z" fill="black"/>
<path d="M280.843 188.56L182.732 313.663L182.325 313.412L280.436 188.309L280.843 188.56Z" fill="black"/>
<path d="M381.649 295.074L381.293 295.325L280.436 188.56L280.792 188.309L381.649 295.074Z" fill="black"/>
<path d="M302.154 274.173L301.696 274.223L280.385 188.46L280.843 188.41L302.154 274.173Z" fill="black"/>
<path d="M182.579 313.763L68.5988 340.542L68.4463 340.14L182.477 313.361L182.579 313.763Z" fill="black"/>
<path d="M172.56 401.235L172.305 401.586L68.3961 340.542L68.6504 340.19L172.56 401.235Z" fill="black"/>
<path d="M174.645 401.084L174.391 401.385L68.3961 340.542L68.6504 340.19L174.645 401.084Z" fill="black"/>
<path d="M174.645 401.084L174.391 401.385L68.3961 340.542L68.6504 340.19L174.645 401.084Z" fill="black"/>
<path d="M240.815 361.794L68.4979 340.542L68.5487 340.14L240.815 361.443V361.794Z" fill="black"/>
<path d="M152.114 224.433L68.7015 340.442L68.3455 340.241L151.707 224.232L152.114 224.433Z" fill="black"/>
<path d="M280.691 188.61L151.961 224.534L151.809 224.182L280.538 188.259L280.691 188.61Z" fill="black"/>
<path d="M182.732 313.512L182.325 313.613L151.656 224.383L152.114 224.282L182.732 313.512Z" fill="black"/>
<path d="M241.019 361.544L240.612 361.694L151.706 224.433L152.113 224.282L241.019 361.544Z" fill="black"/>
<path d="M302.001 274.022L301.849 274.373L151.809 224.533L151.961 224.182L302.001 274.022Z" fill="black"/>
<path d="M326.719 134.399L280.843 188.56L280.436 188.309L326.313 134.198L326.719 134.399Z" fill="black"/>
<path d="M302.154 274.223L301.696 274.173L326.313 134.249L326.77 134.349L302.154 274.223Z" fill="black"/>
<path d="M417.049 189.314L416.795 189.615L326.364 134.449L326.669 134.148L417.049 189.314Z" fill="black"/>
<path d="M416.896 189.666L280.64 188.61V188.208L416.896 189.264V189.666Z" fill="black"/>
<path d="M417.049 189.615L302.052 274.374L301.747 274.072L416.744 189.314L417.049 189.615Z" fill="black"/>
<path d="M403.673 365.262L403.215 365.312L381.243 295.224L381.701 295.124L403.673 365.262Z" fill="black"/>
<path d="M403.52 365.463L323.871 395.256L323.668 394.904L403.316 365.111L403.52 365.463Z" fill="black"/>
<path d="M403.418 365.463L240.815 361.795V361.443L403.418 365.061V365.463Z" fill="black"/>
<path d="M403.571 365.161L403.266 365.412L301.747 274.323L302.103 274.072L403.571 365.161Z" fill="black"/>
<path d="M417.049 189.314L416.794 189.615L293.812 117.116L294.067 116.814L417.049 189.314Z" fill="black"/>
<path d="M326.618 134.148L326.414 134.449L293.812 117.116L294.067 116.814L326.618 134.148Z" fill="black"/>
<path d="M280.843 188.459L280.385 188.409L293.711 116.915L294.168 117.015L280.843 188.459Z" fill="black"/>
<path d="M365.628 34.4172L294.118 117.065L293.762 116.865L365.272 34.166L365.628 34.4172Z" fill="black"/>
<path d="M365.679 34.367L326.77 134.349L326.313 134.248L365.221 34.2163L365.679 34.367Z" fill="black"/>
<path d="M391.059 97.6721L390.652 97.7726L365.221 34.3671L365.679 34.2666L391.059 97.6721Z" fill="black"/>
<path d="M390.906 97.9234L293.965 117.166L293.863 116.764L390.804 97.5215L390.906 97.9234Z" fill="black"/>
<path d="M417.15 189.414L416.693 189.514L390.601 97.7724L391.059 97.6719L417.15 189.414Z" fill="black"/>
<path d="M390.957 97.8732L326.669 134.449L326.363 134.148L390.703 97.5718L390.957 97.8732Z" fill="black"/>
<path d="M391.008 97.8732L280.792 188.56L280.487 188.259L390.703 97.5718L391.008 97.8732Z" fill="black"/>
<path d="M294.067 117.116L154.708 205.793L154.402 205.492L293.762 116.814L294.067 117.116Z" fill="black"/>
<path d="M152.114 224.383L151.656 224.333L154.301 205.643L154.809 205.693L152.114 224.383Z" fill="black"/>
<path d="M154.758 205.743L68.7524 340.442L68.2947 340.241L154.352 205.542L154.758 205.743Z" fill="black"/>
<path d="M280.69 188.61L154.606 205.843L154.504 205.442L280.589 188.208L280.69 188.61Z" fill="black"/>
<path d="M182.732 313.512L182.325 313.613L154.352 205.693L154.758 205.592L182.732 313.512Z" fill="black"/>
<path d="M302.001 274.022L301.798 274.374L154.453 205.843L154.657 205.492L302.001 274.022Z" fill="black"/>
<path d="M294.067 117.116L154.708 205.793L154.402 205.492L293.762 116.814L294.067 117.116Z" fill="black"/>
<path d="M152.114 224.383L151.656 224.333L154.301 205.643L154.809 205.693L152.114 224.383Z" fill="black"/>
<path d="M154.758 205.743L68.7524 340.442L68.2947 340.241L154.352 205.542L154.758 205.743Z" fill="black"/>
<path d="M280.69 188.61L154.606 205.843L154.504 205.442L280.589 188.208L280.69 188.61Z" fill="black"/>
<path d="M182.732 313.512L182.325 313.613L154.352 205.693L154.758 205.592L182.732 313.512Z" fill="black"/>
<path d="M302.001 274.022L301.798 274.374L154.453 205.843L154.657 205.492L302.001 274.022Z" fill="black"/>
<path d="M391.008 97.5717L390.703 97.8731L318.378 43.2097L318.633 42.9585L391.008 97.5717Z" fill="black"/>
<path d="M365.476 34.5181L318.582 43.2603L318.429 42.9086L365.374 34.1162L365.476 34.5181Z" fill="black"/>
<path d="M318.734 43.1595L294.169 117.015L293.711 116.915L318.277 43.0088L318.734 43.1595Z" fill="black"/>
<path d="M326.771 134.299H326.313L318.277 43.1093L318.735 43.0591L326.771 134.299Z" fill="black"/>
<path d="M318.734 43.1596L280.843 188.46L280.385 188.359L318.277 43.0591L318.734 43.1596Z" fill="black"/>
<path d="M239.646 270.354L239.34 270.655L154.402 205.793L154.708 205.491L239.646 270.354Z" fill="black"/>
<path d="M239.646 270.354L239.34 270.655L154.402 205.793L154.708 205.491L239.646 270.354Z" fill="black"/>
<path d="M239.595 270.354L239.391 270.655L151.758 224.533L152.012 224.181L239.595 270.354Z" fill="black"/>
<path d="M280.843 188.51L239.696 270.605L239.29 270.454L280.385 188.359L280.843 188.51Z" fill="black"/>
<path d="M239.645 270.655L182.681 313.713L182.376 313.411L239.34 270.354L239.645 270.655Z" fill="black"/>
<path d="M239.696 270.605L172.661 401.486L172.204 401.335L239.289 270.455L239.696 270.605Z" fill="black"/>
<path d="M239.696 270.605L174.696 401.285L174.289 401.134L239.289 270.455L239.696 270.605Z" fill="black"/>
<path d="M239.696 270.605L174.696 401.285L174.289 401.134L239.289 270.455L239.696 270.605Z" fill="black"/>
<path d="M381.446 295.375L239.442 270.706L239.544 270.304L381.497 294.973L381.446 295.375Z" fill="black"/>
<path d="M323.973 394.954L323.566 395.155L239.289 270.605L239.696 270.404L323.973 394.954Z" fill="black"/>
<path d="M241.019 361.644L240.561 361.593L239.239 270.504H239.747L241.019 361.644Z" fill="black"/>
<path d="M301.899 274.424L239.493 270.706V270.304L301.899 274.022V274.424Z" fill="black"/>
<path d="M349.963 207.652L239.645 270.656L239.34 270.355L349.709 207.301L349.963 207.652Z" fill="black"/>
<path d="M391.059 97.7728L350.065 207.552L349.607 207.401L390.652 97.6724L391.059 97.7728Z" fill="black"/>
<path d="M350.065 207.401L349.658 207.552L293.711 117.066L294.118 116.865L350.065 207.401Z" fill="black"/>
<path d="M416.998 189.666L349.912 207.652L349.76 207.301L416.845 189.264L416.998 189.666Z" fill="black"/>
<path d="M350.065 207.451L349.607 207.552L326.313 134.349L326.72 134.249L350.065 207.451Z" fill="black"/>
<path d="M349.912 207.301L349.76 207.653L280.538 188.611L280.69 188.259L349.912 207.301Z" fill="black"/>
<path d="M381.701 295.124L381.243 295.225L349.607 207.552L350.065 207.452L381.701 295.124Z" fill="black"/>
<path d="M350.014 207.602L302.103 274.324L301.696 274.123L349.607 207.351L350.014 207.602Z" fill="black"/>
<path d="M247.325 388.725H246.868L239.239 270.505H239.747L247.325 388.725Z" fill="black"/>
<path d="M403.469 365.462L247.173 388.926L247.071 388.574L403.367 365.061L403.469 365.462Z" fill="black"/>
<path d="M247.173 388.574L247.02 388.925L68.4471 340.542L68.5996 340.19L247.173 388.574Z" fill="black"/>
<path d="M247.275 388.624L246.919 388.875L182.325 313.663L182.732 313.462L247.275 388.624Z" fill="black"/>
<path d="M247.173 388.925L172.509 401.586L172.407 401.235L247.071 388.523L247.173 388.925Z" fill="black"/>
<path d="M247.173 388.925L174.543 401.436L174.441 401.034L247.071 388.523L247.173 388.925Z" fill="black"/>
<path d="M247.173 388.925L174.543 401.436L174.441 401.034L247.071 388.523L247.173 388.925Z" fill="black"/>
<path d="M381.599 295.324L247.275 388.875L246.97 388.574L381.344 295.023L381.599 295.324Z" fill="black"/>
<path d="M323.719 395.256L247.071 388.925L247.122 388.574L323.77 394.854L323.719 395.256Z" fill="black"/>
<path d="M247.325 388.724L246.868 388.775L240.561 361.644L241.019 361.594L247.325 388.724Z" fill="black"/>
<path d="M302.154 274.273L247.326 388.825L246.868 388.675L301.696 274.123L302.154 274.273Z" fill="black"/>
<path d="M382.921 238.852L382.565 239.104L349.658 207.602L350.014 207.351L382.921 238.852Z" fill="black"/>
<path d="M382.819 239.154L239.544 270.706L239.442 270.304L382.718 238.802L382.819 239.154Z" fill="black"/>
<path d="M382.972 239.003L382.514 238.953L390.601 97.6719L391.059 97.7221L382.972 239.003Z" fill="black"/>
<path d="M382.972 238.902L382.565 239.103L293.711 117.065L294.118 116.864L382.972 238.902Z" fill="black"/>
<path d="M403.673 365.261L403.215 365.312L382.514 239.003L382.972 238.953L403.673 365.261Z" fill="black"/>
<path d="M417.1 189.565L382.972 239.103L382.565 238.902L416.693 189.364L417.1 189.565Z" fill="black"/>
<path d="M382.972 238.902L382.565 239.053L326.313 134.399L326.72 134.248L382.972 238.902Z" fill="black"/>
<path d="M382.871 238.802L382.667 239.154L280.538 188.61L280.741 188.259L382.871 238.802Z" fill="black"/>
<path d="M381.701 295.174H381.243L382.514 238.953L382.972 239.003L381.701 295.174Z" fill="black"/>
<path d="M382.87 239.154L302.001 274.374L301.798 274.022L382.667 238.802L382.87 239.154Z" fill="black"/>
<path d="M427.628 259L427.425 259.301L382.667 239.154L382.87 238.802L427.628 259Z" fill="black"/>
<path d="M427.679 258.999L427.374 259.301L349.709 207.652L349.963 207.351L427.679 258.999Z" fill="black"/>
<path d="M403.672 365.312L403.215 365.262L427.272 259.1L427.73 259.201L403.672 365.312Z" fill="black"/>
<path d="M427.73 259.05L427.323 259.251L326.313 134.399L326.72 134.198L427.73 259.05Z" fill="black"/>
<path d="M427.628 259L427.425 259.301L280.538 188.61L280.741 188.259L427.628 259Z" fill="black"/>
<path d="M427.679 259.301L381.649 295.325L381.293 295.023L427.374 259L427.679 259.301Z" fill="black"/>
<path d="M427.577 259.351L301.95 274.424L301.899 274.022L427.475 258.949L427.577 259.351Z" fill="black"/>
<path d="M474.166 105.359L382.972 239.104L382.565 238.903L473.759 105.158L474.166 105.359Z" fill="black"/>
<path d="M474.115 105.409L350.014 207.602L349.658 207.351L473.81 105.108L474.115 105.409Z" fill="black"/>
<path d="M474.064 105.058L473.861 105.409L318.429 43.2599L318.582 42.9082L474.064 105.058Z" fill="black"/>
<path d="M473.962 105.46L390.855 97.9234V97.5215L473.962 105.058V105.46Z" fill="black"/>
<path d="M474.115 105.108L473.81 105.409L365.323 34.4675L365.577 34.166L474.115 105.108Z" fill="black"/>
<path d="M474.013 105.46L293.965 117.166L293.914 116.764L473.912 105.058L474.013 105.46Z" fill="black"/>
<path d="M474.166 105.359L417.1 189.565L416.693 189.364L473.759 105.158L474.166 105.359Z" fill="black"/>
<path d="M474.013 105.409L326.567 134.499L326.465 134.098L473.911 105.058L474.013 105.409Z" fill="black"/>
<path d="M474.166 105.209L473.708 105.309L438.919 1.20742L439.326 1.10693L474.166 105.209Z" fill="black"/>
<path d="M439.224 1.30775L318.582 43.2599L318.429 42.9082L439.021 0.956055L439.224 1.30775Z" fill="black"/>
<path d="M439.326 1.20737L391.059 97.7727L390.652 97.622L438.919 1.05664L439.326 1.20737Z" fill="black"/>
<path d="M439.224 1.30775L365.577 34.4675L365.323 34.1158L439.021 0.956055L439.224 1.30775Z" fill="black"/>
<path d="M474.166 105.209L473.708 105.309L438.919 1.20742L439.326 1.10693L474.166 105.209Z" fill="black"/>
<path d="M439.224 1.30775L318.582 43.2599L318.429 42.9082L439.021 0.956055L439.224 1.30775Z" fill="black"/>
<path d="M439.326 1.20737L391.059 97.7727L390.652 97.622L438.919 1.05664L439.326 1.20737Z" fill="black"/>
<path d="M439.224 1.30775L365.577 34.4675L365.323 34.1158L439.021 0.956055L439.224 1.30775Z" fill="black"/>
<path d="M302.103 274.323L241.019 361.744L240.612 361.493L301.696 274.122L302.103 274.323Z" fill="black"/>
<path d="M323.821 394.905L323.668 395.256L240.714 361.795L240.917 361.443L323.821 394.905Z" fill="black"/>
<path d="M323.973 395.055L323.515 395.106L301.696 274.223L302.154 274.173L323.973 395.055Z" fill="black"/>
<path d="M381.7 295.275L323.973 395.156L323.515 394.955L381.243 295.074L381.7 295.275Z" fill="black"/>
<path d="M381.599 295.375L240.917 361.795L240.713 361.443L381.344 295.023L381.599 295.375Z" fill="black"/>
<path d="M381.548 294.973L381.395 295.375L301.848 274.374L302.001 274.022L381.548 294.973Z" fill="black"/>
<path d="M323.77 395.256L174.543 401.436L174.492 401.034L323.719 394.854L323.77 395.256Z" fill="black"/>
<path d="M240.968 361.795L174.645 401.386L174.34 401.084L240.663 361.443L240.968 361.795Z" fill="black"/>
<path d="M323.77 395.256L174.543 401.436L174.492 401.034L323.719 394.854L323.77 395.256Z" fill="black"/>
<path d="M240.968 361.795L174.645 401.386L174.34 401.084L240.663 361.443L240.968 361.795Z" fill="black"/>
<path d="M174.543 401.436L172.458 401.586L172.407 401.235L174.442 401.034L174.543 401.436Z" fill="black"/>
<path d="M174.543 401.436L172.458 401.586L172.407 401.235L174.442 401.034L174.543 401.436Z" fill="black"/>
<path d="M323.77 395.256L172.458 401.586L172.407 401.235L323.719 394.854L323.77 395.256Z" fill="black"/>
<path d="M240.968 361.795L172.56 401.586L172.305 401.235L240.663 361.443L240.968 361.795Z" fill="black"/>
<path d="M172.661 401.436L172.204 401.386L182.274 313.512L182.783 313.562L172.661 401.436Z" fill="black"/>
<path d="M174.747 401.235L174.238 401.185L182.274 313.512L182.783 313.562L174.747 401.235Z" fill="black"/>
<path d="M174.747 401.235L174.238 401.185L182.274 313.512L182.783 313.562L174.747 401.235Z" fill="black"/>
<path d="M323.871 394.904L323.617 395.256L182.427 313.713L182.681 313.412L323.871 394.904Z" fill="black"/>
<path d="M240.968 361.493L240.663 361.745L182.376 313.713L182.681 313.412L240.968 361.493Z" fill="black"/>
<path d="M302.001 274.374L182.63 313.713L182.427 313.362L301.798 274.022L302.001 274.374Z" fill="black"/>
<path d="M280.843 188.56L182.732 313.663L182.325 313.411L280.436 188.309L280.843 188.56Z" fill="black"/>
<path d="M381.649 295.073L381.293 295.324L280.436 188.56L280.792 188.309L381.649 295.073Z" fill="black"/>
<path d="M302.154 274.172L301.696 274.223L280.385 188.459L280.843 188.409L302.154 274.172Z" fill="black"/>
<path d="M182.579 313.763L68.599 340.542L68.4464 340.14L182.477 313.361L182.579 313.763Z" fill="black"/>
<path d="M172.56 401.235L172.305 401.586L68.3962 340.542L68.6505 340.19L172.56 401.235Z" fill="black"/>
<path d="M174.645 401.084L174.391 401.385L68.3962 340.542L68.6505 340.19L174.645 401.084Z" fill="black"/>
<path d="M174.645 401.084L174.391 401.385L68.3962 340.542L68.6505 340.19L174.645 401.084Z" fill="black"/>
<path d="M240.815 361.794L68.498 340.542L68.5488 340.14L240.815 361.443V361.794Z" fill="black"/>
<path d="M68.7014 340.492L1.10702 423.844L0.700134 423.643L68.3454 340.241L68.7014 340.492Z" fill="black"/>
<path d="M172.458 401.587L0.954353 423.945L0.852631 423.543L172.407 401.235L172.458 401.587Z" fill="black"/>
<path d="M174.543 401.436L0.954292 423.945L0.85257 423.543L174.441 401.034L174.543 401.436Z" fill="black"/>
<path d="M174.543 401.436L0.954292 423.945L0.85257 423.543L174.441 401.034L174.543 401.436Z" fill="black"/>
<path d="M152.114 224.433L68.7015 340.442L68.3454 340.241L151.707 224.232L152.114 224.433Z" fill="black"/>
<path d="M280.69 188.61L151.961 224.534L151.809 224.182L280.538 188.259L280.69 188.61Z" fill="black"/>
<path d="M182.732 313.512L182.325 313.613L151.656 224.383L152.114 224.282L182.732 313.512Z" fill="black"/>
<path d="M241.019 361.544L240.612 361.694L151.706 224.433L152.113 224.282L241.019 361.544Z" fill="black"/>
<path d="M302.001 274.022L301.849 274.374L151.809 224.534L151.961 224.182L302.001 274.022Z" fill="black"/>
<path d="M326.72 134.399L280.843 188.56L280.436 188.308L326.313 134.198L326.72 134.399Z" fill="black"/>
<path d="M302.154 274.223L301.696 274.172L326.313 134.248L326.77 134.349L302.154 274.223Z" fill="black"/>
<path d="M417.049 189.313L416.795 189.615L326.364 134.449L326.669 134.147L417.049 189.313Z" fill="black"/>
<path d="M416.896 189.665L280.64 188.61V188.208L416.896 189.263V189.665Z" fill="black"/>
<path d="M417.049 189.615L302.052 274.373L301.747 274.072L416.744 189.313L417.049 189.615Z" fill="black"/>
<path d="M403.672 365.262L403.215 365.312L381.243 295.224L381.7 295.124L403.672 365.262Z" fill="black"/>
<path d="M403.52 365.463L323.871 395.256L323.668 394.904L403.316 365.111L403.52 365.463Z" fill="black"/>
<path d="M403.418 365.463L240.815 361.795V361.443L403.418 365.061V365.463Z" fill="black"/>
<path d="M403.571 365.161L403.266 365.412L301.747 274.323L302.103 274.072L403.571 365.161Z" fill="black"/>
<path d="M417.049 189.314L416.794 189.615L293.812 117.116L294.067 116.814L417.049 189.314Z" fill="black"/>
<path d="M326.618 134.148L326.414 134.449L293.812 117.116L294.067 116.814L326.618 134.148Z" fill="black"/>
<path d="M280.843 188.459L280.385 188.409L293.711 116.915L294.169 117.015L280.843 188.459Z" fill="black"/>
<path d="M365.628 34.4172L294.118 117.065L293.762 116.865L365.272 34.166L365.628 34.4172Z" fill="black"/>
<path d="M365.679 34.367L326.77 134.349L326.313 134.248L365.221 34.2163L365.679 34.367Z" fill="black"/>
<path d="M391.059 97.6721L390.652 97.7726L365.222 34.3671L365.679 34.2666L391.059 97.6721Z" fill="black"/>
<path d="M390.906 97.9229L293.965 117.166L293.863 116.764L390.805 97.521L390.906 97.9229Z" fill="black"/>
<path d="M417.151 189.414L416.693 189.514L390.601 97.7724L391.059 97.6719L417.151 189.414Z" fill="black"/>
<path d="M390.957 97.8732L326.669 134.449L326.364 134.148L390.703 97.5718L390.957 97.8732Z" fill="black"/>
<path d="M391.008 97.8732L280.792 188.56L280.487 188.259L390.703 97.5718L391.008 97.8732Z" fill="black"/>
<path d="M294.067 117.116L154.708 205.793L154.402 205.492L293.762 116.814L294.067 117.116Z" fill="black"/>
<path d="M152.114 224.383L151.656 224.333L154.301 205.643L154.809 205.693L152.114 224.383Z" fill="black"/>
<path d="M154.758 205.743L68.7524 340.442L68.2947 340.241L154.352 205.542L154.758 205.743Z" fill="black"/>
<path d="M280.69 188.61L154.606 205.843L154.504 205.442L280.589 188.208L280.69 188.61Z" fill="black"/>
<path d="M182.732 313.512L182.325 313.613L154.352 205.693L154.758 205.592L182.732 313.512Z" fill="black"/>
<path d="M302.001 274.022L301.798 274.374L154.453 205.843L154.657 205.492L302.001 274.022Z" fill="black"/>
<path d="M294.067 117.116L154.708 205.793L154.402 205.492L293.762 116.814L294.067 117.116Z" fill="black"/>
<path d="M152.114 224.383L151.656 224.333L154.301 205.643L154.809 205.693L152.114 224.383Z" fill="black"/>
<path d="M154.758 205.743L68.7524 340.442L68.2947 340.241L154.352 205.542L154.758 205.743Z" fill="black"/>
<path d="M280.69 188.61L154.606 205.843L154.504 205.442L280.589 188.208L280.69 188.61Z" fill="black"/>
<path d="M182.732 313.512L182.325 313.613L154.352 205.693L154.758 205.592L182.732 313.512Z" fill="black"/>
<path d="M302.001 274.022L301.798 274.374L154.453 205.843L154.657 205.492L302.001 274.022Z" fill="black"/>
<path d="M391.008 97.5717L390.703 97.8731L318.378 43.2097L318.633 42.9585L391.008 97.5717Z" fill="black"/>
<path d="M365.476 34.5181L318.582 43.2603L318.429 42.9086L365.374 34.1162L365.476 34.5181Z" fill="black"/>
<path d="M318.734 43.1595L294.168 117.015L293.711 116.915L318.277 43.0088L318.734 43.1595Z" fill="black"/>
<path d="M326.771 134.299H326.313L318.277 43.1093L318.734 43.0591L326.771 134.299Z" fill="black"/>
<path d="M318.734 43.1596L280.843 188.46L280.385 188.359L318.277 43.0591L318.734 43.1596Z" fill="black"/>
<path d="M239.646 270.354L239.34 270.655L154.402 205.793L154.708 205.491L239.646 270.354Z" fill="black"/>
<path d="M239.646 270.354L239.34 270.655L154.402 205.793L154.708 205.491L239.646 270.354Z" fill="black"/>
<path d="M239.595 270.354L239.391 270.655L151.758 224.533L152.012 224.181L239.595 270.354Z" fill="black"/>
<path d="M280.843 188.51L239.696 270.605L239.29 270.454L280.385 188.359L280.843 188.51Z" fill="black"/>
<path d="M239.645 270.655L182.681 313.713L182.376 313.411L239.34 270.354L239.645 270.655Z" fill="black"/>
<path d="M239.696 270.605L172.661 401.486L172.204 401.335L239.289 270.455L239.696 270.605Z" fill="black"/>
<path d="M239.696 270.605L174.696 401.285L174.289 401.134L239.289 270.455L239.696 270.605Z" fill="black"/>
<path d="M239.696 270.605L174.696 401.285L174.289 401.134L239.289 270.455L239.696 270.605Z" fill="black"/>
<path d="M381.446 295.375L239.442 270.706L239.544 270.304L381.497 294.973L381.446 295.375Z" fill="black"/>
<path d="M323.973 394.954L323.566 395.155L239.289 270.605L239.696 270.404L323.973 394.954Z" fill="black"/>
<path d="M241.019 361.644L240.561 361.593L239.239 270.504H239.747L241.019 361.644Z" fill="black"/>
<path d="M301.899 274.424L239.493 270.706V270.304L301.899 274.022V274.424Z" fill="black"/>
<path d="M349.963 207.652L239.645 270.656L239.34 270.354L349.709 207.3L349.963 207.652Z" fill="black"/>
<path d="M391.059 97.7724L350.065 207.551L349.607 207.401L390.652 97.6719L391.059 97.7724Z" fill="black"/>
<path d="M350.065 207.401L349.658 207.551L293.71 117.065L294.117 116.864L350.065 207.401Z" fill="black"/>
<path d="M416.998 189.665L349.912 207.652L349.759 207.3L416.845 189.263L416.998 189.665Z" fill="black"/>
<path d="M350.065 207.451L349.607 207.551L326.313 134.349L326.719 134.248L350.065 207.451Z" fill="black"/>
<path d="M349.912 207.3L349.759 207.652L280.538 188.61L280.69 188.258L349.912 207.3Z" fill="black"/>
<path d="M381.7 295.123L381.242 295.224L349.607 207.551L350.065 207.451L381.7 295.123Z" fill="black"/>
<path d="M350.014 207.601L302.102 274.323L301.696 274.122L349.607 207.35L350.014 207.601Z" fill="black"/>
<path d="M247.326 388.725H246.868L239.239 270.505H239.747L247.326 388.725Z" fill="black"/>
<path d="M403.469 365.462L247.173 388.926L247.071 388.574L403.367 365.061L403.469 365.462Z" fill="black"/>
<path d="M247.173 388.574L247.02 388.925L68.4471 340.542L68.5997 340.19L247.173 388.574Z" fill="black"/>
<path d="M247.275 388.624L246.919 388.875L182.325 313.663L182.732 313.462L247.275 388.624Z" fill="black"/>
<path d="M247.173 388.925L172.509 401.586L172.407 401.235L247.071 388.523L247.173 388.925Z" fill="black"/>
<path d="M247.173 388.925L174.543 401.436L174.441 401.034L247.071 388.523L247.173 388.925Z" fill="black"/>
<path d="M247.173 388.925L174.543 401.436L174.441 401.034L247.071 388.523L247.173 388.925Z" fill="black"/>
<path d="M381.599 295.324L247.275 388.875L246.97 388.574L381.345 295.023L381.599 295.324Z" fill="black"/>
<path d="M323.719 395.256L247.071 388.925L247.122 388.574L323.77 394.854L323.719 395.256Z" fill="black"/>
<path d="M247.325 388.724L246.868 388.775L240.561 361.644L241.019 361.594L247.325 388.724Z" fill="black"/>
<path d="M302.154 274.273L247.326 388.825L246.868 388.675L301.696 274.123L302.154 274.273Z" fill="black"/>
<path d="M382.921 238.853L382.565 239.104L349.658 207.602L350.014 207.351L382.921 238.853Z" fill="black"/>
<path d="M382.819 239.154L239.544 270.706L239.442 270.305L382.718 238.803L382.819 239.154Z" fill="black"/>
<path d="M382.972 239.003L382.514 238.953L390.601 97.6724L391.059 97.7226L382.972 239.003Z" fill="black"/>
<path d="M382.972 238.903L382.565 239.104L293.711 117.066L294.118 116.865L382.972 238.903Z" fill="black"/>
<path d="M403.673 365.262L403.215 365.312L382.514 239.003L382.972 238.953L403.673 365.262Z" fill="black"/>
<path d="M417.1 189.565L382.972 239.104L382.565 238.903L416.693 189.364L417.1 189.565Z" fill="black"/>
<path d="M382.972 238.903L382.565 239.054L326.313 134.399L326.72 134.249L382.972 238.903Z" fill="black"/>
<path d="M382.871 238.803L382.667 239.155L280.538 188.611L280.741 188.259L382.871 238.803Z" fill="black"/>
<path d="M381.701 295.174H381.243L382.514 238.953L382.972 239.003L381.701 295.174Z" fill="black"/>
<path d="M382.87 239.154L302.001 274.374L301.798 274.022L382.667 238.803L382.87 239.154Z" fill="black"/>
<path d="M427.628 259L427.425 259.301L382.667 239.154L382.87 238.802L427.628 259Z" fill="black"/>
<path d="M427.679 258.999L427.374 259.301L349.709 207.652L349.963 207.351L427.679 258.999Z" fill="black"/>
<path d="M403.673 365.312L403.215 365.262L427.272 259.1L427.73 259.201L403.673 365.312Z" fill="black"/>
<path d="M427.73 259.05L427.323 259.251L326.313 134.399L326.72 134.198L427.73 259.05Z" fill="black"/>
<path d="M427.628 259L427.425 259.301L280.538 188.61L280.741 188.259L427.628 259Z" fill="black"/>
<path d="M427.679 259.301L381.649 295.325L381.293 295.023L427.374 259L427.679 259.301Z" fill="black"/>
<path d="M427.577 259.351L301.95 274.424L301.9 274.022L427.476 258.949L427.577 259.351Z" fill="black"/>
<path d="M474.166 105.359L382.972 239.103L382.565 238.902L473.759 105.158L474.166 105.359Z" fill="black"/>
<path d="M474.115 105.409L350.014 207.602L349.658 207.351L473.81 105.108L474.115 105.409Z" fill="black"/>
<path d="M474.064 105.058L473.861 105.409L318.429 43.2599L318.582 42.9082L474.064 105.058Z" fill="black"/>
<path d="M473.963 105.459L390.856 97.9229V97.521L473.963 105.057V105.459Z" fill="black"/>
<path d="M474.115 105.108L473.81 105.409L365.323 34.4675L365.577 34.166L474.115 105.108Z" fill="black"/>
<path d="M474.013 105.46L293.965 117.166L293.914 116.764L473.912 105.058L474.013 105.46Z" fill="black"/>
<path d="M474.166 105.359L417.1 189.565L416.693 189.364L473.759 105.158L474.166 105.359Z" fill="black"/>
<path d="M474.013 105.409L326.567 134.499L326.465 134.098L473.912 105.058L474.013 105.409Z" fill="black"/>
<path d="M474.166 105.209L473.708 105.309L438.919 1.20742L439.326 1.10693L474.166 105.209Z" fill="black"/>
<path d="M439.224 1.30775L318.582 43.2599L318.429 42.9082L439.021 0.956055L439.224 1.30775Z" fill="black"/>
<path d="M439.326 1.20737L391.059 97.7727L390.652 97.622L438.919 1.05664L439.326 1.20737Z" fill="black"/>
<path d="M439.224 1.30775L365.577 34.4675L365.323 34.1158L439.021 0.956055L439.224 1.30775Z" fill="black"/>
<path d="M474.166 105.209L473.708 105.309L438.919 1.20742L439.326 1.10693L474.166 105.209Z" fill="black"/>
<path d="M439.224 1.30775L318.582 43.2599L318.429 42.9082L439.021 0.956055L439.224 1.30775Z" fill="black"/>
<path d="M439.326 1.20737L391.059 97.7727L390.652 97.622L438.919 1.05664L439.326 1.20737Z" fill="black"/>
<path d="M439.224 1.30775L365.577 34.4675L365.323 34.1158L439.021 0.956055L439.224 1.30775Z" fill="black"/>
</svg>
