<svg width="57" height="24" viewBox="0 0 57 24" fill="none" xmlns="http://www.w3.org/2000/svg">
<path fill-rule="evenodd" clip-rule="evenodd" d="M7.2943 1.76801C7.2943 1.34396 7.63806 1.00021 8.06211 1.00021H19.8478C20.2718 1.00021 20.6156 1.34396 20.6156 1.76801C20.6156 2.19205 20.2718 2.53581 19.8478 2.53581H8.06211C7.63806 2.53581 7.2943 2.19205 7.2943 1.76801Z" fill="url(#paint0_linear)"/>
<path fill-rule="evenodd" clip-rule="evenodd" d="M0.260038 5.57588C0.260038 5.15183 0.603794 4.80807 1.02784 4.80807H13.129C13.5531 4.80807 13.8968 5.15183 13.8968 5.57588C13.8968 5.99992 13.5531 6.34368 13.129 6.34368H1.02784C0.603794 6.34368 0.260038 5.99992 0.260038 5.57588Z" fill="url(#paint1_linear)"/>
<path fill-rule="evenodd" clip-rule="evenodd" d="M0.427079 18.7164C0.427079 18.2923 0.770836 17.9486 1.19488 17.9486H12.9805C13.4046 17.9486 13.7483 18.2923 13.7483 18.7164C13.7483 19.1404 13.4046 19.4842 12.9805 19.4842H1.19488C0.770836 19.4842 0.427079 19.1404 0.427079 18.7164Z" fill="url(#paint2_linear)"/>
<path fill-rule="evenodd" clip-rule="evenodd" d="M20.6898 22.204C20.6907 22.628 20.3477 22.9725 19.9237 22.9735L8.06381 22.9998C7.63977 23.0008 7.29525 22.6578 7.29431 22.2337C7.29336 21.8097 7.63636 21.4652 8.0604 21.4642L19.9203 21.4379C20.3443 21.4369 20.6889 21.7799 20.6898 22.204Z" fill="url(#paint3_linear)"/>
<path fill-rule="evenodd" clip-rule="evenodd" d="M0.466586 4.7089C0.85659 4.54243 1.3077 4.72364 1.47416 5.11365L8.56566 21.728C8.73212 22.118 8.55091 22.5691 8.1609 22.7356C7.7709 22.902 7.31979 22.7208 7.15333 22.3308L0.0618333 5.71647C-0.104632 5.32647 0.0765822 4.87536 0.466586 4.7089Z" fill="url(#paint4_linear)"/>
<path fill-rule="evenodd" clip-rule="evenodd" d="M12.7743 4.90582C13.1648 4.74064 13.6153 4.92335 13.7805 5.3139L20.7235 21.7303C20.8887 22.1209 20.706 22.5714 20.3154 22.7366C19.9249 22.9018 19.4744 22.719 19.3092 22.3285L12.3662 5.91205C12.201 5.5215 12.3837 5.07099 12.7743 4.90582Z" fill="url(#paint5_linear)"/>
<path fill-rule="evenodd" clip-rule="evenodd" d="M0.886 19.4996C1.27926 19.6583 1.72665 19.4681 1.88528 19.0748L8.60712 2.41091C8.76575 2.01766 8.57555 1.57027 8.18229 1.41163C7.78904 1.253 7.34164 1.44321 7.18301 1.83646L0.461174 18.5004C0.302543 18.8936 0.492744 19.341 0.886 19.4996Z" fill="url(#paint6_linear)"/>
<path fill-rule="evenodd" clip-rule="evenodd" d="M12.7124 19.4101C13.1058 19.5684 13.553 19.3779 13.7113 18.9845L20.526 2.05471C20.6843 1.66134 20.4938 1.21408 20.1004 1.05574C19.7071 0.897399 19.2598 1.08793 19.1015 1.4813L12.2868 18.4111C12.1285 18.8045 12.319 19.2518 12.7124 19.4101Z" fill="url(#paint7_linear)"/>
<path fill-rule="evenodd" clip-rule="evenodd" d="M8.74885 1.42466C8.93849 1.80394 8.78475 2.26513 8.40548 2.45477L1.11137 6.10183C0.732092 6.29147 0.270895 6.13773 0.0812563 5.75846C-0.108382 5.37918 0.0453501 4.91798 0.424627 4.72834L7.71874 1.08129C8.09801 0.89165 8.55921 1.04538 8.74885 1.42466Z" fill="url(#paint8_linear)"/>
<path fill-rule="evenodd" clip-rule="evenodd" d="M20.4843 1.3941C20.6908 1.76446 20.558 2.23211 20.1876 2.43861L13.3916 6.2279C13.0212 6.4344 12.5535 6.30157 12.347 5.9312C12.1405 5.56084 12.2734 5.09319 12.6437 4.88669L19.4398 1.0974C19.8102 0.890898 20.2778 1.02373 20.4843 1.3941Z" fill="url(#paint9_linear)"/>
<path fill-rule="evenodd" clip-rule="evenodd" d="M8.74885 22.5754C8.93849 22.1961 8.78475 21.7349 8.40548 21.5453L1.5166 18.1009C1.13732 17.9112 0.676123 18.0649 0.486484 18.4442C0.296846 18.8235 0.450578 19.2847 0.829855 19.4743L7.71874 22.9188C8.09801 23.1084 8.55921 22.9547 8.74885 22.5754Z" fill="url(#paint10_linear)"/>
<path fill-rule="evenodd" clip-rule="evenodd" d="M20.6997 22.5527C20.8913 22.1744 20.7401 21.7124 20.3618 21.5208L13.3646 17.9758C12.9864 17.7841 12.5244 17.9354 12.3327 18.3137C12.1411 18.692 12.2924 19.154 12.6706 19.3456L19.6678 22.8906C20.0461 23.0822 20.5081 22.9309 20.6997 22.5527Z" fill="url(#paint11_linear)"/>
<path d="M36.344 1.304L34.032 4.744V7H33V4.744L30.688 1.304H31.864L33.512 3.88L35.168 1.304H36.344ZM39.7193 7.072C39.17 7.072 38.69 6.95467 38.2793 6.72C37.874 6.48 37.5593 6.14133 37.3353 5.704C37.1166 5.26133 37.0073 4.74133 37.0073 4.144C37.0073 3.552 37.1166 3.03733 37.3353 2.6C37.554 2.15733 37.866 1.81867 38.2713 1.584C38.682 1.34933 39.1646 1.232 39.7193 1.232C40.274 1.232 40.754 1.34933 41.1593 1.584C41.57 1.81867 41.882 2.15733 42.0953 2.6C42.314 3.03733 42.4233 3.552 42.4233 4.144C42.4233 4.74133 42.314 5.26133 42.0953 5.704C41.8766 6.14133 41.5646 6.48 41.1593 6.72C40.754 6.95467 40.274 7.072 39.7193 7.072ZM39.7193 6.248C40.2473 6.248 40.658 6.06667 40.9513 5.704C41.2446 5.34133 41.3913 4.82133 41.3913 4.144C41.3913 3.472 41.2446 2.95733 40.9513 2.6C40.658 2.23733 40.2473 2.056 39.7193 2.056C39.1913 2.056 38.7806 2.23467 38.4873 2.592C38.194 2.94933 38.0473 3.46667 38.0473 4.144C38.0473 4.82133 38.194 5.34133 38.4873 5.704C38.7806 6.06667 39.1913 6.248 39.7193 6.248ZM46.7124 7.072C45.9284 7.072 45.3337 6.872 44.9284 6.472C44.5284 6.06667 44.3284 5.47467 44.3284 4.696V1.304H45.3444V4.752C45.3444 5.24267 45.459 5.616 45.6884 5.872C45.9177 6.12267 46.259 6.248 46.7124 6.248C47.155 6.248 47.491 6.12 47.7204 5.864C47.955 5.608 48.0724 5.23733 48.0724 4.752V1.304H49.0884V4.696C49.0884 5.46933 48.8857 6.05867 48.4804 6.464C48.075 6.86933 47.4857 7.072 46.7124 7.072ZM55.8502 7H54.7622L54.0342 5.104C53.9702 4.928 53.8716 4.80533 53.7382 4.736C53.6049 4.66667 53.4316 4.632 53.2182 4.632H52.1862V7H51.1622V1.304H53.6022C54.2476 1.304 54.7382 1.44533 55.0742 1.728C55.4102 2.01067 55.5782 2.416 55.5782 2.944C55.5782 3.32267 55.4769 3.64533 55.2742 3.912C55.0769 4.17333 54.7942 4.36 54.4262 4.472C54.7622 4.54133 55.0049 4.776 55.1542 5.176L55.8502 7ZM53.4582 3.832C53.8476 3.832 54.1356 3.76 54.3222 3.616C54.5089 3.472 54.6022 3.25333 54.6022 2.96C54.6022 2.672 54.5089 2.45867 54.3222 2.32C54.1409 2.176 53.8529 2.104 53.4582 2.104H52.1702V3.832H53.4582ZM31.616 15V9.304H32.648V14.152H35.312V15H31.616ZM39.2681 15.072C38.7187 15.072 38.2387 14.9547 37.8281 14.72C37.4227 14.48 37.1081 14.1413 36.8841 13.704C36.6654 13.2613 36.5561 12.7413 36.5561 12.144C36.5561 11.552 36.6654 11.0373 36.8841 10.6C37.1027 10.1573 37.4147 9.81867 37.8201 9.584C38.2307 9.34933 38.7134 9.232 39.2681 9.232C39.8227 9.232 40.3027 9.34933 40.7081 9.584C41.1187 9.81867 41.4307 10.1573 41.6441 10.6C41.8627 11.0373 41.9721 11.552 41.9721 12.144C41.9721 12.7413 41.8627 13.2613 41.6441 13.704C41.4254 14.1413 41.1134 14.48 40.7081 14.72C40.3027 14.9547 39.8227 15.072 39.2681 15.072ZM39.2681 14.248C39.7961 14.248 40.2067 14.0667 40.5001 13.704C40.7934 13.3413 40.9401 12.8213 40.9401 12.144C40.9401 11.472 40.7934 10.9573 40.5001 10.6C40.2067 10.2373 39.7961 10.056 39.2681 10.056C38.7401 10.056 38.3294 10.2347 38.0361 10.592C37.7427 10.9493 37.5961 11.4667 37.5961 12.144C37.5961 12.8213 37.7427 13.3413 38.0361 13.704C38.3294 14.0667 38.7401 14.248 39.2681 14.248ZM48.7411 11.92V14.656C48.4798 14.784 48.1651 14.8853 47.7971 14.96C47.4291 15.0347 47.0531 15.072 46.6691 15.072C46.0825 15.072 45.5731 14.9547 45.1411 14.72C44.7091 14.4853 44.3785 14.1493 44.1491 13.712C43.9198 13.2747 43.8051 12.752 43.8051 12.144C43.8051 11.5467 43.9198 11.0293 44.1491 10.592C44.3785 10.1547 44.7038 9.81867 45.1251 9.584C45.5518 9.34933 46.0505 9.232 46.6211 9.232C47.0211 9.232 47.3945 9.29067 47.7411 9.408C48.0931 9.52533 48.3865 9.69067 48.6211 9.904L48.2691 10.656C48.0025 10.448 47.7411 10.2987 47.4851 10.208C47.2291 10.1173 46.9491 10.072 46.6451 10.072C46.0585 10.072 45.6131 10.248 45.3091 10.6C45.0105 10.952 44.8611 11.4667 44.8611 12.144C44.8611 12.8427 45.0158 13.3707 45.3251 13.728C45.6345 14.08 46.0958 14.256 46.7091 14.256C47.0825 14.256 47.4505 14.2053 47.8131 14.104V12.664H46.5811V11.92H48.7411ZM53.3912 15.072C52.8419 15.072 52.3619 14.9547 51.9512 14.72C51.5459 14.48 51.2312 14.1413 51.0072 13.704C50.7885 13.2613 50.6792 12.7413 50.6792 12.144C50.6792 11.552 50.7885 11.0373 51.0072 10.6C51.2259 10.1573 51.5379 9.81867 51.9432 9.584C52.3539 9.34933 52.8365 9.232 53.3912 9.232C53.9459 9.232 54.4259 9.34933 54.8312 9.584C55.2419 9.81867 55.5539 10.1573 55.7672 10.6C55.9859 11.0373 56.0952 11.552 56.0952 12.144C56.0952 12.7413 55.9859 13.2613 55.7672 13.704C55.5485 14.1413 55.2365 14.48 54.8312 14.72C54.4259 14.9547 53.9459 15.072 53.3912 15.072ZM53.3912 14.248C53.9192 14.248 54.3299 14.0667 54.6232 13.704C54.9165 13.3413 55.0632 12.8213 55.0632 12.144C55.0632 11.472 54.9165 10.9573 54.6232 10.6C54.3299 10.2373 53.9192 10.056 53.3912 10.056C52.8632 10.056 52.4525 10.2347 52.1592 10.592C51.8659 10.9493 51.7192 11.4667 51.7192 12.144C51.7192 12.8213 51.8659 13.3413 52.1592 13.704C52.4525 14.0667 52.8632 14.248 53.3912 14.248ZM35.552 17.304H36.576V23H35.552V20.528H32.632V23H31.616V17.304H32.632V19.688H35.552V17.304ZM39.0113 23V17.304H42.8193V18.12H40.0193V19.696H42.6513V20.512H40.0193V22.184H42.8193V23H39.0113ZM49.6571 23H48.5691L47.8411 21.104C47.7771 20.928 47.6785 20.8053 47.5451 20.736C47.4118 20.6667 47.2385 20.632 47.0251 20.632H45.9931V23H44.9691V17.304H47.4091C48.0545 17.304 48.5451 17.4453 48.8811 17.728C49.2171 18.0107 49.3851 18.416 49.3851 18.944C49.3851 19.3227 49.2838 19.6453 49.0811 19.912C48.8838 20.1733 48.6011 20.36 48.2331 20.472C48.5691 20.5413 48.8118 20.776 48.9611 21.176L49.6571 23ZM47.2651 19.832C47.6545 19.832 47.9425 19.76 48.1291 19.616C48.3158 19.472 48.4091 19.2533 48.4091 18.96C48.4091 18.672 48.3158 18.4587 48.1291 18.32C47.9478 18.176 47.6598 18.104 47.2651 18.104H45.9771V19.832H47.2651ZM51.7863 23V17.304H55.5943V18.12H52.7943V19.696H55.4263V20.512H52.7943V22.184H55.5943V23H51.7863Z" fill="white"/>
<defs>
<linearGradient id="paint0_linear" x1="-7.94444" y1="1" x2="25.7613" y2="20.7529" gradientUnits="userSpaceOnUse">
<stop stop-color="#8900EF"/>
<stop offset="1" stop-color="#4EFEF6"/>
</linearGradient>
<linearGradient id="paint1_linear" x1="-7.94444" y1="1" x2="25.7613" y2="20.7529" gradientUnits="userSpaceOnUse">
<stop stop-color="#8900EF"/>
<stop offset="1" stop-color="#4EFEF6"/>
</linearGradient>
<linearGradient id="paint2_linear" x1="-7.94444" y1="1" x2="25.7613" y2="20.7529" gradientUnits="userSpaceOnUse">
<stop stop-color="#8900EF"/>
<stop offset="1" stop-color="#4EFEF6"/>
</linearGradient>
<linearGradient id="paint3_linear" x1="-7.94444" y1="1" x2="25.7613" y2="20.7529" gradientUnits="userSpaceOnUse">
<stop stop-color="#8900EF"/>
<stop offset="1" stop-color="#4EFEF6"/>
</linearGradient>
<linearGradient id="paint4_linear" x1="-7.94444" y1="1" x2="25.7613" y2="20.7529" gradientUnits="userSpaceOnUse">
<stop stop-color="#8900EF"/>
<stop offset="1" stop-color="#4EFEF6"/>
</linearGradient>
<linearGradient id="paint5_linear" x1="-7.94444" y1="1" x2="25.7613" y2="20.7529" gradientUnits="userSpaceOnUse">
<stop stop-color="#8900EF"/>
<stop offset="1" stop-color="#4EFEF6"/>
</linearGradient>
<linearGradient id="paint6_linear" x1="-7.94444" y1="1" x2="25.7613" y2="20.7529" gradientUnits="userSpaceOnUse">
<stop stop-color="#8900EF"/>
<stop offset="1" stop-color="#4EFEF6"/>
</linearGradient>
<linearGradient id="paint7_linear" x1="-7.94444" y1="1" x2="25.7613" y2="20.7529" gradientUnits="userSpaceOnUse">
<stop stop-color="#8900EF"/>
<stop offset="1" stop-color="#4EFEF6"/>
</linearGradient>
<linearGradient id="paint8_linear" x1="-7.94444" y1="1" x2="25.7613" y2="20.7529" gradientUnits="userSpaceOnUse">
<stop stop-color="#8900EF"/>
<stop offset="1" stop-color="#4EFEF6"/>
</linearGradient>
<linearGradient id="paint9_linear" x1="-7.94444" y1="1" x2="25.7613" y2="20.7529" gradientUnits="userSpaceOnUse">
<stop stop-color="#8900EF"/>
<stop offset="1" stop-color="#4EFEF6"/>
</linearGradient>
<linearGradient id="paint10_linear" x1="-7.94444" y1="1" x2="25.7613" y2="20.7529" gradientUnits="userSpaceOnUse">
<stop stop-color="#8900EF"/>
<stop offset="1" stop-color="#4EFEF6"/>
</linearGradient>
<linearGradient id="paint11_linear" x1="-7.94444" y1="1" x2="25.7613" y2="20.7529" gradientUnits="userSpaceOnUse">
<stop stop-color="#8900EF"/>
<stop offset="1" stop-color="#4EFEF6"/>
</linearGradient>
</defs>
</svg>
