<svg width="28" height="28" viewBox="0 0 28 28" fill="none" xmlns="http://www.w3.org/2000/svg">
<path d="M20.4113 14.7471C20.4113 18.6582 17.2407 21.8287 13.3297 21.8287C9.41859 21.8287 6.24805 18.6582 6.24805 14.7471C6.24805 10.8361 9.41859 7.66553 13.3297 7.66553C17.2407 7.66553 20.4113 10.8361 20.4113 14.7471Z" fill="white"/>
<path d="M12.805 14.6971L14 10.8133L15.2448 14.6971H12.805ZM22.5145 10.4647L26.0498 14L22.5145 17.5353V22.5145H17.5353L14 26L10.5145 22.5145H5.53527V17.5353L2 14L5.53527 10.4647V5.48548H10.5145L14 2L17.5353 5.48548H22.5145V10.4647ZM16.4398 18.2324H18.4813L15.0954 8.6722H12.9544L9.56846 18.2324H11.5602L12.3071 16.1411H15.6929L16.4398 18.2324Z" fill="#F44336"/>
<path fill-rule="evenodd" clip-rule="evenodd" d="M12.9545 8.67224H15.0956L18.4815 18.2324H16.44L15.6931 16.1411H12.3072L11.5603 18.2324H9.56862L12.9545 8.67224ZM14.0002 10.8133L12.8051 14.6971H15.245L14.0002 10.8133ZM10.5147 22.5146H5.53542V17.5353L2.00015 14L5.53542 10.4648V5.48551H10.5147L14.0002 2.00004L17.5354 5.48551H22.5147V10.4648L26.0499 14L22.5147 17.5353V22.5146H17.5354L14.0001 26L10.5147 22.5146ZM17.9455 23.5146L13.9952 27.4093L10.1005 23.5146H4.53542V17.9495L0.585938 14L4.53542 10.0506V4.48551H10.1005L13.9952 0.59082L17.9455 4.48551H23.5147V10.0506L27.4642 14L23.5147 17.9495V23.5146H17.9455Z" fill="white"/>
</svg>
