<svg width="20" height="20" viewBox="0 0 20 20" fill="none" xmlns="http://www.w3.org/2000/svg">
<circle cx="10" cy="10" r="10" fill="#F1F1F1"/>
<path d="M15.7485 12.9108C15.5331 13.3999 15.278 13.8501 14.9826 14.2641C14.5798 14.8284 14.25 15.219 13.9959 15.4359C13.6019 15.7919 13.1798 15.9743 12.7278 15.9846C12.4033 15.9846 12.012 15.8939 11.5565 15.7098C11.0995 15.5266 10.6795 15.4359 10.2955 15.4359C9.89272 15.4359 9.46077 15.5266 8.99874 15.7098C8.53601 15.8939 8.16324 15.9898 7.87824 15.9993C7.44479 16.0175 7.01275 15.8299 6.5815 15.4359C6.30626 15.2 5.96198 14.7955 5.54955 14.2226C5.10705 13.6107 4.74325 12.9013 4.45824 12.0924C4.15301 11.2187 4 10.3727 4 9.55364C4 8.61541 4.2063 7.8062 4.61952 7.12809C4.94428 6.5834 5.37632 6.15374 5.91705 5.83832C6.45778 5.52289 7.04204 5.36216 7.67123 5.35187C8.01551 5.35187 8.46698 5.45653 9.02802 5.6622C9.58749 5.86856 9.94671 5.97321 10.1042 5.97321C10.222 5.97321 10.621 5.85085 11.2975 5.60689C11.9373 5.38065 12.4772 5.28697 12.9195 5.32387C14.1181 5.41893 15.0186 5.88325 15.6175 6.71977C14.5455 7.35805 14.0152 8.25203 14.0258 9.39887C14.0355 10.2922 14.3652 11.0355 15.0133 11.6257C15.3071 11.8997 15.6351 12.1114 16 12.2618C15.9209 12.4873 15.8373 12.7034 15.7485 12.9108ZM12.9996 2.28061C12.9996 2.98077 12.7393 3.63451 12.2204 4.2396C11.5943 4.95894 10.837 5.3746 10.0157 5.30901C10.0053 5.22501 9.99921 5.13661 9.99921 5.04371C9.99921 4.37156 10.297 3.65222 10.8257 3.06407C11.0897 2.76628 11.4255 2.51867 11.8326 2.32114C12.2389 2.12657 12.6232 2.01896 12.9846 2.00053C12.9952 2.09413 12.9996 2.18774 12.9996 2.2806V2.28061Z" fill="#9E9E9E"/>
</svg>
