<svg width="62" height="24" viewBox="0 0 62 24" fill="none" xmlns="http://www.w3.org/2000/svg">
<path d="M21.3749 13.1249V11.6249H21.7499C22.7838 11.6249 23.6249 10.7838 23.6249 9.74993V9.37493H22.4999C22.0762 9.37493 21.6892 9.52156 21.3749 9.75968V8.58668C22.6447 8.35156 23.6249 6.94718 23.6249 5.25031C23.6249 3.38918 22.447 1.87531 20.9999 1.87531C19.5528 1.87531 18.3749 3.38918 18.3749 5.25031C18.3749 6.94718 19.3552 8.35156 20.6249 8.58668V11.2499V11.6249V13.1249H17.9999V10.1249H19.4268L17.083 6.37493H15.3749V4.80218C15.4957 4.84493 15.6202 4.87493 15.7495 4.87493C16.1425 4.87493 16.5123 4.66568 16.7144 4.32893C17.0335 3.79681 16.8607 3.10418 16.3349 2.78918L12.8924 0.631808C12.3569 0.295808 11.6425 0.295808 11.1078 0.631433L7.67054 2.78543C7.13879 3.10456 6.96591 3.79681 7.28504 4.32893C7.48716 4.66568 7.85691 4.87493 8.24991 4.87493C8.37929 4.87493 8.50416 4.84493 8.62491 4.80181V6.37493H6.91679L4.57304 10.1249H5.99991V13.1249H3.37491V11.6249V11.2499V8.58631C4.64466 8.35118 5.62491 6.94681 5.62491 5.24993C5.62491 3.38881 4.44704 1.87493 2.99991 1.87493C1.55279 1.87493 0.374914 3.38881 0.374914 5.24993C0.374914 6.94681 1.35516 8.35118 2.62491 8.58631V9.75931C2.31066 9.52156 1.92366 9.37493 1.49991 9.37493H0.374914V9.74993C0.374914 10.7838 1.21604 11.6249 2.24991 11.6249H2.62491V13.1249H0.321289L0.377914 13.5494C1.14441 19.2933 6.14054 23.6249 11.9999 23.6249C17.8593 23.6249 22.8554 19.2933 23.6215 13.5494L23.6785 13.1249H21.3749ZM22.4999 10.1249H22.8108C22.6559 10.5614 22.2389 10.8749 21.7499 10.8749H21.439C21.5939 10.4384 22.0109 10.1249 22.4999 10.1249ZM19.1249 5.24993C19.1249 3.80281 19.966 2.62493 20.9999 2.62493C22.0338 2.62493 22.8749 3.80281 22.8749 5.24993C22.8749 6.51743 22.2295 7.57793 21.3749 7.82206V4.12493H20.6249V7.82206C19.7703 7.57793 19.1249 6.51743 19.1249 5.24993V5.24993ZM2.24991 10.8749C1.76091 10.8749 1.34391 10.5614 1.18904 10.1249H1.49991C1.98891 10.1249 2.40591 10.4384 2.56079 10.8749H2.24991ZM1.12491 5.24993C1.12491 3.80281 1.96604 2.62493 2.99991 2.62493C4.03379 2.62493 4.87491 3.80281 4.87491 5.24993C4.87491 6.51743 4.22954 7.57793 3.37491 7.82206V4.12493H2.62491V7.82206C1.77029 7.57793 1.12491 6.51743 1.12491 5.24993V5.24993ZM12.3749 7.12493H11.6249V5.62493H12.3749V7.12493ZM10.8749 4.87493V7.12493H9.37492V4.38668L11.9999 2.81168L14.6249 4.38706V7.12493H13.1249V4.87493H10.8749ZM7.92816 3.94306C7.82204 3.76568 7.87941 3.53468 8.06279 3.42481L11.5068 1.26668C11.8019 1.08143 12.1979 1.08106 12.4938 1.26706L15.943 3.42856C16.1204 3.53468 16.1778 3.76568 16.0717 3.94306C15.9697 4.11331 15.7278 4.17481 15.5572 4.07168L11.9999 1.93718L8.44266 4.07131C8.27129 4.17481 8.03016 4.11331 7.92816 3.94306V3.94306ZM7.33304 7.12493H8.62491V7.87493H15.3749V7.12493H16.6668L18.073 9.37493H5.92679L7.33304 7.12493ZM6.74991 10.1249H17.2499V13.1249H16.4999V10.8749H14.2499V13.1249H13.4999V10.8749H10.4999V13.1249H9.74992V10.8749H7.49991V13.1249H6.74991V10.1249ZM11.9999 22.8749C10.8007 22.8749 9.68541 21.0922 8.98829 18.3749H15.0115C14.3144 21.0922 13.1992 22.8749 11.9999 22.8749V22.8749ZM8.81204 17.6249C8.56791 16.4909 8.39391 15.2238 8.30991 13.8749H15.6899C15.6055 15.2238 15.4315 16.4909 15.1878 17.6249H8.81204ZM8.99991 13.1249H8.24991V11.6249H8.99991V13.1249ZM12.7499 13.1249H11.2499V11.6249H12.7499V13.1249ZM15.7499 13.1249H14.9999V11.6249H15.7499V13.1249ZM7.55879 13.8749C7.64054 15.2264 7.80741 16.4879 8.04516 17.6249H2.60804C1.91616 16.4962 1.42341 15.2321 1.18679 13.8749H7.55879ZM3.11166 18.3749H8.21654C8.70179 20.3223 9.40529 21.8396 10.2404 22.7317C7.34016 22.2637 4.78979 20.6609 3.11166 18.3749V18.3749ZM13.7594 22.7317C14.5945 21.8396 15.2984 20.3223 15.7833 18.3749H20.8882C19.21 20.6609 16.6597 22.2637 13.7594 22.7317V22.7317ZM21.3918 17.6249H15.955C16.1928 16.4879 16.3593 15.2264 16.4414 13.8749H22.8134C22.5764 15.2321 22.0837 16.4962 21.3918 17.6249Z" fill="#3DDEED"/>
<path fill-rule="evenodd" clip-rule="evenodd" d="M17.9999 10.125V13.125H20.6249V8.5867C19.3551 8.35158 18.3749 6.9472 18.3749 5.25033C18.3749 3.3892 19.5527 1.87533 20.9999 1.87533C22.447 1.87533 23.6249 3.3892 23.6249 5.25033C23.6249 6.9472 22.6446 8.35158 21.3749 8.5867V9.7597C21.4386 9.71138 21.5054 9.66682 21.5749 9.6265C21.8477 9.46811 22.1621 9.37495 22.4999 9.37495H23.6249V9.74995C23.6249 10.7838 22.7837 11.625 21.7499 11.625H21.3749V13.125H23.6785L23.6215 13.5495C22.8554 19.2933 17.8592 23.625 11.9998 23.625C6.14047 23.625 1.14435 19.2933 0.377848 13.5495L0.321223 13.125H2.62485V11.625H2.24985C1.21597 11.625 0.374848 10.7838 0.374848 9.74995V9.37495H1.49985C1.83761 9.37495 2.15202 9.46811 2.42485 9.62631C2.49431 9.66659 2.56108 9.71108 2.62485 9.75933V8.58633C1.3551 8.3512 0.374848 6.94683 0.374848 5.24995C0.374848 3.38883 1.55272 1.87495 2.99985 1.87495C4.44697 1.87495 5.62485 3.38883 5.62485 5.24995C5.62485 6.94683 4.6446 8.3512 3.37485 8.58633V13.125H5.99985V10.125H4.57297L6.91672 6.37495H8.62485V4.80183C8.55941 4.8252 8.49277 4.84471 8.42485 4.85769C8.36744 4.86866 8.30911 4.87495 8.24985 4.87495C7.85685 4.87495 7.4871 4.6657 7.28497 4.32895C6.96585 3.79683 7.13872 3.10458 7.67047 2.78545L11.1077 0.631452C11.6425 0.295827 12.3569 0.295827 12.8924 0.631827L16.3349 2.7892C16.8606 3.1042 17.0335 3.79683 16.7143 4.32895C16.5122 4.6657 16.1425 4.87495 15.7495 4.87495C15.6903 4.87495 15.6321 4.86867 15.5749 4.85776C15.507 4.84483 15.4404 4.82539 15.3749 4.8022V6.37495H17.083L19.4267 10.125H17.9999ZM15.5749 6.17495H17.1938L19.7876 10.325H18.1999V12.925H20.4249V8.7469C19.1143 8.40478 18.1749 6.93908 18.1749 5.25033C18.1749 3.32841 19.3984 1.67533 20.9999 1.67533C22.6013 1.67533 23.8249 3.32841 23.8249 5.25033C23.8249 6.93908 22.8854 8.40478 21.5749 8.7469V9.39881C21.8521 9.25726 22.1653 9.17495 22.4999 9.17495H23.8249V9.74995C23.8249 10.8943 22.8942 11.825 21.7499 11.825H21.5749V12.925H23.9071L23.8197 13.5759M15.5749 6.17495V5.06078C15.6313 5.06975 15.6895 5.07495 15.7495 5.07495C16.2127 5.07495 16.6475 4.82889 16.8858 4.43188C17.2609 3.80651 17.0595 2.99153 16.4394 2.6187L12.9986 0.462415C12.9987 0.462434 12.9986 0.462395 12.9986 0.462415C12.3982 0.0857207 11.6012 0.0856156 11.0014 0.462053L7.56584 2.61499C6.94065 2.99146 6.73793 3.80565 7.11345 4.43182C7.35175 4.82883 7.78665 5.07495 8.24985 5.07495C8.30986 5.07495 8.36826 5.06974 8.42485 5.06072V6.17495H6.80587L4.21212 10.325H5.79985V12.925H3.57485V8.74653C4.88542 8.4044 5.82485 6.93871 5.82485 5.24995C5.82485 3.32804 4.60128 1.67495 2.99985 1.67495C1.39842 1.67495 0.174848 3.32804 0.174848 5.24995C0.174848 6.93871 1.11428 8.4044 2.42485 8.74653V9.39868C2.14757 9.25727 1.8344 9.17495 1.49985 9.17495H0.174848V9.74995C0.174848 10.8943 1.10552 11.825 2.24985 11.825H2.42485V12.925H0.0927734L0.179604 13.5759C0.959588 19.4208 6.04195 23.8249 11.9998 23.8249C17.9577 23.8249 23.04 19.4207 23.8197 13.5759M20.6249 4.12495H21.3749V7.82208C21.4429 7.80263 21.5097 7.77801 21.5749 7.74852C22.3282 7.40771 22.8749 6.4165 22.8749 5.24995C22.8749 3.80283 22.0337 2.62495 20.9999 2.62495C19.966 2.62495 19.1249 3.80283 19.1249 5.24995C19.1249 6.4165 19.6715 7.40771 20.4249 7.74852C20.49 7.77801 20.5568 7.80263 20.6249 7.82208V4.12495ZM20.4249 7.52507V3.92495H21.5749V7.52507C22.193 7.19125 22.6749 6.3246 22.6749 5.24995C22.6749 4.56342 22.475 3.94886 22.1623 3.51102C21.8492 3.07269 21.4352 2.82495 20.9999 2.82495C20.5645 2.82495 20.1505 3.07269 19.8374 3.51102C19.5247 3.94886 19.3249 4.56342 19.3249 5.24995C19.3249 6.3246 19.8067 7.19125 20.4249 7.52507ZM2.62485 4.12495H3.37485V7.82208C3.44292 7.80263 3.50966 7.77801 3.57485 7.74852C4.32818 7.40771 4.87485 6.4165 4.87485 5.24995C4.87485 3.80283 4.03372 2.62495 2.99985 2.62495C1.96597 2.62495 1.12485 3.80283 1.12485 5.24995C1.12485 6.4165 1.67151 7.40771 2.42485 7.74852C2.49004 7.77801 2.55678 7.80263 2.62485 7.82208V4.12495ZM2.42485 7.52508V3.92495H3.57485V7.52508C4.19298 7.19125 4.67485 6.3246 4.67485 5.24995C4.67485 4.56342 4.47502 3.94886 4.1623 3.51102C3.84923 3.07269 3.43521 2.82495 2.99985 2.82495C2.56448 2.82495 2.15046 3.07269 1.8374 3.51102C1.52468 3.94886 1.32485 4.56342 1.32485 5.24995C1.32485 6.3246 1.80672 7.19125 2.42485 7.52508ZM10.6748 4.67495H13.3249V6.92495H14.4248V4.5003L11.9998 3.04495L9.57485 4.49994V6.92495H10.6748V4.67495ZM9.37485 4.3867L11.9998 2.8117L14.6249 4.38708V7.12495H13.1249V4.87495H10.8748V7.12495H9.37485V4.3867ZM8.16552 3.59639C8.07528 3.65046 8.05126 3.75927 8.09966 3.84029C8.14518 3.91625 8.26332 3.94596 8.3392 3.90013L11.9999 1.70397L15.66 3.90021C15.735 3.94552 15.8544 3.91639 15.9 3.84039C15.9497 3.75725 15.9223 3.64929 15.8403 3.6002L15.8368 3.59809L12.3875 1.43655C12.1568 1.29149 11.8432 1.29162 11.6131 1.4361L8.16552 3.59639ZM16.0716 3.94308C15.9696 4.11333 15.7277 4.17483 15.5571 4.0717L11.9998 1.9372L8.4426 4.07133C8.27122 4.17483 8.0301 4.11333 7.9281 3.94308C7.82197 3.7657 7.87935 3.5347 8.06272 3.42483L11.5067 1.2667C11.8018 1.08145 12.1979 1.08108 12.4937 1.26708L15.943 3.42858C16.1203 3.5347 16.1777 3.7657 16.0716 3.94308ZM15.3749 7.87495H8.62485V7.12495H7.33297L5.92672 9.37495H18.073L16.6667 7.12495H15.3749V7.87495ZM15.5749 7.32495V8.07495H8.42485V7.32495H7.44382L6.28757 9.17495H17.7121L16.5559 7.32495H15.5749ZM7.49985 10.875H9.74985V13.125H10.4998V10.875H13.4999V13.125H14.2499V10.875H16.4999V13.125H17.2499V10.125H6.74985V13.125H7.49985V10.875ZM7.29985 12.925V10.675H9.94985V12.925H10.2998V10.675H13.6999V12.925H14.0498V10.675H16.6999V12.925H17.0499V10.325H6.94985V12.925H7.29985ZM3.26198 18.575C3.21111 18.5089 3.16098 18.4422 3.1116 18.375H8.21647C8.66078 20.158 9.28809 21.5805 10.0319 22.4927C10.1004 22.5767 10.1699 22.6564 10.2403 22.7317C10.1344 22.7146 10.0289 22.696 9.92385 22.6759C7.23944 22.1618 4.87693 20.6722 3.26198 18.575ZM3.51581 18.575C5.05123 20.5105 7.2431 21.9 9.73165 22.4328C9.0473 21.5161 8.47678 20.1877 8.06085 18.575H3.51581ZM14.0759 22.6759C13.9708 22.696 13.8653 22.7146 13.7594 22.7317C13.8298 22.6564 13.8993 22.5767 13.9679 22.4927C14.7117 21.5805 15.3393 20.158 15.7832 18.375H20.8881C20.8387 18.4422 20.7886 18.5089 20.7377 18.575C19.1228 20.6722 16.7603 22.1618 14.0759 22.6759ZM14.2681 22.4328C16.7566 21.9 18.9485 20.5104 20.4839 18.575H15.9389C15.5232 20.1877 14.9525 21.5161 14.2681 22.4328ZM22.8107 10.125C22.7859 10.1951 22.7542 10.262 22.7166 10.325C22.5201 10.6541 22.1603 10.875 21.7499 10.875H21.439C21.4639 10.8048 21.4955 10.7379 21.5331 10.675C21.7296 10.3458 22.0894 10.125 22.4999 10.125H22.8107ZM21.776 10.6746C21.9408 10.4679 22.1919 10.3332 22.4737 10.3253C22.3089 10.532 22.0578 10.6667 21.776 10.6746ZM2.46661 10.675C2.27005 10.3458 1.91031 10.125 1.49985 10.125H1.18897C1.21385 10.1951 1.24548 10.262 1.28309 10.325C1.47965 10.6541 1.83938 10.875 2.24985 10.875H2.56072C2.53585 10.8048 2.50422 10.7379 2.46661 10.675ZM1.52603 10.3253C1.80783 10.3332 2.05892 10.4679 2.22366 10.6746C1.94187 10.6667 1.69078 10.532 1.52603 10.3253ZM11.8248 6.92495V5.82495H12.1748V6.92495H11.8248ZM10.4729 21.5341C10.9782 22.3034 11.5045 22.6749 11.9998 22.6749C12.4952 22.6749 13.0215 22.3034 13.5268 21.5341C13.9949 20.8215 14.4162 19.8085 14.7518 18.575H9.24792C9.58346 19.8085 10.0048 20.8215 10.4729 21.5341ZM9.04074 18.575C9.02298 18.5089 9.00548 18.4422 8.98822 18.375H15.0115C14.9942 18.4422 14.9767 18.5089 14.959 18.575C14.2591 21.1793 13.1694 22.875 11.9998 22.875C10.8303 22.875 9.7406 21.1793 9.04074 18.575ZM8.97414 17.4249C8.76222 16.4023 8.60708 15.2732 8.52349 14.075H15.4762C15.3923 15.2732 15.2371 16.4023 15.0255 17.4249H8.97414ZM15.1877 17.625H8.81197C8.57995 16.5472 8.41127 15.3491 8.323 14.075C8.3184 14.0085 8.31401 13.9418 8.30985 13.875H15.6898C15.6857 13.9418 15.6813 14.0085 15.6766 14.075C15.5881 15.3491 15.4194 16.5472 15.1877 17.625ZM8.44985 12.925V11.825H8.79985V12.925H8.44985ZM11.4498 12.925V11.825H12.5498V12.925H11.4498ZM15.1999 12.925V11.825H15.5499V12.925H15.1999ZM7.37104 14.075H1.42738C1.66604 15.2799 2.11119 16.407 2.72064 17.4249H7.80037C7.59708 16.3952 7.45078 15.2705 7.37104 14.075ZM8.00427 17.4249C7.78819 16.3406 7.63571 15.1477 7.55872 13.875H1.18672C1.19839 13.9418 1.21067 14.0085 1.22357 14.075C1.47241 15.3564 1.9502 16.5518 2.60797 17.625H8.0451C8.03125 17.5587 8.01763 17.492 8.00427 17.4249ZM21.2791 17.4249C21.8885 16.407 22.3337 15.2799 22.5726 14.075H16.629C16.549 15.2704 16.403 16.3951 16.1997 17.4249H21.2791ZM21.3917 17.625C22.0495 16.5518 22.5273 15.3564 22.7764 14.075C22.7894 14.0085 22.8017 13.9418 22.8134 13.875H16.4414C16.364 15.1477 16.2118 16.3406 15.9958 17.4249C15.9824 17.492 15.9688 17.5587 15.955 17.625H21.3917ZM12.3749 7.12495V5.62495H11.6248V7.12495H12.3749ZM8.99985 13.125V11.625H8.24985V13.125H8.99985ZM12.7499 13.125V11.625H11.2498V13.125H12.7499ZM15.7499 13.125V11.625H14.9999V13.125H15.7499Z" fill="#3DDEED"/>
<path d="M33.9292 9.85498C33.9292 8.76598 33.2692 7.66598 32.1142 7.03898C30.8602 6.35698 30.5522 6.21398 30.5522 5.33398C30.5522 4.99298 30.8712 4.81698 31.1792 4.81698C31.4872 4.81698 31.7402 5.01498 31.7402 5.32298V6.04898H33.8082V5.15798C33.8082 3.95898 32.7302 2.97998 31.1792 2.97998C29.2652 2.97998 28.2862 4.14598 28.2862 5.34498C28.2862 6.34598 28.7592 7.33598 29.8702 8.02898C31.1132 8.80998 31.6632 9.08498 31.6632 9.81098C31.6632 10.185 31.4542 10.383 31.0032 10.383C30.5522 10.383 30.2882 10.141 30.2882 9.79998V9.04098H28.2202V10.042C28.2202 11.406 29.3092 12.22 31.1132 12.22C32.9282 12.22 33.9292 11.065 33.9292 9.85498Z" fill="#EBF5FE"/>
<path d="M42.9908 3.19998H39.7018L38.7118 7.43498L37.6998 3.19998H34.4548V12H36.5668V6.05998L37.7438 12H39.3498L40.6258 6.05998V12H42.9908V3.19998Z" fill="#EBF5FE"/>
<path d="M45.66 10.845H46.793L46.914 12H49.356L47.772 3.19998H44.945L43.383 12H45.484L45.66 10.845ZM46.595 8.95298H45.924L46.287 6.16998L46.595 8.95298Z" fill="#EBF5FE"/>
<path d="M49.7517 3.19998V12H52.1167V8.61198H52.6557C52.9857 8.61198 53.1507 8.87598 53.1507 9.07398V10.636C53.1507 11.098 53.2717 11.615 53.4477 12H55.6697C55.5157 11.571 55.3617 11.087 55.3617 10.526V8.88698C55.3617 8.46898 55.0097 7.97398 54.4047 7.74298C55.0097 7.51198 55.3177 7.02798 55.3177 6.60998V5.02598C55.3177 3.91498 54.2507 3.19998 53.1067 3.19998H49.7517ZM52.1167 6.93998V4.98198H52.6887C52.9527 4.98198 53.0957 5.08098 53.0957 5.33398V6.58798C53.0957 6.84098 52.9527 6.93998 52.6887 6.93998H52.1167Z" fill="#EBF5FE"/>
<path d="M57.4873 4.98198V12H59.8523V4.98198H61.4693V3.19998H55.8263V4.98198H57.4873Z" fill="#EBF5FE"/>
<path d="M37.0202 18.359H34.1492C34.0392 19.173 33.4672 19.514 33.0162 19.514C32.4222 19.514 31.8282 18.975 31.8282 17.6C31.8282 16.236 32.4222 15.686 33.0162 15.686C33.4782 15.686 34.0502 16.027 34.1602 16.874H37.0202C36.7782 14.663 35.1612 12.98 32.8842 12.98C30.3652 12.98 28.3302 15.048 28.3302 17.6C28.3302 20.152 30.3652 22.22 32.8842 22.22C35.1502 22.22 36.7782 20.559 37.0202 18.359Z" fill="#EBF5FE"/>
<path d="M41.2619 22V13.2H37.7859V22H41.2619Z" fill="#EBF5FE"/>
<path d="M50.7822 15.862V13.2H41.9272V15.862H44.6222V22H48.0982V15.862H50.7822Z" fill="#EBF5FE"/>
<path d="M61.1192 13.2H57.6432L56.2792 15.829L54.9812 13.2H50.9992L54.2552 18.546V22H57.7312V18.546L61.1192 13.2Z" fill="#EBF5FE"/>
</svg>
