<svg width="19" height="20" viewBox="0 0 19 20" fill="none" xmlns="http://www.w3.org/2000/svg">
<circle cx="9.5" cy="9.5" r="9.5" fill="#2962FF"/>
<path d="M10.8281 10.8828H8.04688C8.07812 11.7891 8.30469 12.4661 8.72656 12.9141C9.15365 13.362 9.76302 13.5859 10.5547 13.5859C11.1276 13.5859 11.6615 13.5 12.1562 13.3281L12.375 14.9219C11.75 15.0729 11.1042 15.1484 10.4375 15.1484C9.10417 15.1484 8.05469 14.7734 7.28906 14.0234C6.52344 13.2734 6.11979 12.2266 6.07812 10.8828H4.73438V9.78125H6.07812V8.78125H4.73438V7.67969H6.08594C6.15365 6.35156 6.57812 5.32031 7.35938 4.58594C8.14062 3.84635 9.1901 3.47656 10.5078 3.47656C11.0599 3.47656 11.6823 3.55729 12.375 3.71875L12.1562 5.32031C11.625 5.14323 11.0964 5.05469 10.5703 5.05469C9.78385 5.05469 9.17969 5.27865 8.75781 5.72656C8.33594 6.17448 8.10156 6.82552 8.05469 7.67969H10.8281V8.78125H8.04688V9.78125H10.8281V10.8828Z" fill="#F4FAF4"/>
</svg>
