<svg width="230" height="38" viewBox="0 0 230 38" fill="none" xmlns="http://www.w3.org/2000/svg">
<path d="M4.08789 19.5635C2.96224 19.2399 2.14193 18.8434 1.62695 18.374C1.11654 17.9001 0.861328 17.3167 0.861328 16.624C0.861328 15.8402 1.1735 15.193 1.79785 14.6826C2.42676 14.1676 3.24251 13.9102 4.24512 13.9102C4.92871 13.9102 5.53711 14.0423 6.07031 14.3066C6.60807 14.571 7.02279 14.9355 7.31445 15.4004C7.61068 15.8652 7.75879 16.3734 7.75879 16.9248H6.43945C6.43945 16.3232 6.24805 15.8516 5.86523 15.5098C5.48242 15.1634 4.94238 14.9902 4.24512 14.9902C3.59798 14.9902 3.09212 15.1338 2.72754 15.4209C2.36751 15.7035 2.1875 16.0977 2.1875 16.6035C2.1875 17.0091 2.3584 17.3532 2.7002 17.6357C3.04655 17.9137 3.63216 18.1689 4.45703 18.4014C5.28646 18.6338 5.93359 18.8913 6.39844 19.1738C6.86784 19.4518 7.21419 19.7777 7.4375 20.1514C7.66536 20.5251 7.7793 20.9648 7.7793 21.4707C7.7793 22.2773 7.46484 22.9245 6.83594 23.4121C6.20703 23.8952 5.36621 24.1367 4.31348 24.1367C3.62988 24.1367 2.99186 24.0068 2.39941 23.7471C1.80697 23.4827 1.34896 23.1227 1.02539 22.667C0.70638 22.2113 0.546875 21.694 0.546875 21.1152H1.86621C1.86621 21.7168 2.08724 22.193 2.5293 22.5439C2.97591 22.8903 3.57064 23.0635 4.31348 23.0635C5.00618 23.0635 5.53711 22.9222 5.90625 22.6396C6.27539 22.3571 6.45996 21.972 6.45996 21.4844C6.45996 20.9967 6.28906 20.6208 5.94727 20.3564C5.60547 20.0876 4.98568 19.8232 4.08789 19.5635ZM12.3389 24.1367C11.3363 24.1367 10.5205 23.8086 9.8916 23.1523C9.2627 22.4915 8.94824 21.6097 8.94824 20.5068V20.2744C8.94824 19.5407 9.08724 18.8867 9.36523 18.3125C9.64779 17.7337 10.0397 17.2826 10.541 16.959C11.0469 16.6309 11.5938 16.4668 12.1816 16.4668C13.1432 16.4668 13.8906 16.7835 14.4238 17.417C14.957 18.0505 15.2236 18.9574 15.2236 20.1377V20.6641H10.2129C10.2311 21.3932 10.443 21.9834 10.8486 22.4346C11.2588 22.8812 11.7783 23.1045 12.4072 23.1045C12.8538 23.1045 13.2321 23.0133 13.542 22.8311C13.8519 22.6488 14.123 22.4072 14.3555 22.1064L15.1279 22.708C14.5081 23.6605 13.5785 24.1367 12.3389 24.1367ZM12.1816 17.5059C11.6712 17.5059 11.2428 17.6927 10.8965 18.0664C10.5501 18.4355 10.3359 18.9551 10.2539 19.625H13.959V19.5293C13.9225 18.8867 13.7493 18.39 13.4395 18.0391C13.1296 17.6836 12.7103 17.5059 12.1816 17.5059ZM19.6602 23.1045C20.1113 23.1045 20.5055 22.9678 20.8428 22.6943C21.18 22.4209 21.3669 22.0791 21.4033 21.6689H22.5996C22.5768 22.0928 22.431 22.4961 22.1621 22.8789C21.8932 23.2617 21.5332 23.5671 21.082 23.7949C20.6354 24.0228 20.1615 24.1367 19.6602 24.1367C18.653 24.1367 17.8509 23.8018 17.2539 23.1318C16.6615 22.4574 16.3652 21.5368 16.3652 20.3701V20.1582C16.3652 19.4382 16.4974 18.7979 16.7617 18.2373C17.026 17.6768 17.4043 17.2415 17.8965 16.9316C18.3932 16.6217 18.9788 16.4668 19.6533 16.4668C20.4827 16.4668 21.1709 16.7152 21.7178 17.2119C22.2692 17.7087 22.5632 18.3535 22.5996 19.1465H21.4033C21.3669 18.668 21.1846 18.276 20.8564 17.9707C20.5329 17.6608 20.1318 17.5059 19.6533 17.5059C19.0107 17.5059 18.5117 17.7383 18.1562 18.2031C17.8053 18.6634 17.6299 19.3311 17.6299 20.2061V20.4453C17.6299 21.2975 17.8053 21.9538 18.1562 22.4141C18.5072 22.8743 19.0085 23.1045 19.6602 23.1045ZM28.5879 23.2686C28.0957 23.8473 27.3734 24.1367 26.4209 24.1367C25.6325 24.1367 25.0309 23.9089 24.6162 23.4531C24.2061 22.9928 23.9987 22.3138 23.9941 21.416V16.6035H25.2588V21.3818C25.2588 22.5029 25.7145 23.0635 26.626 23.0635C27.5921 23.0635 28.2347 22.7035 28.5537 21.9834V16.6035H29.8184V24H28.6152L28.5879 23.2686ZM35.3213 17.7383C35.1299 17.7064 34.9225 17.6904 34.6992 17.6904C33.8698 17.6904 33.307 18.0436 33.0107 18.75V24H31.7461V16.6035H32.9766L32.9971 17.458C33.4118 16.7972 33.9997 16.4668 34.7607 16.4668C35.0068 16.4668 35.1937 16.4987 35.3213 16.5625V17.7383ZM39.4229 24.1367C38.4202 24.1367 37.6045 23.8086 36.9756 23.1523C36.3467 22.4915 36.0322 21.6097 36.0322 20.5068V20.2744C36.0322 19.5407 36.1712 18.8867 36.4492 18.3125C36.7318 17.7337 37.1237 17.2826 37.625 16.959C38.1309 16.6309 38.6777 16.4668 39.2656 16.4668C40.2272 16.4668 40.9746 16.7835 41.5078 17.417C42.041 18.0505 42.3076 18.9574 42.3076 20.1377V20.6641H37.2969C37.3151 21.3932 37.527 21.9834 37.9326 22.4346C38.3428 22.8812 38.8623 23.1045 39.4912 23.1045C39.9378 23.1045 40.3161 23.0133 40.626 22.8311C40.9359 22.6488 41.207 22.4072 41.4395 22.1064L42.2119 22.708C41.5921 23.6605 40.6624 24.1367 39.4229 24.1367ZM39.2656 17.5059C38.7552 17.5059 38.3268 17.6927 37.9805 18.0664C37.6341 18.4355 37.4199 18.9551 37.3379 19.625H41.043V19.5293C41.0065 18.8867 40.8333 18.39 40.5234 18.0391C40.2135 17.6836 39.7943 17.5059 39.2656 17.5059ZM43.4697 20.2402C43.4697 19.1055 43.7386 18.194 44.2764 17.5059C44.8141 16.8132 45.5182 16.4668 46.3887 16.4668C47.2546 16.4668 47.9404 16.763 48.4463 17.3555V13.5H49.7109V24H48.5488L48.4873 23.207C47.9814 23.8268 47.2773 24.1367 46.375 24.1367C45.5182 24.1367 44.8187 23.7858 44.2764 23.084C43.7386 22.3822 43.4697 21.4661 43.4697 20.3359V20.2402ZM44.7344 20.3838C44.7344 21.2223 44.9076 21.8786 45.2539 22.3525C45.6003 22.8265 46.0788 23.0635 46.6895 23.0635C47.4915 23.0635 48.0771 22.7035 48.4463 21.9834V18.5859C48.068 17.8887 47.487 17.54 46.7031 17.54C46.0833 17.54 45.6003 17.7793 45.2539 18.2578C44.9076 18.7363 44.7344 19.445 44.7344 20.3838ZM61.4141 20.3838C61.4141 21.514 61.1543 22.4232 60.6348 23.1113C60.1152 23.7949 59.418 24.1367 58.543 24.1367C57.6087 24.1367 56.8864 23.8063 56.376 23.1455L56.3145 24H55.1523V13.5H56.417V17.417C56.9274 16.7835 57.6315 16.4668 58.5293 16.4668C59.4271 16.4668 60.1312 16.8063 60.6416 17.4854C61.1566 18.1644 61.4141 19.0941 61.4141 20.2744V20.3838ZM60.1494 20.2402C60.1494 19.3789 59.9831 18.7135 59.6504 18.2441C59.3177 17.7747 58.8392 17.54 58.2148 17.54C57.3809 17.54 56.7816 17.9274 56.417 18.7021V21.9014C56.8044 22.6761 57.4082 23.0635 58.2285 23.0635C58.8346 23.0635 59.3063 22.8288 59.6436 22.3594C59.9808 21.89 60.1494 21.1836 60.1494 20.2402ZM65.3516 22.1475L67.0742 16.6035H68.4277L65.4541 25.1416C64.9938 26.3721 64.2624 26.9873 63.2598 26.9873L63.0205 26.9668L62.5488 26.8779V25.8525L62.8906 25.8799C63.319 25.8799 63.6517 25.7933 63.8887 25.6201C64.1302 25.4469 64.3285 25.1302 64.4834 24.6699L64.7637 23.918L62.125 16.6035H63.5059L65.3516 22.1475Z" fill="#9E9E9E"/>
<path fill-rule="evenodd" clip-rule="evenodd" d="M157.412 7.98335L141.593 0L125.744 7.9765L128.831 29.2495L141.604 37.4257L153.776 29.2454L157.412 7.98335ZM130.381 28.3969L127.537 8.79825L141.592 1.72455L155.595 8.79141L152.242 28.401L141.58 35.5659L130.381 28.3969Z" fill="#9E9E9E"/>
<path d="M136.282 12.9551V24.4708H134.381V12.9551H136.282Z" fill="#9E9E9E"/>
<path d="M139.705 24.4708V12.9551H146.987C149.139 12.9551 150.215 13.8893 150.215 15.7578V17.396C150.215 19.2644 149.139 20.1986 146.987 20.1986H141.607V24.4708H139.705ZM141.607 18.5523H146.885C147.392 18.5523 147.757 18.456 147.979 18.2632C148.202 18.0705 148.313 17.7547 148.313 17.3157V15.8381C148.313 15.3991 148.202 15.0832 147.979 14.8905C147.757 14.6977 147.392 14.6014 146.885 14.6014H141.607V18.5523Z" fill="#9E9E9E"/>
<path d="M163.431 12.9551V22.8245H169.545V24.4708H161.73V12.9551H163.431Z" fill="#9E9E9E"/>
<path d="M171.586 12.9551H180.256V14.6014H173.287V17.8938H179.235V19.5401H173.287V22.8245H180.256V24.4708H171.586V12.9551Z" fill="#9E9E9E"/>
<path d="M188.85 22.8245C189.641 22.8245 190.249 22.6184 190.675 22.2062C191.101 21.7939 191.314 21.2051 191.314 20.4395V16.9864C191.314 16.6117 191.259 16.2771 191.148 15.9826C191.038 15.6882 190.874 15.4392 190.659 15.2358C190.449 15.027 190.191 14.8691 189.887 14.762C189.583 14.6549 189.237 14.6014 188.85 14.6014H184.503V22.8245H188.85ZM182.802 24.4708V12.9551H188.85C189.486 12.9551 190.059 13.0515 190.568 13.2442C191.082 13.4316 191.519 13.702 191.878 14.0553C192.243 14.4033 192.523 14.8262 192.716 15.3241C192.915 15.822 193.015 16.3761 193.015 16.9864V20.4395C193.015 21.0498 192.915 21.6039 192.716 22.1018C192.523 22.5997 192.243 23.0253 191.878 23.3786C191.519 23.7266 191.082 23.997 190.568 24.1897C190.059 24.3771 189.486 24.4708 188.85 24.4708H182.802Z" fill="#9E9E9E"/>
<path d="M195.744 14.6014C195.744 14.3765 195.788 14.1651 195.877 13.967C195.965 13.7635 196.087 13.5895 196.242 13.445C196.397 13.2951 196.577 13.1773 196.781 13.0917C196.991 13.0006 197.213 12.9551 197.445 12.9551H203.899C204.132 12.9551 204.35 13.0006 204.555 13.0917C204.765 13.1773 204.947 13.2951 205.102 13.445C205.257 13.5895 205.379 13.7635 205.467 13.967C205.556 14.1651 205.6 14.3765 205.6 14.6014V16.087H203.899V14.6014H197.445V22.8245H203.899V20.0299H200.672V18.3837H205.6V22.8245C205.6 23.0494 205.556 23.2635 205.467 23.467C205.379 23.665 205.257 23.839 205.102 23.9889C204.947 24.1388 204.765 24.2566 204.555 24.3423C204.35 24.4279 204.132 24.4708 203.899 24.4708H197.445C197.213 24.4708 196.991 24.4279 196.781 24.3423C196.577 24.2566 196.397 24.1388 196.242 23.9889C196.087 23.839 195.965 23.665 195.877 23.467C195.788 23.2635 195.744 23.0494 195.744 22.8245V14.6014Z" fill="#9E9E9E"/>
<path d="M208.653 12.9551H217.322V14.6014H210.354V17.8938H216.302V19.5401H210.354V22.8245H217.322V24.4708H208.653V12.9551Z" fill="#9E9E9E"/>
<path d="M229.269 17.0667C229.269 18.6728 228.561 19.5883 227.145 19.8131L229.385 24.4708H227.501L225.295 19.8693H221.57V24.4708H219.869V12.9551H226.382C228.306 12.9551 229.269 13.8893 229.269 15.7578V17.0667ZM221.57 18.2231H226.29C226.744 18.2231 227.07 18.1267 227.269 17.934C227.468 17.7413 227.568 17.4254 227.568 16.9864V15.8381C227.568 15.3991 227.468 15.0832 227.269 14.8905C227.07 14.6977 226.744 14.6014 226.29 14.6014H221.57V18.2231Z" fill="#9E9E9E"/>
<path d="M90.134 22.8245C90.9361 22.8245 91.5531 22.6184 91.9851 22.2062C92.417 21.7939 92.633 21.2051 92.633 20.4395V16.9864C92.633 16.6117 92.5769 16.2771 92.4647 15.9826C92.3525 15.6882 92.187 15.4392 91.9682 15.2358C91.7551 15.027 91.4942 14.8691 91.1857 14.762C90.8772 14.6549 90.5266 14.6014 90.134 14.6014H85.7249V22.8245H90.134ZM84 24.4708V12.9551H90.134C90.779 12.9551 91.3596 13.0515 91.8757 13.2442C92.3974 13.4316 92.8405 13.702 93.2051 14.0553C93.5754 14.4033 93.8586 14.8262 94.055 15.3241C94.2569 15.822 94.3579 16.3761 94.3579 16.9864V20.4395C94.3579 21.0498 94.2569 21.6039 94.055 22.1018C93.8586 22.5997 93.5754 23.0253 93.2051 23.3786C92.8405 23.7266 92.3974 23.997 91.8757 24.1897C91.3596 24.3771 90.779 24.4708 90.134 24.4708H84Z" fill="#9E9E9E"/>
<path d="M97.1262 12.9551H105.919V14.6014H98.8511V17.8938H104.884V19.5401H98.8511V22.8245H105.919V24.4708H97.1262V12.9551Z" fill="#9E9E9E"/>
<path d="M110.227 12.9551V24.4708H108.502V12.9551H110.227Z" fill="#9E9E9E"/>
<path d="M113.332 24.4708V12.9551H119.937C121.889 12.9551 122.865 13.8893 122.865 15.7578V17.396C122.865 19.2644 121.889 20.1986 119.937 20.1986H115.057V24.4708H113.332ZM115.057 18.5523H119.844C120.304 18.5523 120.635 18.456 120.837 18.2632C121.039 18.0705 121.14 17.7546 121.14 17.3157V15.8381C121.14 15.3991 121.039 15.0832 120.837 14.8905C120.635 14.6977 120.304 14.6014 119.844 14.6014H115.057V18.5523Z" fill="#9E9E9E"/>
</svg>
