<svg width="90" height="24" viewBox="0 0 90 24" fill="none" xmlns="http://www.w3.org/2000/svg">
<mask id="path-1-outside-1" maskUnits="userSpaceOnUse" x="0" y="0" width="23" height="24" fill="black">
<rect fill="white" width="23" height="24"/>
<path fill-rule="evenodd" clip-rule="evenodd" d="M16.1697 14.4831C20.5466 11.3417 20.2207 4.73806 15.5936 2.02063C15.5795 2.01072 15.5643 2.002 15.5481 1.99444C12.7995 0.406277 9.27537 0.726697 6.84663 2.91038C6.7142 3.02938 6.70329 3.23315 6.82229 3.36541C6.9413 3.49784 7.14506 3.50859 7.27749 3.38958C8.86046 1.96641 11.0185 1.36837 13.0976 1.76332C13.0679 2.11445 12.8233 2.49463 12.5561 2.74875C12.3795 2.91667 12.0164 2.97937 11.5821 3.05434C10.7255 3.20222 9.59224 3.39786 9.06842 4.54319C9.03245 4.6217 8.99203 4.72008 8.94916 4.82446L8.94916 4.82446C8.86058 5.04008 8.76151 5.28125 8.66945 5.42556C8.65924 5.38997 8.64931 5.35138 8.63882 5.31063C8.57809 5.07468 8.4987 4.76625 8.23892 4.54655C8.05614 4.39196 7.86059 4.32365 7.65767 4.34329C7.29323 4.37899 7.04029 4.6953 6.88883 4.88472L6.88826 4.88543C6.56875 5.28561 6.71063 5.6449 6.81434 5.90753L6.81457 5.90812C6.91075 6.151 6.99367 6.36064 6.83925 6.70993C6.69121 7.04512 6.9987 7.41102 7.09975 7.5312C7.51399 8.024 8.55347 8.84107 9.18692 8.68414C10.1025 8.4565 10.6294 9.24743 11.1207 9.98484C11.4589 10.4926 11.7802 10.975 12.1999 11.082C12.9707 11.2785 13.7121 11.7243 13.6186 12.1304C13.4055 13.055 12.7011 13.2289 12.0478 13.3902C11.8179 13.4469 11.5943 13.5021 11.4006 13.5879C10.9911 13.7696 10.2494 14.285 9.75156 14.9156C9.35846 14.7902 8.9808 14.6309 8.62211 14.4399C8.67079 14.3265 8.72433 14.2078 8.78358 14.0831C9.3222 12.9525 9.28662 12.3638 8.0125 11.3121C7.40187 10.8081 7.61268 10.1264 7.89718 9.64355C8.07846 9.33589 7.98883 8.93658 7.69308 8.73466C7.63174 8.6927 7.55461 8.64198 7.46551 8.58339C6.88704 8.20304 5.80391 7.49086 5.25981 6.68743C5.4911 5.81749 5.88403 5.01686 6.43054 4.30485C6.53897 4.16352 6.51228 3.96127 6.37112 3.85284C6.2298 3.74441 6.02754 3.7711 5.91928 3.91226C4.11845 6.25859 3.79367 9.63331 5.51762 12.3892C7.78926 16.0205 12.6142 16.9721 16.0968 14.5344C16.1299 14.5175 16.1497 14.5017 16.1697 14.4831ZM16.0762 13.7457C16.0211 13.2481 16.4721 12.5015 16.8792 11.8279C17.4128 10.945 17.9166 10.1112 17.516 9.51515C17.3134 9.21394 17.0594 9.13819 16.767 9.05097C16.511 8.97463 16.2256 8.88951 15.9194 8.63681C15.5349 8.31941 15.177 7.91758 15.3877 6.81836C15.4473 6.50683 15.7469 6.11894 16.2311 5.72618C16.5467 5.47021 16.6647 5.0375 16.5245 4.64961C16.4686 4.49485 16.4663 4.39482 16.4814 4.35605C16.6091 4.02812 16.3674 3.78382 16.1112 3.52476C15.9035 3.31483 15.6862 3.09521 15.6482 2.81353C19.4471 5.39032 19.6332 10.9027 16.0762 13.7457ZM5.09314 7.51307C5.71048 8.19641 6.52128 8.73155 7.05687 9.08504C7.1588 9.15232 7.25076 9.21301 7.32953 9.2669C7.34648 9.27832 7.35168 9.29963 7.34195 9.31642C6.76825 10.2904 6.86308 11.1992 7.60228 11.8093C8.70094 12.7161 8.57816 12.9834 8.2004 13.8055L8.20037 13.8056C8.15771 13.8984 8.1118 13.9984 8.06402 14.1071C5.96997 12.7172 4.72035 10.182 5.09314 7.51307ZM10.4451 15.0979C10.8449 14.6709 11.362 14.3102 11.662 14.1773C11.7944 14.1186 11.9721 14.0742 12.1732 14.0239C12.9047 13.8412 13.946 13.581 14.2468 12.2749C14.4477 11.4029 13.4437 10.7337 12.3594 10.4573C12.1736 10.4099 11.9747 10.1057 11.7268 9.72638L11.7268 9.72638C11.1863 8.89948 10.4125 7.71574 9.03183 8.05841C8.99121 8.06797 8.79198 8.04414 8.41902 7.81217C7.8992 7.48873 7.52154 7.07231 7.45273 6.91436C7.68167 6.34788 7.52138 5.9422 7.41412 5.67096C7.3156 5.4217 7.31358 5.38595 7.39197 5.28776L7.3921 5.2876C7.4503 5.21476 7.62669 4.99402 7.72044 4.9848C7.74209 4.98228 7.78036 5.00276 7.82266 5.03868C7.92322 5.12375 7.96635 5.2865 8.01286 5.46204C8.08931 5.7506 8.17492 6.07371 8.53987 6.14311C9.06584 6.24296 9.32645 5.6047 9.53663 5.08995C9.5773 4.99034 9.61609 4.89536 9.65454 4.81125C10.0357 3.97794 10.8675 3.83334 11.6442 3.69833C12.1765 3.6058 12.6828 3.51778 13.0004 3.21569C13.4061 2.82982 13.6622 2.36119 13.728 1.91404C14.1824 2.0458 14.6171 2.22221 15.0273 2.44008C14.8685 3.19631 15.3663 3.69311 15.6766 4.00291C15.7515 4.07761 15.8154 4.14144 15.8566 4.19542C15.8049 4.38609 15.8256 4.61218 15.9182 4.86848C15.9652 4.99873 15.9278 5.14224 15.8251 5.22549C15.3991 5.57092 14.8677 6.10669 14.7546 6.697C14.4902 8.07737 14.9877 8.70344 15.509 9.13397C15.8979 9.45494 16.2689 9.56913 16.5461 9.65445C17.1326 9.83501 17.2993 9.88632 16.3275 11.4944C15.7907 12.3826 15.1913 13.3749 15.5152 14.1491C14.0632 15.087 12.2583 15.4752 10.4451 15.0979ZM6.11314 19.6699C6.17609 19.7571 6.27461 19.8035 6.37465 19.8035C6.63246 19.8035 6.79158 19.5084 6.63565 19.2925C6.42518 19.0009 5.85566 18.612 5.21322 18.1733L5.21319 18.1733L5.21316 18.1732L5.21315 18.1732C4.56403 17.7299 3.84047 17.2358 3.33763 16.7399C2.94957 16.3571 2.26946 15.0349 2.09103 14.4777L1.65077 12.8927C1.60008 12.7101 1.86629 12.5931 1.95927 12.7975C2.13022 13.162 2.24909 13.4298 2.34113 13.6372C2.52536 14.0522 2.60208 14.2251 2.77367 14.4461C3.36516 15.2083 4.13306 15.8367 4.99646 16.2674L6.36894 17.6475C6.43189 17.7109 6.51463 17.7425 6.59738 17.7425C6.88205 17.7425 7.02824 17.3964 6.82599 17.1929L5.44092 15.8001L4.89491 14.9518C4.80293 14.7625 5.04749 14.5777 5.20912 14.7447C5.94259 15.5158 6.3752 15.976 6.6359 16.2533C6.99192 16.632 7.02735 16.6697 7.07058 16.6926L7.07905 16.6969L7.08564 16.7001L7.08984 16.7021L9.10081 17.679C10.0631 18.1465 10.1215 19.0976 10.1388 19.3809C10.1413 19.4208 10.1429 19.4475 10.1462 19.4577C10.1624 19.6349 10.3189 19.765 10.4966 19.7491C10.674 19.7328 10.8045 19.5759 10.7882 19.3986L10.7598 19.0901C10.6813 18.2366 10.1534 17.4736 9.38246 17.0991L7.42436 16.1479L5.6749 14.2991C5.39711 14.0119 4.955 13.954 4.6235 14.1614C4.3244 14.3486 4.18308 14.6972 4.24652 15.0272C3.88834 14.7409 3.56355 14.4124 3.28275 14.0508C3.16273 13.8962 3.11818 13.7962 2.95254 13.4245C2.8629 13.2234 2.73779 12.9427 2.54607 12.5306C2.38544 12.1772 2.0004 11.9806 1.63046 12.063C1.1808 12.1634 0.906204 12.6211 1.02957 13.0651C1.39713 14.388 1.46462 14.6372 1.47241 14.666L1.47242 14.666L1.47295 14.6679C1.47116 14.661 1.46275 14.6287 1.47487 14.6672C1.67813 15.3078 2.40591 16.7265 2.88495 17.1986C3.43043 17.7367 4.19614 18.2596 4.87172 18.7209L4.87242 18.7213L4.95641 18.7785C5.28622 19.0024 5.96264 19.4616 6.11314 19.6699ZM21.1165 12.5161C21.288 12.139 21.714 11.9538 22.1074 12.0859C22.5131 12.2222 22.7392 12.659 22.6222 13.0802C22.2886 14.2811 22.2089 14.5735 22.1916 14.6371L22.1871 14.6533L22.1875 14.6517C22.1885 14.647 22.1912 14.6353 22.1811 14.6672C21.9779 15.3079 21.2499 16.7265 20.771 17.1989C20.2163 17.7461 19.4113 18.2941 18.7382 18.7522C18.1683 19.1402 17.693 19.4637 17.5444 19.6679C17.4812 19.7547 17.3831 19.8006 17.2835 19.8006C17.0234 19.8006 16.8671 19.5027 17.0232 19.2885C17.2349 18.9973 17.8031 18.6095 18.4437 18.1722C19.0928 17.7291 19.8162 17.2353 20.3185 16.7398C20.7064 16.3571 21.3865 15.035 21.565 14.4776L22.0012 12.9077C22.0603 12.6949 21.7838 12.6057 21.7034 12.7828L21.145 14.0115C20.8728 14.6103 19.9123 15.6426 18.6595 16.2673C18.1476 16.7648 17.8289 17.0972 17.617 17.3182C17.2718 17.6783 17.2103 17.7425 17.0586 17.7425C16.7741 17.7425 16.6276 17.3964 16.83 17.193L18.2151 15.8002L18.7609 14.9519C18.8526 14.7636 18.6103 14.5759 18.4445 14.7473L16.6595 16.6339C16.6558 16.6377 16.6526 16.6412 16.6494 16.6445C16.647 16.6469 16.6447 16.6493 16.6424 16.6516C16.6075 16.6853 16.5615 16.7074 16.1733 16.894L16.1733 16.894C15.8789 17.0355 15.3877 17.2716 14.5553 17.6791C13.5909 18.1474 13.5329 19.109 13.5157 19.3942C13.5133 19.4343 13.5117 19.461 13.5085 19.4712C13.4922 19.6484 13.3349 19.779 13.158 19.7625C12.9808 19.7463 12.8503 19.5895 12.8666 19.4121C12.87 19.4018 12.8719 19.3728 12.8748 19.3286C12.8973 18.9861 12.9799 17.7276 14.2737 17.0992L16.2316 16.148L17.9787 14.3017C18.2589 14.012 18.7012 13.9542 19.0325 14.1617C19.3314 14.3487 19.4729 14.6974 19.4095 15.0274C19.7677 14.7411 20.0924 14.4126 20.3732 14.0509C20.4936 13.8959 20.5385 13.7952 20.7055 13.4203C20.796 13.217 20.9225 12.9331 21.1165 12.5161ZM10.6893 20.41H6.74224C6.33017 20.41 5.99498 20.7452 5.99498 21.1573V22.2528C5.99498 22.6647 6.33017 22.9999 6.74224 22.9999H10.6893C11.1012 22.9999 11.4364 22.6647 11.4364 22.2528V21.1573C11.4364 20.7452 11.1012 20.41 10.6893 20.41ZM10.7919 22.2528C10.7919 22.3094 10.7459 22.3554 10.6893 22.3554H6.74224C6.68567 22.3554 6.63968 22.3094 6.63968 22.2528V21.1573C6.63968 21.1007 6.68567 21.0547 6.74224 21.0547H10.6893C10.7459 21.0547 10.7919 21.1007 10.7919 21.1573V22.2528ZM12.9667 20.41H16.9139C17.3258 20.41 17.661 20.7452 17.661 21.1573V22.2528C17.661 22.6647 17.3258 22.9999 16.9139 22.9999H12.9667C12.5548 22.9999 12.2196 22.6647 12.2196 22.2528V21.1573C12.2196 20.7452 12.5548 20.41 12.9667 20.41ZM16.9139 22.3554C16.9705 22.3554 17.0163 22.3094 17.0163 22.2528V21.1573C17.0163 21.1007 16.9705 21.0547 16.9139 21.0547H12.9667C12.9103 21.0547 12.8643 21.1007 12.8643 21.1573V22.2528C12.8643 22.3094 12.9103 22.3554 12.9667 22.3554H16.9139Z"/>
</mask>
<path fill-rule="evenodd" clip-rule="evenodd" d="M16.1697 14.4831C20.5466 11.3417 20.2207 4.73806 15.5936 2.02063C15.5795 2.01072 15.5643 2.002 15.5481 1.99444C12.7995 0.406277 9.27537 0.726697 6.84663 2.91038C6.7142 3.02938 6.70329 3.23315 6.82229 3.36541C6.9413 3.49784 7.14506 3.50859 7.27749 3.38958C8.86046 1.96641 11.0185 1.36837 13.0976 1.76332C13.0679 2.11445 12.8233 2.49463 12.5561 2.74875C12.3795 2.91667 12.0164 2.97937 11.5821 3.05434C10.7255 3.20222 9.59224 3.39786 9.06842 4.54319C9.03245 4.6217 8.99203 4.72008 8.94916 4.82446L8.94916 4.82446C8.86058 5.04008 8.76151 5.28125 8.66945 5.42556C8.65924 5.38997 8.64931 5.35138 8.63882 5.31063C8.57809 5.07468 8.4987 4.76625 8.23892 4.54655C8.05614 4.39196 7.86059 4.32365 7.65767 4.34329C7.29323 4.37899 7.04029 4.6953 6.88883 4.88472L6.88826 4.88543C6.56875 5.28561 6.71063 5.6449 6.81434 5.90753L6.81457 5.90812C6.91075 6.151 6.99367 6.36064 6.83925 6.70993C6.69121 7.04512 6.9987 7.41102 7.09975 7.5312C7.51399 8.024 8.55347 8.84107 9.18692 8.68414C10.1025 8.4565 10.6294 9.24743 11.1207 9.98484C11.4589 10.4926 11.7802 10.975 12.1999 11.082C12.9707 11.2785 13.7121 11.7243 13.6186 12.1304C13.4055 13.055 12.7011 13.2289 12.0478 13.3902C11.8179 13.4469 11.5943 13.5021 11.4006 13.5879C10.9911 13.7696 10.2494 14.285 9.75156 14.9156C9.35846 14.7902 8.9808 14.6309 8.62211 14.4399C8.67079 14.3265 8.72433 14.2078 8.78358 14.0831C9.3222 12.9525 9.28662 12.3638 8.0125 11.3121C7.40187 10.8081 7.61268 10.1264 7.89718 9.64355C8.07846 9.33589 7.98883 8.93658 7.69308 8.73466C7.63174 8.6927 7.55461 8.64198 7.46551 8.58339C6.88704 8.20304 5.80391 7.49086 5.25981 6.68743C5.4911 5.81749 5.88403 5.01686 6.43054 4.30485C6.53897 4.16352 6.51228 3.96127 6.37112 3.85284C6.2298 3.74441 6.02754 3.7711 5.91928 3.91226C4.11845 6.25859 3.79367 9.63331 5.51762 12.3892C7.78926 16.0205 12.6142 16.9721 16.0968 14.5344C16.1299 14.5175 16.1497 14.5017 16.1697 14.4831ZM16.0762 13.7457C16.0211 13.2481 16.4721 12.5015 16.8792 11.8279C17.4128 10.945 17.9166 10.1112 17.516 9.51515C17.3134 9.21394 17.0594 9.13819 16.767 9.05097C16.511 8.97463 16.2256 8.88951 15.9194 8.63681C15.5349 8.31941 15.177 7.91758 15.3877 6.81836C15.4473 6.50683 15.7469 6.11894 16.2311 5.72618C16.5467 5.47021 16.6647 5.0375 16.5245 4.64961C16.4686 4.49485 16.4663 4.39482 16.4814 4.35605C16.6091 4.02812 16.3674 3.78382 16.1112 3.52476C15.9035 3.31483 15.6862 3.09521 15.6482 2.81353C19.4471 5.39032 19.6332 10.9027 16.0762 13.7457ZM5.09314 7.51307C5.71048 8.19641 6.52128 8.73155 7.05687 9.08504C7.1588 9.15232 7.25076 9.21301 7.32953 9.2669C7.34648 9.27832 7.35168 9.29963 7.34195 9.31642C6.76825 10.2904 6.86308 11.1992 7.60228 11.8093C8.70094 12.7161 8.57816 12.9834 8.2004 13.8055L8.20037 13.8056C8.15771 13.8984 8.1118 13.9984 8.06402 14.1071C5.96997 12.7172 4.72035 10.182 5.09314 7.51307ZM10.4451 15.0979C10.8449 14.6709 11.362 14.3102 11.662 14.1773C11.7944 14.1186 11.9721 14.0742 12.1732 14.0239C12.9047 13.8412 13.946 13.581 14.2468 12.2749C14.4477 11.4029 13.4437 10.7337 12.3594 10.4573C12.1736 10.4099 11.9747 10.1057 11.7268 9.72638L11.7268 9.72638C11.1863 8.89948 10.4125 7.71574 9.03183 8.05841C8.99121 8.06797 8.79198 8.04414 8.41902 7.81217C7.8992 7.48873 7.52154 7.07231 7.45273 6.91436C7.68167 6.34788 7.52138 5.9422 7.41412 5.67096C7.3156 5.4217 7.31358 5.38595 7.39197 5.28776L7.3921 5.2876C7.4503 5.21476 7.62669 4.99402 7.72044 4.9848C7.74209 4.98228 7.78036 5.00276 7.82266 5.03868C7.92322 5.12375 7.96635 5.2865 8.01286 5.46204C8.08931 5.7506 8.17492 6.07371 8.53987 6.14311C9.06584 6.24296 9.32645 5.6047 9.53663 5.08995C9.5773 4.99034 9.61609 4.89536 9.65454 4.81125C10.0357 3.97794 10.8675 3.83334 11.6442 3.69833C12.1765 3.6058 12.6828 3.51778 13.0004 3.21569C13.4061 2.82982 13.6622 2.36119 13.728 1.91404C14.1824 2.0458 14.6171 2.22221 15.0273 2.44008C14.8685 3.19631 15.3663 3.69311 15.6766 4.00291C15.7515 4.07761 15.8154 4.14144 15.8566 4.19542C15.8049 4.38609 15.8256 4.61218 15.9182 4.86848C15.9652 4.99873 15.9278 5.14224 15.8251 5.22549C15.3991 5.57092 14.8677 6.10669 14.7546 6.697C14.4902 8.07737 14.9877 8.70344 15.509 9.13397C15.8979 9.45494 16.2689 9.56913 16.5461 9.65445C17.1326 9.83501 17.2993 9.88632 16.3275 11.4944C15.7907 12.3826 15.1913 13.3749 15.5152 14.1491C14.0632 15.087 12.2583 15.4752 10.4451 15.0979ZM6.11314 19.6699C6.17609 19.7571 6.27461 19.8035 6.37465 19.8035C6.63246 19.8035 6.79158 19.5084 6.63565 19.2925C6.42518 19.0009 5.85566 18.612 5.21322 18.1733L5.21319 18.1733L5.21316 18.1732L5.21315 18.1732C4.56403 17.7299 3.84047 17.2358 3.33763 16.7399C2.94957 16.3571 2.26946 15.0349 2.09103 14.4777L1.65077 12.8927C1.60008 12.7101 1.86629 12.5931 1.95927 12.7975C2.13022 13.162 2.24909 13.4298 2.34113 13.6372C2.52536 14.0522 2.60208 14.2251 2.77367 14.4461C3.36516 15.2083 4.13306 15.8367 4.99646 16.2674L6.36894 17.6475C6.43189 17.7109 6.51463 17.7425 6.59738 17.7425C6.88205 17.7425 7.02824 17.3964 6.82599 17.1929L5.44092 15.8001L4.89491 14.9518C4.80293 14.7625 5.04749 14.5777 5.20912 14.7447C5.94259 15.5158 6.3752 15.976 6.6359 16.2533C6.99192 16.632 7.02735 16.6697 7.07058 16.6926L7.07905 16.6969L7.08564 16.7001L7.08984 16.7021L9.10081 17.679C10.0631 18.1465 10.1215 19.0976 10.1388 19.3809C10.1413 19.4208 10.1429 19.4475 10.1462 19.4577C10.1624 19.6349 10.3189 19.765 10.4966 19.7491C10.674 19.7328 10.8045 19.5759 10.7882 19.3986L10.7598 19.0901C10.6813 18.2366 10.1534 17.4736 9.38246 17.0991L7.42436 16.1479L5.6749 14.2991C5.39711 14.0119 4.955 13.954 4.6235 14.1614C4.3244 14.3486 4.18308 14.6972 4.24652 15.0272C3.88834 14.7409 3.56355 14.4124 3.28275 14.0508C3.16273 13.8962 3.11818 13.7962 2.95254 13.4245C2.8629 13.2234 2.73779 12.9427 2.54607 12.5306C2.38544 12.1772 2.0004 11.9806 1.63046 12.063C1.1808 12.1634 0.906204 12.6211 1.02957 13.0651C1.39713 14.388 1.46462 14.6372 1.47241 14.666L1.47242 14.666L1.47295 14.6679C1.47116 14.661 1.46275 14.6287 1.47487 14.6672C1.67813 15.3078 2.40591 16.7265 2.88495 17.1986C3.43043 17.7367 4.19614 18.2596 4.87172 18.7209L4.87242 18.7213L4.95641 18.7785C5.28622 19.0024 5.96264 19.4616 6.11314 19.6699ZM21.1165 12.5161C21.288 12.139 21.714 11.9538 22.1074 12.0859C22.5131 12.2222 22.7392 12.659 22.6222 13.0802C22.2886 14.2811 22.2089 14.5735 22.1916 14.6371L22.1871 14.6533L22.1875 14.6517C22.1885 14.647 22.1912 14.6353 22.1811 14.6672C21.9779 15.3079 21.2499 16.7265 20.771 17.1989C20.2163 17.7461 19.4113 18.2941 18.7382 18.7522C18.1683 19.1402 17.693 19.4637 17.5444 19.6679C17.4812 19.7547 17.3831 19.8006 17.2835 19.8006C17.0234 19.8006 16.8671 19.5027 17.0232 19.2885C17.2349 18.9973 17.8031 18.6095 18.4437 18.1722C19.0928 17.7291 19.8162 17.2353 20.3185 16.7398C20.7064 16.3571 21.3865 15.035 21.565 14.4776L22.0012 12.9077C22.0603 12.6949 21.7838 12.6057 21.7034 12.7828L21.145 14.0115C20.8728 14.6103 19.9123 15.6426 18.6595 16.2673C18.1476 16.7648 17.8289 17.0972 17.617 17.3182C17.2718 17.6783 17.2103 17.7425 17.0586 17.7425C16.7741 17.7425 16.6276 17.3964 16.83 17.193L18.2151 15.8002L18.7609 14.9519C18.8526 14.7636 18.6103 14.5759 18.4445 14.7473L16.6595 16.6339C16.6558 16.6377 16.6526 16.6412 16.6494 16.6445C16.647 16.6469 16.6447 16.6493 16.6424 16.6516C16.6075 16.6853 16.5615 16.7074 16.1733 16.894L16.1733 16.894C15.8789 17.0355 15.3877 17.2716 14.5553 17.6791C13.5909 18.1474 13.5329 19.109 13.5157 19.3942C13.5133 19.4343 13.5117 19.461 13.5085 19.4712C13.4922 19.6484 13.3349 19.779 13.158 19.7625C12.9808 19.7463 12.8503 19.5895 12.8666 19.4121C12.87 19.4018 12.8719 19.3728 12.8748 19.3286C12.8973 18.9861 12.9799 17.7276 14.2737 17.0992L16.2316 16.148L17.9787 14.3017C18.2589 14.012 18.7012 13.9542 19.0325 14.1617C19.3314 14.3487 19.4729 14.6974 19.4095 15.0274C19.7677 14.7411 20.0924 14.4126 20.3732 14.0509C20.4936 13.8959 20.5385 13.7952 20.7055 13.4203C20.796 13.217 20.9225 12.9331 21.1165 12.5161ZM10.6893 20.41H6.74224C6.33017 20.41 5.99498 20.7452 5.99498 21.1573V22.2528C5.99498 22.6647 6.33017 22.9999 6.74224 22.9999H10.6893C11.1012 22.9999 11.4364 22.6647 11.4364 22.2528V21.1573C11.4364 20.7452 11.1012 20.41 10.6893 20.41ZM10.7919 22.2528C10.7919 22.3094 10.7459 22.3554 10.6893 22.3554H6.74224C6.68567 22.3554 6.63968 22.3094 6.63968 22.2528V21.1573C6.63968 21.1007 6.68567 21.0547 6.74224 21.0547H10.6893C10.7459 21.0547 10.7919 21.1007 10.7919 21.1573V22.2528ZM12.9667 20.41H16.9139C17.3258 20.41 17.661 20.7452 17.661 21.1573V22.2528C17.661 22.6647 17.3258 22.9999 16.9139 22.9999H12.9667C12.5548 22.9999 12.2196 22.6647 12.2196 22.2528V21.1573C12.2196 20.7452 12.5548 20.41 12.9667 20.41ZM16.9139 22.3554C16.9705 22.3554 17.0163 22.3094 17.0163 22.2528V21.1573C17.0163 21.1007 16.9705 21.0547 16.9139 21.0547H12.9667C12.9103 21.0547 12.8643 21.1007 12.8643 21.1573V22.2528C12.8643 22.3094 12.9103 22.3554 12.9667 22.3554H16.9139Z" fill="#28FFA5"/>
<path d="M15.5936 2.02063L15.4787 2.18429L15.4853 2.18896L15.4923 2.19308L15.5936 2.02063ZM16.1697 14.4831L16.0531 14.3206L16.0426 14.3281L16.0333 14.3368L16.1697 14.4831ZM15.5481 1.99444L15.4481 2.16761L15.4555 2.1719L15.4633 2.17553L15.5481 1.99444ZM6.84663 2.91038L6.98031 3.05914L6.98035 3.05911L6.84663 2.91038ZM6.82229 3.36541L6.97106 3.23174L6.97097 3.23164L6.82229 3.36541ZM7.27749 3.38958L7.41117 3.53835L7.41121 3.53831L7.27749 3.38958ZM13.0976 1.76332L13.2969 1.78018L13.3121 1.60049L13.1349 1.56683L13.0976 1.76332ZM12.5561 2.74875L12.4183 2.60382L12.4183 2.60382L12.5561 2.74875ZM11.5821 3.05434L11.5481 2.85725L11.5481 2.85725L11.5821 3.05434ZM9.06842 4.54319L9.25024 4.6265L9.2503 4.62638L9.06842 4.54319ZM8.94916 4.82446L8.764 4.7484L8.7612 4.75611L8.94916 4.82446ZM8.94916 4.82446L9.13431 4.90052L9.13711 4.89281L8.94916 4.82446ZM8.66945 5.42556L8.4772 5.4807L8.59949 5.9071L8.83806 5.53313L8.66945 5.42556ZM8.63882 5.31063L8.8325 5.26078L8.8325 5.26078L8.63882 5.31063ZM8.23892 4.54655L8.10977 4.69926L8.10977 4.69926L8.23892 4.54655ZM7.65767 4.34329L7.6384 4.14422L7.63817 4.14424L7.65767 4.34329ZM6.88883 4.88472L7.04502 5.00964L7.04503 5.00962L6.88883 4.88472ZM6.88826 4.88543L6.73207 4.76051L6.73196 4.76065L6.88826 4.88543ZM6.81434 5.90753L6.62832 5.98099L6.62834 5.98103L6.81434 5.90753ZM6.81457 5.90812L6.62857 5.98163L6.62862 5.98176L6.81457 5.90812ZM6.83925 6.70993L6.65633 6.62906L6.6563 6.62912L6.83925 6.70993ZM7.09975 7.5312L7.25284 7.40251L7.25283 7.40249L7.09975 7.5312ZM9.18692 8.68414L9.23501 8.87827L9.23517 8.87823L9.18692 8.68414ZM11.1207 9.98484L10.9542 10.0957L10.9542 10.0957L11.1207 9.98484ZM12.1999 11.082L12.1505 11.2758L12.1505 11.2758L12.1999 11.082ZM13.6186 12.1304L13.8135 12.1753L13.8135 12.1752L13.6186 12.1304ZM12.0478 13.3902L12.0958 13.5843L12.0958 13.5843L12.0478 13.3902ZM11.4006 13.5879L11.3196 13.4051L11.3196 13.4051L11.4006 13.5879ZM9.75156 14.9156L9.69078 15.1062L9.82272 15.1482L9.90853 15.0395L9.75156 14.9156ZM8.62211 14.4399L8.43831 14.3611L8.36583 14.53L8.52811 14.6165L8.62211 14.4399ZM8.78358 14.0831L8.60303 13.9971L8.60293 13.9973L8.78358 14.0831ZM8.0125 11.3121L7.88518 11.4664L7.88518 11.4664L8.0125 11.3121ZM7.89718 9.64355L7.72487 9.54202L7.72487 9.54203L7.89718 9.64355ZM7.69308 8.73466L7.58016 8.89973L7.58031 8.89983L7.69308 8.73466ZM7.46551 8.58339L7.57539 8.41628L7.57539 8.41628L7.46551 8.58339ZM5.25981 6.68743L5.06652 6.63605L5.04311 6.72412L5.09421 6.79958L5.25981 6.68743ZM6.43054 4.30485L6.58919 4.42663L6.58922 4.42659L6.43054 4.30485ZM6.37112 3.85284L6.49296 3.69423L6.49286 3.69416L6.37112 3.85284ZM5.91928 3.91226L6.07794 4.03403L6.07798 4.03397L5.91928 3.91226ZM5.51762 12.3892L5.34806 12.4953L5.34807 12.4953L5.51762 12.3892ZM16.0968 14.5344L16.0056 14.3565L15.9934 14.3627L15.9821 14.3706L16.0968 14.5344ZM16.8792 11.8279L16.708 11.7245L16.708 11.7245L16.8792 11.8279ZM16.0762 13.7457L15.8774 13.7677L15.9173 14.1287L16.2011 13.902L16.0762 13.7457ZM17.516 9.51515L17.682 9.40357L17.6819 9.40354L17.516 9.51515ZM16.767 9.05097L16.8241 8.85931L16.8241 8.85931L16.767 9.05097ZM15.9194 8.63681L15.7921 8.79105L15.7921 8.79106L15.9194 8.63681ZM15.3877 6.81836L15.5841 6.856L15.5841 6.85593L15.3877 6.81836ZM16.2311 5.72618L16.3571 5.88151L16.3571 5.8815L16.2311 5.72618ZM16.5245 4.64961L16.3364 4.71755L16.3364 4.71757L16.5245 4.64961ZM16.4814 4.35605L16.6677 4.42865L16.6677 4.42865L16.4814 4.35605ZM16.1112 3.52476L15.969 3.66542L15.969 3.66542L16.1112 3.52476ZM15.6482 2.81353L15.7604 2.64802L15.3901 2.39683L15.45 2.84029L15.6482 2.81353ZM7.05687 9.08504L6.9467 9.25196L6.9467 9.25196L7.05687 9.08504ZM5.09314 7.51307L5.24154 7.379L4.95433 7.06108L4.89506 7.48541L5.09314 7.51307ZM7.32953 9.2669L7.21659 9.43197L7.21783 9.4328L7.32953 9.2669ZM7.34195 9.31642L7.51428 9.41792L7.51495 9.41676L7.34195 9.31642ZM7.60228 11.8093L7.72959 11.655L7.72959 11.655L7.60228 11.8093ZM8.2004 13.8055L8.38176 13.8898L8.38213 13.889L8.2004 13.8055ZM8.20037 13.8056L8.01901 13.7213L8.01864 13.7221L8.20037 13.8056ZM8.06402 14.1071L7.95342 14.2737L8.1515 14.4052L8.24713 14.1875L8.06402 14.1071ZM11.662 14.1773L11.581 13.9944L11.5809 13.9944L11.662 14.1773ZM10.4451 15.0979L10.2991 14.9612L10.0557 15.2212L10.4044 15.2937L10.4451 15.0979ZM12.1732 14.0239L12.2217 14.218L12.2217 14.218L12.1732 14.0239ZM14.2468 12.2749L14.0519 12.23L14.0519 12.23L14.2468 12.2749ZM12.3594 10.4573L12.31 10.6511L12.31 10.6511L12.3594 10.4573ZM11.7268 9.72638L11.8942 9.61696L11.8829 9.59961L11.8682 9.58496L11.7268 9.72638ZM11.7268 9.72638L11.5594 9.83581L11.5707 9.85315L11.5854 9.8678L11.7268 9.72638ZM9.03183 8.05841L9.07768 8.25309L9.08 8.25252L9.03183 8.05841ZM8.41902 7.81217L8.31336 7.98199L8.31339 7.98201L8.41902 7.81217ZM7.45273 6.91436L7.2673 6.83942L7.23583 6.91727L7.26937 6.99425L7.45273 6.91436ZM7.41412 5.67096L7.22813 5.74448L7.22813 5.7445L7.41412 5.67096ZM7.39197 5.28776L7.23597 5.1626L7.23566 5.16299L7.39197 5.28776ZM7.3921 5.2876L7.54809 5.41276L7.54834 5.41245L7.3921 5.2876ZM7.72044 4.9848L7.74003 5.18387L7.74354 5.18346L7.72044 4.9848ZM7.82266 5.03868L7.6932 5.19113L7.69349 5.19137L7.82266 5.03868ZM8.01286 5.46204L7.81953 5.51327L7.81953 5.51327L8.01286 5.46204ZM8.53987 6.14311L8.50251 6.33959L8.50257 6.3396L8.53987 6.14311ZM9.53663 5.08995L9.72179 5.16555L9.72179 5.16555L9.53663 5.08995ZM9.65454 4.81125L9.47266 4.72806L9.47264 4.72809L9.65454 4.81125ZM11.6442 3.69833L11.6785 3.89537L11.6785 3.89537L11.6442 3.69833ZM13.0004 3.21569L12.8626 3.07078L12.8626 3.07078L13.0004 3.21569ZM13.728 1.91404L13.7837 1.72196L13.5635 1.6581L13.5301 1.88493L13.728 1.91404ZM15.0273 2.44008L15.223 2.48117L15.2539 2.33398L15.1211 2.26344L15.0273 2.44008ZM15.6766 4.00291L15.8179 3.86136L15.8179 3.86136L15.6766 4.00291ZM15.8566 4.19542L16.0497 4.24775L16.0755 4.15248L16.0156 4.07402L15.8566 4.19542ZM15.9182 4.86848L16.1064 4.8006L16.1063 4.80049L15.9182 4.86848ZM15.8251 5.22549L15.6992 5.07011L15.6991 5.07014L15.8251 5.22549ZM14.7546 6.697L14.5581 6.65936L14.5581 6.65938L14.7546 6.697ZM15.509 9.13397L15.3817 9.28818L15.3817 9.28822L15.509 9.13397ZM16.5461 9.65445L16.6049 9.4633L16.6049 9.4633L16.5461 9.65445ZM16.3275 11.4944L16.1563 11.391L16.1563 11.391L16.3275 11.4944ZM15.5152 14.1491L15.6238 14.3171L15.7643 14.2262L15.6997 14.0719L15.5152 14.1491ZM6.11314 19.6699L6.27536 19.5529L6.27525 19.5527L6.11314 19.6699ZM6.63565 19.2925L6.47348 19.4096L6.47353 19.4096L6.63565 19.2925ZM5.21322 18.1733L5.09553 18.3351L5.10043 18.3384L5.21322 18.1733ZM5.21319 18.1733L5.33092 18.0114L5.32413 18.0068L5.21319 18.1733ZM5.21316 18.1732L5.08822 18.3294L5.095 18.3348L5.10222 18.3396L5.21316 18.1732ZM5.21315 18.1732L5.33809 18.017L5.33218 18.0123L5.32593 18.0081L5.21315 18.1732ZM3.33763 16.7399L3.19717 16.8823L3.19719 16.8823L3.33763 16.7399ZM2.09103 14.4777L1.89818 14.5312L1.90056 14.5387L2.09103 14.4777ZM1.65077 12.8927L1.45806 12.9462L1.45807 12.9462L1.65077 12.8927ZM1.95927 12.7975L1.77721 12.8803L1.7782 12.8824L1.95927 12.7975ZM2.34113 13.6372L2.15833 13.7183L2.15833 13.7183L2.34113 13.6372ZM2.77367 14.4461L2.93167 14.3235L2.93166 14.3235L2.77367 14.4461ZM4.99646 16.2674L5.13827 16.1264L5.11512 16.1031L5.08574 16.0885L4.99646 16.2674ZM6.36894 17.6475L6.51093 17.5066L6.51075 17.5064L6.36894 17.6475ZM6.82599 17.1929L6.96782 17.0519L6.9678 17.0519L6.82599 17.1929ZM5.44092 15.8001L5.27274 15.9084L5.28419 15.9262L5.2991 15.9412L5.44092 15.8001ZM4.89491 14.9518L4.71502 15.0392L4.72025 15.05L4.72674 15.0601L4.89491 14.9518ZM5.20912 14.7447L5.35404 14.6069L5.35284 14.6056L5.20912 14.7447ZM6.6359 16.2533L6.78161 16.1163L6.78161 16.1163L6.6359 16.2533ZM7.07058 16.6926L6.97679 16.8693L6.97998 16.8709L7.07058 16.6926ZM7.07905 16.6969L6.98844 16.8752L6.99161 16.8768L7.07905 16.6969ZM7.08564 16.7001L6.99819 16.88L6.99844 16.8801L7.08564 16.7001ZM7.08984 16.7021L7.17723 16.5223L7.17705 16.5222L7.08984 16.7021ZM9.10081 17.679L9.18821 17.4991L9.1882 17.4991L9.10081 17.679ZM10.1388 19.3809L10.3385 19.3687L10.3385 19.3687L10.1388 19.3809ZM10.1462 19.4577L10.3453 19.4394L10.3434 19.4179L10.3368 19.3974L10.1462 19.4577ZM10.4966 19.7491L10.5145 19.9483L10.5149 19.9482L10.4966 19.7491ZM10.7882 19.3986L10.9873 19.3803L10.9873 19.3803L10.7882 19.3986ZM10.7598 19.0901L10.959 19.0718L10.959 19.0718L10.7598 19.0901ZM9.38246 17.0991L9.29507 17.279L9.29508 17.279L9.38246 17.0991ZM7.42436 16.1479L7.27909 16.2854L7.30416 16.3119L7.33697 16.3278L7.42436 16.1479ZM5.6749 14.2991L5.82018 14.1616L5.81865 14.16L5.6749 14.2991ZM4.6235 14.1614L4.72959 14.331L4.7296 14.331L4.6235 14.1614ZM4.24652 15.0272L4.12164 15.1834L4.54535 15.5222L4.44292 14.9894L4.24652 15.0272ZM3.28275 14.0508L3.12474 14.1735L3.12479 14.1735L3.28275 14.0508ZM2.95254 13.4245L2.76986 13.506L2.76986 13.506L2.95254 13.4245ZM2.54607 12.5306L2.36398 12.6134L2.36474 12.615L2.54607 12.5306ZM1.63046 12.063L1.58697 11.8678L1.58689 11.8678L1.63046 12.063ZM1.02957 13.0651L1.22227 13.0115L1.22227 13.0115L1.02957 13.0651ZM1.47241 14.666L1.27936 14.7183L1.27973 14.7196L1.47241 14.666ZM1.47242 14.666L1.27973 14.7196L1.27991 14.7203L1.47242 14.666ZM1.47295 14.6679L1.28044 14.7221L1.66652 14.6176L1.47295 14.6679ZM1.47487 14.6672L1.28409 14.7272L1.28423 14.7277L1.47487 14.6672ZM2.88495 17.1986L3.0254 17.0563L3.02534 17.0562L2.88495 17.1986ZM4.87172 18.7209L4.98485 18.5559L4.9845 18.5557L4.87172 18.7209ZM4.87242 18.7213L4.75929 18.8863L4.75996 18.8867L4.87242 18.7213ZM4.95641 18.7785L4.84395 18.9438L4.84407 18.9439L4.95641 18.7785ZM22.1074 12.0859L22.1711 11.8963L22.1711 11.8963L22.1074 12.0859ZM21.1165 12.5161L21.2978 12.6005L21.2985 12.5989L21.1165 12.5161ZM22.6222 13.0802L22.8149 13.1338L22.8149 13.1338L22.6222 13.0802ZM22.1916 14.6371L22.3844 14.6902L22.3846 14.6897L22.1916 14.6371ZM22.1871 14.6533L21.9915 14.6116L22.38 14.7064L22.1871 14.6533ZM22.1875 14.6517L21.9924 14.6076L21.9919 14.6101L22.1875 14.6517ZM22.1811 14.6672L22.3718 14.7277L22.3719 14.7273L22.1811 14.6672ZM20.771 17.1989L20.6306 17.0565L20.6306 17.0565L20.771 17.1989ZM18.7382 18.7522L18.8508 18.9175L18.8508 18.9175L18.7382 18.7522ZM17.5444 19.6679L17.3827 19.5501L17.3826 19.5502L17.5444 19.6679ZM17.0232 19.2885L17.1848 19.4063L17.1849 19.4062L17.0232 19.2885ZM18.4437 18.1722L18.5565 18.3374L18.5565 18.3374L18.4437 18.1722ZM20.3185 16.7398L20.459 16.8822L20.459 16.8822L20.3185 16.7398ZM21.565 14.4776L21.7556 14.5386L21.7577 14.5311L21.565 14.4776ZM22.0012 12.9077L22.1939 12.9612L22.1939 12.9612L22.0012 12.9077ZM21.7034 12.7828L21.8855 12.8656L21.8855 12.8655L21.7034 12.7828ZM21.145 14.0115L21.3271 14.0942L21.3271 14.0942L21.145 14.0115ZM18.6595 16.2673L18.5703 16.0883L18.5425 16.1022L18.5202 16.1239L18.6595 16.2673ZM17.617 17.3182L17.4726 17.1798L17.4726 17.1798L17.617 17.3182ZM16.83 17.193L16.9718 17.3341L16.9718 17.334L16.83 17.193ZM18.2151 15.8002L18.3569 15.9412L18.3718 15.9262L18.3833 15.9084L18.2151 15.8002ZM18.7609 14.9519L18.9291 15.0601L18.9355 15.0501L18.9407 15.0394L18.7609 14.9519ZM18.4445 14.7473L18.3008 14.6082L18.2992 14.6098L18.4445 14.7473ZM16.6595 16.6339L16.8046 16.7715L16.8047 16.7713L16.6595 16.6339ZM16.6494 16.6445L16.5055 16.5056L16.5055 16.5056L16.6494 16.6445ZM16.6424 16.6516L16.5033 16.5078L16.5033 16.5078L16.6424 16.6516ZM16.1733 16.894L16.0867 16.7137L16.0839 16.7151L16.1733 16.894ZM16.1733 16.894L16.2599 17.0743L16.2627 17.0729L16.1733 16.894ZM14.5553 17.6791L14.6427 17.859L14.6433 17.8587L14.5553 17.6791ZM13.5157 19.3942L13.3161 19.3822L13.3161 19.3822L13.5157 19.3942ZM13.5085 19.4712L13.3178 19.411L13.3113 19.4315L13.3093 19.4529L13.5085 19.4712ZM13.158 19.7625L13.1765 19.5634L13.1763 19.5634L13.158 19.7625ZM12.8666 19.4121L12.6766 19.3498L12.6695 19.3713L12.6675 19.3938L12.8666 19.4121ZM12.8748 19.3286L12.6752 19.3155L12.6752 19.3155L12.8748 19.3286ZM14.2737 17.0992L14.3611 17.2791L14.3611 17.2791L14.2737 17.0992ZM16.2316 16.148L16.319 16.3279L16.3518 16.3119L16.3769 16.2854L16.2316 16.148ZM17.9787 14.3017L17.835 14.1626L17.8335 14.1642L17.9787 14.3017ZM19.0325 14.1617L18.9263 14.3312L18.9264 14.3312L19.0325 14.1617ZM19.4095 15.0274L19.2131 14.9897L19.1106 15.5224L19.5344 15.1836L19.4095 15.0274ZM20.3732 14.0509L20.2153 13.9282L20.2153 13.9283L20.3732 14.0509ZM20.7055 13.4203L20.8882 13.5017L20.8882 13.5017L20.7055 13.4203ZM15.4923 2.19308C19.9953 4.83765 20.3119 11.2639 16.0531 14.3206L16.2863 14.6456C20.7814 11.4194 20.446 4.63848 15.6949 1.84817L15.4923 2.19308ZM15.4633 2.17553C15.4698 2.1786 15.4749 2.18163 15.4787 2.18429L15.7086 1.85696C15.6842 1.83982 15.6587 1.82539 15.633 1.81335L15.4633 2.17553ZM6.98035 3.05911C9.34385 0.934082 12.7734 0.62222 15.4481 2.16761L15.6482 1.82127C12.8255 0.190335 9.2069 0.519311 6.71291 2.76166L6.98035 3.05911ZM6.97097 3.23164C6.92599 3.18164 6.92996 3.10439 6.98031 3.05914L6.71295 2.76162C6.49844 2.95438 6.4806 3.28466 6.67362 3.49919L6.97097 3.23164ZM7.14382 3.24082C7.09343 3.2861 7.01612 3.28189 6.97106 3.23174L6.67353 3.49909C6.86647 3.7138 7.1967 3.73107 7.41117 3.53835L7.14382 3.24082ZM13.1349 1.56683C10.9946 1.16026 8.77326 1.77586 7.14378 3.24086L7.41121 3.53831C8.94765 2.15696 11.0424 1.57649 13.0603 1.9598L13.1349 1.56683ZM12.6939 2.89367C12.9796 2.62197 13.2614 2.19924 13.2969 1.78018L12.8983 1.74646C12.8743 2.02967 12.667 2.36729 12.4183 2.60382L12.6939 2.89367ZM11.6162 3.25142C11.8304 3.21444 12.0403 3.1784 12.2189 3.12922C12.394 3.08098 12.5687 3.01275 12.6939 2.89367L12.4183 2.60382C12.3669 2.65267 12.2718 2.69975 12.1126 2.74358C11.9569 2.78648 11.7682 2.81926 11.5481 2.85725L11.6162 3.25142ZM9.2503 4.62638C9.72477 3.58897 10.7447 3.40187 11.6162 3.25142L11.5481 2.85725C10.7064 3.00256 9.45972 3.20676 8.88654 4.46001L9.2503 4.62638ZM9.13416 4.90045C9.17754 4.79486 9.21629 4.7006 9.25024 4.6265L8.88659 4.45989C8.84861 4.5428 8.80653 4.64531 8.76416 4.74846L9.13416 4.90045ZM9.13711 4.89281L9.13712 4.8928L8.7612 4.75611L8.7612 4.75612L9.13711 4.89281ZM8.83806 5.53313C8.94205 5.37011 9.04858 5.10877 9.13415 4.90046L8.76416 4.74847C8.67258 4.97138 8.58097 5.19239 8.50084 5.318L8.83806 5.53313ZM8.44513 5.36048C8.45546 5.40061 8.46609 5.44198 8.4772 5.4807L8.8617 5.37043C8.85238 5.33796 8.84315 5.30215 8.8325 5.26078L8.44513 5.36048ZM8.10977 4.69926C8.31463 4.87251 8.38284 5.1185 8.44513 5.36048L8.8325 5.26078C8.77333 5.03087 8.68277 4.65999 8.36807 4.39384L8.10977 4.69926ZM7.67693 4.54236C7.81688 4.52882 7.96047 4.57299 8.10977 4.69926L8.36807 4.39384C8.1518 4.21094 7.90431 4.11849 7.6384 4.14422L7.67693 4.54236ZM7.04503 5.00962C7.12178 4.91364 7.21152 4.80226 7.32197 4.70954C7.43157 4.61754 7.54901 4.55489 7.67717 4.54234L7.63817 4.14424C7.40189 4.16739 7.21064 4.28075 7.06479 4.40318C6.9198 4.5249 6.80734 4.66638 6.73263 4.75981L7.04503 5.00962ZM7.04444 5.01036L7.04502 5.00964L6.73265 4.75979L6.73207 4.76051L7.04444 5.01036ZM7.00036 5.83407C6.94713 5.69928 6.89899 5.5732 6.89235 5.43824C6.8862 5.31324 6.91582 5.17146 7.04455 5.01022L6.73196 4.76065C6.54119 4.99959 6.48199 5.23755 6.49283 5.45789C6.50318 5.66827 6.57784 5.85315 6.62832 5.98099L7.00036 5.83407ZM7.00058 5.83462L7.00034 5.83402L6.62834 5.98103L6.62857 5.98163L7.00058 5.83462ZM7.02217 6.79079C7.11186 6.58792 7.13733 6.41312 7.11976 6.24796C7.10296 6.09002 7.04702 5.95189 7.00053 5.83449L6.62862 5.98176C6.67831 6.10723 6.71191 6.19535 6.72201 6.29027C6.73134 6.37798 6.72105 6.48265 6.65633 6.62906L7.02217 6.79079ZM7.25283 7.40249C7.20225 7.34234 7.1154 7.23797 7.0565 7.11488C6.99677 6.99003 6.98226 6.88115 7.0222 6.79073L6.6563 6.62912C6.54819 6.87389 6.61341 7.11556 6.69568 7.28751C6.77878 7.46121 6.89619 7.59988 6.94666 7.65991L7.25283 7.40249ZM9.13882 8.49001C9.03048 8.51685 8.88743 8.50533 8.71319 8.44915C8.54102 8.39364 8.35421 8.29959 8.16775 8.18211C7.79368 7.94642 7.44611 7.63243 7.25284 7.40251L6.94665 7.65989C7.16762 7.92277 7.54692 8.26372 7.95451 8.52053C8.15888 8.6493 8.3766 8.7609 8.59044 8.82985C8.8022 8.89813 9.02663 8.9299 9.23501 8.87827L9.13882 8.49001ZM11.2871 9.87396C11.0456 9.51137 10.7756 9.10336 10.4425 8.82021C10.0979 8.52736 9.673 8.3572 9.13866 8.49005L9.23517 8.87823C9.61644 8.78344 9.91275 8.89493 10.1834 9.12498C10.4654 9.36474 10.7045 9.7209 10.9542 10.0957L11.2871 9.87396ZM12.2494 10.8882C12.0967 10.8493 11.9442 10.7368 11.7794 10.551C11.6153 10.3659 11.4582 10.1309 11.2871 9.87396L10.9542 10.0957C11.1213 10.3466 11.2941 10.6066 11.4801 10.8164C11.6655 11.0254 11.8835 11.2077 12.1505 11.2758L12.2494 10.8882ZM13.8135 12.1752C13.853 12.0036 13.7992 11.8433 13.7108 11.7115C13.6234 11.5812 13.4937 11.4646 13.3471 11.3631C13.053 11.1597 12.6517 10.9908 12.2494 10.8882L12.1505 11.2758C12.5189 11.3697 12.8737 11.522 13.1196 11.6921C13.243 11.7775 13.3292 11.8607 13.3787 11.9343C13.4271 12.0065 13.4309 12.0542 13.4237 12.0855L13.8135 12.1752ZM12.0958 13.5843C12.4162 13.5052 12.7884 13.4152 13.1049 13.2157C13.4334 13.0087 13.6949 12.6897 13.8135 12.1753L13.4237 12.0855C13.3292 12.4957 13.1319 12.7259 12.8917 12.8773C12.6394 13.0363 12.3328 13.1138 11.9999 13.196L12.0958 13.5843ZM11.4817 13.7708C11.6562 13.6934 11.8617 13.6421 12.0958 13.5843L11.9999 13.196C11.774 13.2517 11.5323 13.3108 11.3196 13.4051L11.4817 13.7708ZM9.90853 15.0395C10.3857 14.4351 11.1011 13.9396 11.4817 13.7708L11.3196 13.4051C10.8811 13.5995 10.1131 14.1349 9.59458 14.7917L9.90853 15.0395ZM8.52811 14.6165C8.8975 14.8132 9.28628 14.9771 9.69078 15.1062L9.81233 14.7251C9.43063 14.6033 9.06411 14.4487 8.71612 14.2634L8.52811 14.6165ZM8.60293 13.9973C8.54262 14.1242 8.48802 14.2452 8.43831 14.3611L8.80592 14.5188C8.85356 14.4077 8.90605 14.2914 8.96423 14.1689L8.60293 13.9973ZM7.88518 11.4664C8.51639 11.9874 8.79864 12.3619 8.88335 12.7147C8.96695 13.0629 8.86958 13.4376 8.60303 13.9971L8.96414 14.1691C9.23621 13.598 9.39035 13.113 9.27229 12.6213C9.15533 12.1342 8.78272 11.6886 8.13981 11.1579L7.88518 11.4664ZM7.72487 9.54203C7.57503 9.79635 7.43319 10.1209 7.41933 10.4618C7.40499 10.8147 7.52909 11.1724 7.88518 11.4664L8.13981 11.1579C7.88528 10.9478 7.80947 10.7127 7.819 10.478C7.82902 10.2314 7.93484 9.97365 8.0695 9.74507L7.72487 9.54203ZM7.58031 8.89983C7.78947 9.04264 7.85247 9.32546 7.72487 9.54202L8.0695 9.74508C8.30445 9.34632 8.18819 8.83052 7.80586 8.56949L7.58031 8.89983ZM7.35563 8.75051C7.44528 8.80946 7.52067 8.85903 7.58016 8.89973L7.80601 8.56959C7.74281 8.52636 7.66394 8.47451 7.57539 8.41628L7.35563 8.75051ZM5.09421 6.79958C5.3831 7.22616 5.80835 7.61996 6.2255 7.95077C6.64442 8.28299 7.06673 8.56055 7.35563 8.75051L7.57539 8.41628C7.28582 8.22589 6.87733 7.95718 6.47404 7.63736C6.06899 7.31614 5.68062 6.95213 5.42541 6.57529L5.09421 6.79958ZM6.27189 4.18308C5.70919 4.91617 5.30456 5.74075 5.06652 6.63605L5.45309 6.73882C5.67765 5.89422 6.05887 5.11755 6.58919 4.42663L6.27189 4.18308ZM6.24929 4.01145C6.30294 4.05266 6.31304 4.12944 6.27186 4.18311L6.58922 4.42659C6.7649 4.19761 6.72162 3.86988 6.49296 3.69423L6.24929 4.01145ZM6.07798 4.03397C6.11897 3.98052 6.19565 3.9703 6.24938 4.01152L6.49286 3.69416C6.26394 3.51853 5.93611 3.56168 5.76058 3.79054L6.07798 4.03397ZM5.68718 12.2831C4.00979 9.60168 4.32526 6.31762 6.07794 4.03403L5.76062 3.79049C3.91164 6.19956 3.57755 9.66495 5.34806 12.4953L5.68718 12.2831ZM15.9821 14.3706C12.5926 16.743 7.89764 15.8167 5.68718 12.2831L5.34807 12.4953C7.68088 16.2244 12.6357 17.2011 16.2115 14.6983L15.9821 14.3706ZM16.0333 14.3368C16.0269 14.3427 16.0235 14.3455 16.0208 14.3474C16.0182 14.3493 16.0138 14.3522 16.0056 14.3565L16.1881 14.7124C16.241 14.6853 16.2757 14.6577 16.3061 14.6293L16.0333 14.3368ZM16.708 11.7245C16.5058 12.0591 16.2854 12.4234 16.1234 12.7676C15.9649 13.1044 15.8433 13.4595 15.8774 13.7677L16.275 13.7237C16.254 13.5343 16.3304 13.2672 16.4854 12.9379C16.6368 12.6161 16.8455 12.2703 17.0503 11.9313L16.708 11.7245ZM17.35 9.62672C17.4974 9.84601 17.4941 10.1256 17.3599 10.4958C17.2254 10.8668 16.9779 11.2778 16.708 11.7245L17.0503 11.9314C17.314 11.4951 17.5853 11.0478 17.7359 10.6321C17.8869 10.2156 17.9352 9.78031 17.682 9.40357L17.35 9.62672ZM16.7098 9.24262C17.0033 9.33015 17.1911 9.3905 17.35 9.62676L17.6819 9.40354C17.4357 9.03737 17.1156 8.94623 16.8241 8.85931L16.7098 9.24262ZM15.7921 8.79106C16.1318 9.07136 16.4513 9.16553 16.7098 9.24262L16.8241 8.85931C16.5708 8.78374 16.3195 8.70767 16.0467 8.48255L15.7921 8.79106ZM15.1913 6.78071C15.0813 7.35454 15.1149 7.77124 15.2447 8.09515C15.3747 8.4196 15.5915 8.62547 15.7921 8.79105L16.0467 8.48256C15.8628 8.33074 15.7084 8.177 15.616 7.94638C15.5234 7.71522 15.4834 7.3814 15.5841 6.856L15.1913 6.78071ZM16.1051 5.57085C15.8544 5.77421 15.6465 5.9802 15.4919 6.18048C15.3387 6.37876 15.2292 6.58247 15.1912 6.78078L15.5841 6.85593C15.6058 6.74271 15.6758 6.59672 15.8084 6.42498C15.9395 6.25524 16.1236 6.0709 16.3571 5.88151L16.1051 5.57085ZM16.3364 4.71757C16.4482 5.027 16.3532 5.36958 16.1051 5.57085L16.3571 5.8815C16.7401 5.57085 16.8811 5.048 16.7126 4.58165L16.3364 4.71757ZM16.295 4.28344C16.2697 4.34831 16.2707 4.42199 16.2776 4.48229C16.2854 4.54974 16.3043 4.62866 16.3364 4.71755L16.7126 4.58167C16.6888 4.5158 16.6786 4.46733 16.675 4.43637C16.6732 4.42089 16.6733 4.41181 16.6735 4.40844C16.6738 4.40337 16.6741 4.41226 16.6677 4.42865L16.295 4.28344ZM15.969 3.66542C16.1023 3.80023 16.2056 3.9066 16.2664 4.01347C16.3201 4.10782 16.3324 4.18756 16.295 4.28344L16.6677 4.42865C16.7581 4.19661 16.7134 3.99023 16.6141 3.81568C16.5219 3.65366 16.3763 3.50835 16.2533 3.3841L15.969 3.66542ZM15.45 2.84029C15.4986 3.20068 15.7739 3.46824 15.969 3.66542L16.2533 3.38411C16.033 3.16142 15.8738 2.98974 15.8464 2.78678L15.45 2.84029ZM16.2011 13.902C19.8627 10.9754 19.6715 5.30089 15.7604 2.64802L15.5359 2.97905C19.2226 5.47975 19.4037 10.8301 15.9513 13.5895L16.2011 13.902ZM7.16704 8.91812C6.62883 8.56289 5.8393 8.04066 5.24154 7.379L4.94473 7.64715C5.58166 8.35216 6.41373 8.9002 6.9467 9.25196L7.16704 8.91812ZM7.44246 9.10184C7.36204 9.04682 7.26856 8.98512 7.16704 8.91812L6.9467 9.25196C7.04904 9.31951 7.13949 9.37921 7.2166 9.43197L7.44246 9.10184ZM7.51495 9.41676C7.58068 9.30344 7.54013 9.16759 7.44122 9.101L7.21783 9.4328C7.15283 9.38904 7.12268 9.29583 7.16894 9.21607L7.51495 9.41676ZM7.72959 11.655C7.39671 11.3803 7.21716 11.047 7.1787 10.6785C7.13984 10.3064 7.24306 9.87838 7.51428 9.41792L7.16962 9.21491C6.86713 9.72847 6.73092 10.2418 6.78086 10.7201C6.83118 11.202 7.06865 11.6282 7.47497 11.9635L7.72959 11.655ZM8.38213 13.889C8.47476 13.6874 8.55981 13.5032 8.61203 13.3329C8.66567 13.1579 8.6896 12.9832 8.65073 12.798C8.57524 12.4386 8.27493 12.1051 7.72959 11.655L7.47497 11.9635C8.0283 12.4202 8.21592 12.6739 8.25927 12.8803C8.27981 12.9781 8.27088 13.081 8.22959 13.2157C8.18687 13.355 8.11491 13.5125 8.01866 13.722L8.38213 13.889ZM8.38173 13.8899L8.38176 13.8898L8.01904 13.7212L8.01901 13.7213L8.38173 13.8899ZM8.24713 14.1875C8.29414 14.0806 8.33938 13.9821 8.38211 13.8891L8.01864 13.7221C7.97604 13.8148 7.92946 13.9162 7.88092 14.0266L8.24713 14.1875ZM4.89506 7.48541C4.5112 10.2336 5.79791 12.843 7.95342 14.2737L8.17463 13.9405C6.14202 12.5913 4.9295 10.1304 5.29121 7.54074L4.89506 7.48541ZM11.5809 13.9944C11.2521 14.1402 10.7136 14.5185 10.2991 14.9612L10.5911 15.2346C10.9762 14.8233 11.472 14.4802 11.743 14.3601L11.5809 13.9944ZM12.1247 13.8299C11.9298 13.8786 11.7328 13.9272 11.581 13.9944L11.743 14.3601C11.8561 14.31 12.0144 14.2698 12.2217 14.218L12.1247 13.8299ZM14.0519 12.23C13.9139 12.8294 13.6112 13.178 13.2631 13.4026C12.9057 13.6332 12.4944 13.7375 12.1247 13.8299L12.2217 14.218C12.5835 14.1276 13.0586 14.0105 13.4799 13.7387C13.9105 13.461 14.279 13.0264 14.4417 12.3198L14.0519 12.23ZM12.31 10.6511C12.8331 10.7844 13.3238 11.0099 13.6546 11.2944C13.9838 11.5775 14.1296 11.8928 14.0519 12.23L14.4417 12.3198C14.565 11.785 14.3092 11.3297 13.9155 10.9911C13.5234 10.6539 12.97 10.4065 12.4088 10.2635L12.31 10.6511ZM11.5594 9.83581C11.6815 10.0226 11.799 10.2028 11.9104 10.3415C12.0143 10.4708 12.1467 10.6094 12.31 10.6511L12.4088 10.2635C12.3863 10.2577 12.3263 10.2205 12.2223 10.091C12.1258 9.97095 12.02 9.80941 11.8942 9.61696L11.5594 9.83581ZM11.5854 9.8678L11.5854 9.86781L11.8682 9.58496L11.8682 9.58496L11.5854 9.8678ZM9.08 8.25252C9.69624 8.09958 10.1715 8.28285 10.5674 8.6083C10.9733 8.94203 11.2861 9.41768 11.5594 9.83581L11.8942 9.61695C11.627 9.20818 11.2826 8.6785 10.8214 8.29931C10.3501 7.91182 9.74811 7.67457 8.98365 7.86429L9.08 8.25252ZM8.31339 7.98201C8.5104 8.10454 8.66769 8.17598 8.78693 8.21564C8.84646 8.23544 8.89817 8.24787 8.94184 8.25439C8.97843 8.25986 9.02939 8.26445 9.07768 8.25308L8.98597 7.86373C9.01396 7.85714 9.02478 7.86234 9.00093 7.85878C8.98417 7.85628 8.95515 7.85005 8.91317 7.83608C8.82941 7.80823 8.70059 7.75177 8.52465 7.64234L8.31339 7.98201ZM7.26937 6.99425C7.29733 7.05841 7.34717 7.13058 7.40365 7.20097C7.46272 7.27457 7.53822 7.35747 7.62691 7.4442C7.80419 7.61756 8.03988 7.81182 8.31336 7.98199L8.52468 7.64236C8.27834 7.48909 8.06529 7.31341 7.90658 7.15821C7.82728 7.08067 7.76298 7.00963 7.71563 6.95063C7.6657 6.8884 7.64253 6.84929 7.63608 6.83448L7.26937 6.99425ZM7.22813 5.7445C7.33158 6.0061 7.46578 6.34831 7.2673 6.83942L7.63816 6.9893C7.89756 6.34745 7.71118 5.8783 7.60011 5.59741L7.22813 5.7445ZM7.23566 5.16299C7.18755 5.22325 7.12965 5.30631 7.13703 5.43423C7.14231 5.52572 7.18301 5.63035 7.22813 5.74448L7.60012 5.59743C7.57552 5.5352 7.55911 5.49166 7.5485 5.45861C7.54334 5.44252 7.54023 5.43098 7.53839 5.42271C7.53657 5.41449 7.53637 5.41112 7.53637 5.41119C7.5366 5.41517 7.53557 5.4255 7.53147 5.43478C7.52983 5.43849 7.53076 5.43447 7.54827 5.41254L7.23566 5.16299ZM7.2361 5.16244L7.23597 5.1626L7.54796 5.41293L7.54809 5.41276L7.2361 5.16244ZM7.70086 4.78576C7.61864 4.79385 7.55206 4.83987 7.51725 4.86615C7.47476 4.89824 7.43389 4.93729 7.39895 4.97353C7.3286 5.04651 7.26465 5.12671 7.23585 5.16275L7.54834 5.41245C7.57775 5.37565 7.63109 5.30906 7.68692 5.25115C7.71507 5.22195 7.73952 5.19954 7.75829 5.18537C7.76266 5.18207 7.76613 5.17967 7.76872 5.178C7.77136 5.1763 7.77254 5.1757 7.77233 5.17581C7.7722 5.17587 7.76966 5.17717 7.7649 5.17875C7.76023 5.1803 7.75171 5.18269 7.74003 5.18384L7.70086 4.78576ZM7.95212 4.88623C7.92359 4.862 7.89139 4.83856 7.85737 4.82056C7.83207 4.80717 7.77128 4.77754 7.69734 4.78614L7.74354 5.18346C7.7277 5.1853 7.71453 5.18459 7.70518 5.18346C7.69574 5.18231 7.68842 5.18051 7.68361 5.17911C7.67871 5.17768 7.67523 5.17631 7.67331 5.1755C7.67133 5.17466 7.6703 5.17412 7.67025 5.17409C7.67018 5.17405 7.67075 5.17436 7.67198 5.17512C7.67319 5.17587 7.67486 5.17696 7.67698 5.17844C7.68127 5.18145 7.68674 5.18564 7.6932 5.19112L7.95212 4.88623ZM8.20619 5.41082C8.18371 5.326 8.15831 5.22904 8.12385 5.14247C8.08947 5.0561 8.03836 4.95919 7.95183 4.88599L7.69349 5.19137C7.70752 5.20324 7.72826 5.23024 7.75221 5.2904C7.77608 5.35036 7.79549 5.42255 7.81953 5.51327L8.20619 5.41082ZM8.57723 5.94663C8.45831 5.92401 8.39062 5.86536 8.33891 5.7806C8.28021 5.68438 8.24603 5.5612 8.20619 5.41082L7.81953 5.51327C7.85614 5.65145 7.90299 5.8341 7.99744 5.98892C8.09889 6.15521 8.25649 6.2928 8.50251 6.33959L8.57723 5.94663ZM9.35147 5.01434C9.2438 5.27806 9.13527 5.54056 8.99616 5.72769C8.86119 5.90926 8.73267 5.97614 8.57717 5.94662L8.50257 6.3396C8.87304 6.40993 9.13781 6.20761 9.31718 5.96632C9.49242 5.73059 9.61929 5.41659 9.72179 5.16555L9.35147 5.01434ZM9.47264 4.72809C9.43215 4.81668 9.39175 4.91571 9.35147 5.01434L9.72179 5.16555C9.76286 5.06497 9.80003 4.97404 9.83644 4.8944L9.47264 4.72809ZM11.61 3.50128C10.8541 3.63268 9.90407 3.78488 9.47266 4.72806L9.83642 4.89443C10.1673 4.17101 10.881 4.034 11.6785 3.89537L11.61 3.50128ZM12.8626 3.07078C12.7351 3.19205 12.5618 3.27771 12.3442 3.34437C12.1256 3.41134 11.879 3.45452 11.61 3.50128L11.6785 3.89537C11.9417 3.84961 12.2144 3.80251 12.4614 3.72682C12.7095 3.65082 12.9481 3.54142 13.1382 3.36061L12.8626 3.07078ZM13.5301 1.88493C13.472 2.28011 13.242 2.70984 12.8626 3.07078L13.1382 3.36061C13.5701 2.94979 13.8524 2.44227 13.9259 1.94316L13.5301 1.88493ZM15.1211 2.26344C14.6987 2.03909 14.2512 1.85752 13.7837 1.72196L13.6723 2.10613C14.1136 2.23409 14.5355 2.40533 14.9335 2.61671L15.1211 2.26344ZM15.8179 3.86136C15.4995 3.54349 15.0889 3.11992 15.223 2.48117L14.8316 2.39898C14.6481 3.2727 15.2331 3.84273 15.5353 4.14446L15.8179 3.86136ZM16.0156 4.07402C15.9643 4.00686 15.8889 3.93216 15.8179 3.86136L15.5353 4.14446C15.6141 4.22307 15.6665 4.27602 15.6977 4.31681L16.0156 4.07402ZM16.1063 4.80049C16.0225 4.5686 16.0121 4.3863 16.0497 4.24775L15.6636 4.14308C15.5978 4.38588 15.6287 4.65576 15.7302 4.93647L16.1063 4.80049ZM15.951 5.38087C16.124 5.24066 16.1804 5.00578 16.1064 4.8006L15.7301 4.93636C15.7501 4.99168 15.7316 5.04382 15.6992 5.07011L15.951 5.38087ZM14.951 6.73465C14.9991 6.4834 15.1394 6.23147 15.3288 5.99417C15.5171 5.75827 15.7448 5.5481 15.9511 5.38084L15.6991 5.07014C15.4794 5.24831 15.2284 5.47874 15.0162 5.74466C14.8051 6.00918 14.6231 6.32028 14.5581 6.65936L14.951 6.73465ZM15.6364 8.97975C15.3885 8.77502 15.1613 8.53606 15.0223 8.19601C14.8836 7.85671 14.8244 7.39585 14.951 6.73462L14.5581 6.65938C14.4204 7.37852 14.4777 7.92088 14.652 8.34735C14.826 8.77305 15.1083 9.06239 15.3817 9.28818L15.6364 8.97975ZM16.6049 9.4633C16.3311 9.37901 15.9929 9.27397 15.6363 8.97972L15.3817 9.28822C15.803 9.63591 16.2067 9.75925 16.4872 9.8456L16.6049 9.4633ZM16.4986 11.5978C16.7423 11.1946 16.9183 10.8831 17.0345 10.6402C17.148 10.4031 17.2166 10.2078 17.2211 10.0446C17.2235 9.95796 17.2081 9.87438 17.1675 9.79805C17.127 9.722 17.0688 9.66686 17.007 9.62561C16.8942 9.55036 16.7405 9.50506 16.6049 9.4633L16.4872 9.8456C16.6449 9.89413 16.732 9.92294 16.785 9.95835C16.8061 9.97243 16.8121 9.98175 16.8143 9.98588C16.8164 9.98972 16.8221 10.002 16.8212 10.0336C16.8192 10.1069 16.7839 10.2372 16.6737 10.4676C16.5662 10.6922 16.3985 10.9902 16.1563 11.391L16.4986 11.5978ZM15.6997 14.0719C15.5675 13.7559 15.6155 13.375 15.7851 12.9367C15.954 12.5002 16.2281 12.0456 16.4986 11.5978L16.1563 11.391C15.8901 11.8315 15.596 12.3171 15.4121 12.7923C15.2288 13.2658 15.139 13.7681 15.3307 14.2263L15.6997 14.0719ZM10.4044 15.2937C12.2713 15.6822 14.1295 15.2823 15.6238 14.3171L15.4067 13.9811C13.9969 14.8917 12.2454 15.2682 10.4858 14.9021L10.4044 15.2937ZM6.37465 19.6035C6.336 19.6035 6.29906 19.5857 6.27536 19.5529L5.95093 19.7868C6.05312 19.9285 6.21323 20.0035 6.37465 20.0035V19.6035ZM6.47353 19.4096C6.53121 19.4895 6.47393 19.6035 6.37465 19.6035V20.0035C6.79099 20.0035 7.05195 19.5273 6.79777 19.1754L6.47353 19.4096ZM5.10043 18.3384C5.42286 18.5586 5.72141 18.7626 5.96569 18.9475C6.21446 19.1359 6.38749 19.2904 6.47348 19.4096L6.79782 19.1755C6.67334 19.003 6.45637 18.8173 6.20715 18.6286C5.95345 18.4365 5.64602 18.2266 5.32601 18.0081L5.10043 18.3384ZM5.09555 18.335L5.09558 18.335L5.33085 18.0115L5.33082 18.0115L5.09555 18.335ZM5.10222 18.3396L5.10225 18.3397L5.32413 18.0068L5.3241 18.0068L5.10222 18.3396ZM5.08821 18.3294L5.08822 18.3294L5.3381 18.0171L5.33809 18.017L5.08821 18.3294ZM3.19719 16.8823C3.71549 17.3935 4.45573 17.8982 5.10036 18.3384L5.32593 18.0081C4.67232 17.5617 3.96546 17.0782 3.47807 16.5975L3.19719 16.8823ZM1.90056 14.5387C1.99532 14.8346 2.21669 15.3171 2.45956 15.7689C2.69945 16.2152 2.97896 16.667 3.19717 16.8823L3.4781 16.5975C3.30824 16.43 3.05366 16.0293 2.81188 15.5795C2.57307 15.1352 2.36517 14.678 2.28151 14.4167L1.90056 14.5387ZM1.45807 12.9462L1.89833 14.5312L2.28374 14.4241L1.84348 12.8392L1.45807 12.9462ZM2.14133 12.7147C2.09929 12.6223 2.02951 12.5511 1.93913 12.5148C1.85121 12.4796 1.75932 12.4837 1.68188 12.5123C1.52977 12.5685 1.40021 12.7378 1.45806 12.9462L1.84349 12.8392C1.84403 12.8412 1.84494 12.8462 1.84402 12.8533C1.84313 12.8603 1.84082 12.8667 1.83779 12.8719C1.83221 12.8816 1.82542 12.8857 1.82041 12.8876C1.81481 12.8897 1.80374 12.8915 1.7903 12.8861C1.78364 12.8834 1.77886 12.8799 1.77613 12.8772C1.77351 12.8745 1.77459 12.8745 1.77722 12.8803L2.14133 12.7147ZM2.52394 13.556C2.43178 13.3484 2.31221 13.079 2.14035 12.7126L1.7782 12.8824C1.94823 13.245 2.06641 13.5112 2.15833 13.7183L2.52394 13.556ZM2.93166 14.3235C2.77747 14.1248 2.70981 13.9748 2.52394 13.556L2.15833 13.7183C2.34091 14.1296 2.4267 14.3253 2.61568 14.5687L2.93166 14.3235ZM5.08574 16.0885C4.24906 15.6711 3.50469 15.0619 2.93167 14.3235L2.61566 14.5687C3.22563 15.3547 4.01705 16.0024 4.90718 16.4464L5.08574 16.0885ZM6.51075 17.5064L5.13827 16.1264L4.85465 16.4085L6.22713 17.7885L6.51075 17.5064ZM6.59738 17.5425C6.56549 17.5425 6.53462 17.5305 6.51093 17.5066L6.22696 17.7883C6.32915 17.8913 6.46377 17.9425 6.59738 17.9425V17.5425ZM6.68416 17.3339C6.75991 17.4101 6.70567 17.5425 6.59738 17.5425V17.9425C7.05843 17.9425 7.29658 17.3826 6.96782 17.0519L6.68416 17.3339ZM5.2991 15.9412L6.68418 17.334L6.9678 17.0519L5.58273 15.6591L5.2991 15.9412ZM4.72674 15.0601L5.27274 15.9084L5.60909 15.6919L5.06309 14.8436L4.72674 15.0601ZM5.35284 14.6056C5.03181 14.2739 4.52441 14.6469 4.71502 15.0392L5.07481 14.8644C5.07387 14.8625 5.07453 14.8632 5.07476 14.866C5.07498 14.8688 5.07463 14.8716 5.07389 14.8741C5.07321 14.8763 5.07239 14.8776 5.07207 14.878C5.0719 14.8783 5.0718 14.8784 5.07178 14.8784C5.07176 14.8784 5.07176 14.8784 5.07176 14.8784C5.07176 14.8784 5.07168 14.8784 5.07149 14.8785C5.07129 14.8786 5.07092 14.8788 5.07035 14.879C5.06915 14.8793 5.0671 14.8797 5.06446 14.8795C5.06163 14.8793 5.05959 14.8785 5.05882 14.8782C5.05808 14.8778 5.06054 14.8788 5.06541 14.8838L5.35284 14.6056ZM6.78161 16.1163C6.52077 15.8388 6.08787 15.3784 5.35404 14.6069L5.06421 14.8826C5.7973 15.6533 6.22962 16.1131 6.49019 16.3903L6.78161 16.1163ZM7.16437 16.516C7.16421 16.5159 7.16457 16.5161 7.16522 16.5165C7.16589 16.5169 7.1665 16.5172 7.16697 16.5176C7.16793 16.5182 7.1671 16.5178 7.16377 16.5149C7.15594 16.5083 7.14147 16.4949 7.11298 16.466C7.05635 16.4085 6.96071 16.3068 6.78161 16.1163L6.49019 16.3903C6.66711 16.5785 6.7672 16.6849 6.82809 16.7467C6.8869 16.8064 6.92536 16.8419 6.9768 16.8693L7.16437 16.516ZM7.16966 16.5186L7.16119 16.5143L6.97998 16.8709L6.98845 16.8752L7.16966 16.5186ZM7.17309 16.5202L7.1665 16.517L6.99161 16.8768L6.99819 16.88L7.17309 16.5202ZM7.17705 16.5222L7.17285 16.5201L6.99844 16.8801L7.00264 16.8821L7.17705 16.5222ZM9.1882 17.4991L7.17723 16.5223L7.00246 16.882L9.01343 17.8589L9.1882 17.4991ZM10.3385 19.3687C10.321 19.0843 10.2607 18.0201 9.18821 17.4991L9.01342 17.8589C9.8654 18.2728 9.9219 19.1109 9.93922 19.3932L10.3385 19.3687ZM10.3368 19.3974C10.3393 19.4051 10.3406 19.411 10.3411 19.4137C10.3417 19.4166 10.342 19.4186 10.342 19.4189C10.3421 19.4195 10.3419 19.418 10.3415 19.4132C10.3406 19.4033 10.3398 19.3896 10.3385 19.3687L9.93922 19.3932C9.94039 19.4122 9.94157 19.4317 9.94296 19.4477C9.94373 19.4567 9.94607 19.4883 9.95548 19.518L10.3368 19.3974ZM10.4788 19.5499C10.4104 19.556 10.3515 19.5064 10.3453 19.4394L9.947 19.476C9.97341 19.7635 10.2274 19.974 10.5145 19.9483L10.4788 19.5499ZM10.589 19.4169C10.5952 19.4842 10.5457 19.5437 10.4784 19.5499L10.5149 19.9482C10.8024 19.9219 11.0137 19.6675 10.9873 19.3803L10.589 19.4169ZM10.5607 19.1084L10.589 19.4169L10.9873 19.3803L10.959 19.0718L10.5607 19.1084ZM9.29508 17.279C10.003 17.6229 10.4885 18.3246 10.5607 19.1084L10.959 19.0718C10.874 18.1486 10.3037 17.3243 9.46985 16.9192L9.29508 17.279ZM7.33697 16.3278L9.29507 17.279L9.46985 16.9192L7.51175 15.968L7.33697 16.3278ZM5.52963 14.4365L7.27909 16.2854L7.56963 16.0105L5.82017 14.1616L5.52963 14.4365ZM4.7296 14.331C4.97853 14.1752 5.3169 14.2166 5.53114 14.4381L5.81865 14.16C5.47732 13.8072 4.93148 13.7328 4.5174 13.9919L4.7296 14.331ZM4.44292 14.9894C4.39462 14.7382 4.50255 14.4731 4.72959 14.331L4.51742 13.9919C4.14625 14.2241 3.97153 14.6562 4.05012 15.065L4.44292 14.9894ZM3.12479 14.1735C3.41538 14.5477 3.7513 14.8874 4.12164 15.1834L4.37141 14.871C4.02537 14.5944 3.71172 14.2771 3.4407 13.9282L3.12479 14.1735ZM2.76986 13.506C2.93333 13.8728 2.98719 13.9962 3.12474 14.1735L3.44075 13.9282C3.33827 13.7962 3.30304 13.7197 3.13522 13.3431L2.76986 13.506ZM2.36474 12.615C2.55577 13.0256 2.68036 13.3051 2.76986 13.506L3.13522 13.3431C3.04543 13.1417 2.91981 12.8598 2.7274 12.4463L2.36474 12.615ZM1.67395 12.2582C1.94836 12.1971 2.24112 12.343 2.36398 12.6134L2.72815 12.4479C2.52976 12.0113 2.05243 11.7641 1.58697 11.8678L1.67395 12.2582ZM1.22227 13.0115C1.12957 12.6779 1.33606 12.3337 1.67403 12.2582L1.58689 11.8678C1.02555 11.9931 0.682834 12.5643 0.836873 13.1186L1.22227 13.0115ZM1.66546 14.6137C1.65748 14.5843 1.58983 14.3345 1.22227 13.0115L0.836871 13.1186C1.20444 14.4416 1.27177 14.6902 1.27937 14.7183L1.66546 14.6137ZM1.66511 14.6124L1.6651 14.6124L1.27973 14.7196L1.27973 14.7196L1.66511 14.6124ZM1.66546 14.6137L1.66493 14.6118L1.27991 14.7203L1.28044 14.7221L1.66546 14.6137ZM1.66565 14.6071C1.66306 14.5989 1.6593 14.587 1.65551 14.5773C1.65498 14.576 1.65119 14.566 1.64502 14.5545C1.64476 14.554 1.6322 14.5286 1.60732 14.5046C1.59967 14.4973 1.55165 14.4499 1.47154 14.4487C1.36212 14.447 1.30627 14.5254 1.2891 14.5602C1.27329 14.5922 1.27031 14.6204 1.26952 14.6281C1.26831 14.6397 1.26839 14.649 1.26851 14.6539C1.26876 14.6638 1.2697 14.6716 1.27009 14.6746C1.27097 14.6815 1.27204 14.687 1.27243 14.689C1.27398 14.6969 1.27607 14.7052 1.27676 14.708C1.27786 14.7124 1.27893 14.7165 1.27937 14.7182L1.66652 14.6176C1.66473 14.6107 1.66429 14.6086 1.66496 14.6121C1.66514 14.613 1.66607 14.6177 1.66687 14.6239C1.66721 14.6266 1.66814 14.6341 1.66838 14.6439C1.6685 14.6486 1.66858 14.6578 1.66738 14.6694C1.66659 14.677 1.66363 14.7051 1.64783 14.7371C1.63068 14.7719 1.57485 14.8503 1.46546 14.8486C1.38538 14.8474 1.33738 14.8 1.32977 14.7927C1.30497 14.7688 1.2925 14.7435 1.29237 14.7433C1.28644 14.7322 1.28298 14.723 1.2829 14.7228C1.28089 14.7177 1.28062 14.7162 1.28409 14.7272L1.66565 14.6071ZM3.02534 17.0562C2.80903 16.843 2.51927 16.394 2.25239 15.9009C1.98781 15.4121 1.76167 14.9098 1.6655 14.6067L1.28423 14.7277C1.39133 15.0652 1.63071 15.5926 1.9006 16.0913C2.16818 16.5857 2.48183 17.0821 2.74455 17.3411L3.02534 17.0562ZM4.9845 18.5557C4.30474 18.0916 3.55549 17.5792 3.0254 17.0563L2.74449 17.341C3.30537 17.8943 4.08754 18.4276 4.75894 18.886L4.9845 18.5557ZM4.98555 18.5564L4.98485 18.5559L4.75859 18.8858L4.75929 18.8863L4.98555 18.5564ZM5.06887 18.6131L4.98488 18.556L4.75996 18.8867L4.84395 18.9438L5.06887 18.6131ZM6.27525 19.5527C6.22211 19.4792 6.13497 19.398 6.04439 19.3214C5.94987 19.2415 5.83694 19.1547 5.72065 19.069C5.48793 18.8975 5.23325 18.7247 5.06874 18.613L4.84407 18.9439C5.00938 19.0561 5.25782 19.2248 5.48338 19.391C5.59623 19.4742 5.70125 19.5551 5.78619 19.6269C5.87508 19.7021 5.92892 19.7564 5.95104 19.787L6.27525 19.5527ZM22.1711 11.8963C21.6806 11.7316 21.1484 11.9628 20.9344 12.4333L21.2985 12.5989C21.4276 12.3152 21.7474 12.176 22.0438 12.2755L22.1711 11.8963ZM22.8149 13.1338C22.9594 12.6137 22.6811 12.0677 22.1711 11.8963L22.0437 12.2755C22.3451 12.3768 22.5191 12.7043 22.4295 13.0267L22.8149 13.1338ZM22.3846 14.6897C22.4017 14.6266 22.4813 14.3345 22.8149 13.1338L22.4295 13.0267C22.0958 14.2277 22.0161 14.5205 21.9986 14.5846L22.3846 14.6897ZM22.38 14.7064L22.3844 14.6902L21.9988 14.584L21.9943 14.6002L22.38 14.7064ZM21.9919 14.6101L21.9915 14.6116L22.3828 14.6949L22.3831 14.6933L21.9919 14.6101ZM22.3719 14.7273C22.373 14.7238 22.3739 14.7211 22.3745 14.7192C22.3748 14.7182 22.375 14.7175 22.3752 14.7169C22.3753 14.7167 22.3754 14.7165 22.3754 14.7164C22.3755 14.7162 22.3755 14.7162 22.3755 14.7162C22.3755 14.7162 22.3754 14.7163 22.3754 14.7164C22.3753 14.7166 22.3752 14.7169 22.3751 14.7173C22.3748 14.718 22.3743 14.7195 22.3734 14.7217C22.3728 14.7233 22.3709 14.728 22.3679 14.7339C22.3665 14.7369 22.3637 14.7424 22.3597 14.749C22.3571 14.7535 22.3476 14.7692 22.3311 14.7859C22.323 14.7942 22.3055 14.8107 22.2786 14.8243C22.2504 14.8385 22.1992 14.8554 22.1375 14.8391C22.0753 14.8227 22.0387 14.7822 22.0209 14.7547C22.004 14.7288 21.9972 14.705 21.9944 14.6936C21.9887 14.6704 21.9886 14.6517 21.9886 14.6465C21.9886 14.6386 21.989 14.6324 21.9893 14.6291C21.9899 14.6223 21.9907 14.6172 21.991 14.6154C21.9914 14.613 21.9917 14.6111 21.9919 14.6102C21.9924 14.6074 21.9929 14.6055 21.9924 14.6076L22.3825 14.6959C22.3826 14.6956 22.3838 14.6904 22.3848 14.6852C22.385 14.6843 22.3869 14.6748 22.3879 14.6632C22.3882 14.6597 22.3886 14.6533 22.3886 14.6453C22.3886 14.64 22.3885 14.6212 22.3828 14.5979C22.38 14.5864 22.3731 14.5627 22.3562 14.5367C22.3384 14.5093 22.3018 14.4687 22.2396 14.4523C22.1779 14.436 22.1266 14.4529 22.0985 14.4671C22.0715 14.4807 22.0539 14.4973 22.0458 14.5056C22.0293 14.5223 22.0198 14.5382 22.017 14.5427C22.0129 14.5495 22.0101 14.5552 22.0085 14.5583C22.0054 14.5648 22.0032 14.57 22.0023 14.5724C22.0002 14.5777 21.9985 14.5825 21.9975 14.5852C21.9954 14.5912 21.993 14.5986 21.9904 14.6071L22.3719 14.7273ZM20.9115 17.3413C21.1741 17.0822 21.4877 16.5858 21.7553 16.0914C22.0252 15.5927 22.2647 15.0653 22.3718 14.7277L21.9905 14.6068C21.8943 14.9098 21.6681 15.4121 21.4035 15.901C21.1366 16.3941 20.8469 16.8432 20.6306 17.0565L20.9115 17.3413ZM18.8508 18.9175C19.5194 18.4624 20.3412 17.9038 20.9115 17.3412L20.6306 17.0565C20.0914 17.5884 19.3031 18.1257 18.6257 18.5869L18.8508 18.9175ZM17.706 19.7856C17.7598 19.7117 17.8912 19.5964 18.1026 19.4395C18.3072 19.2876 18.5647 19.1123 18.8508 18.9175L18.6257 18.5869C18.3419 18.7801 18.0768 18.9605 17.8641 19.1184C17.6582 19.2713 17.4776 19.4199 17.3827 19.5501L17.706 19.7856ZM17.2835 20.0006C17.4443 20.0006 17.6038 19.9262 17.7061 19.7855L17.3826 19.5502C17.3587 19.5831 17.3218 19.6006 17.2835 19.6006V20.0006ZM16.8616 19.1707C16.6076 19.5192 16.8625 20.0006 17.2835 20.0006V19.6006C17.1842 19.6006 17.1266 19.4862 17.1848 19.4063L16.8616 19.1707ZM18.331 18.007C18.0119 18.2248 17.7053 18.4341 17.452 18.6256C17.2031 18.8139 16.9864 18.999 16.8614 19.1709L17.1849 19.4062C17.2717 19.2869 17.445 19.1325 17.6933 18.9447C17.9372 18.7602 18.235 18.5568 18.5565 18.3374L18.331 18.007ZM20.1781 16.5974C19.6913 17.0776 18.9846 17.5608 18.331 18.007L18.5565 18.3374C19.2011 17.8973 19.9412 17.3929 20.459 16.8822L20.1781 16.5974ZM21.3745 14.4166C21.2908 14.678 21.0829 15.1352 20.8441 15.5795C20.6024 16.0293 20.3478 16.4299 20.1781 16.5974L20.459 16.8822C20.6771 16.667 20.9566 16.2152 21.1965 15.7689C21.4393 15.3171 21.6607 14.8346 21.7554 14.5385L21.3745 14.4166ZM21.8085 12.8542L21.3723 14.424L21.7577 14.5311L22.1939 12.9612L21.8085 12.8542ZM21.8855 12.8655C21.8852 12.8662 21.8831 12.8702 21.878 12.875C21.873 12.8797 21.8669 12.8833 21.8606 12.8856C21.8489 12.8899 21.84 12.8884 21.8348 12.8865C21.8291 12.8843 21.8204 12.8789 21.8143 12.8673C21.8068 12.8533 21.8109 12.8455 21.8085 12.8542L22.1939 12.9612C22.221 12.8635 22.2127 12.7647 22.1675 12.6797C22.1236 12.5971 22.0519 12.5405 21.9745 12.5116C21.8198 12.454 21.6115 12.5015 21.5213 12.7001L21.8855 12.8655ZM21.3271 14.0942L21.8855 12.8656L21.5214 12.7001L20.9629 13.9287L21.3271 14.0942ZM18.7488 16.4463C19.3954 16.1239 19.9648 15.6973 20.408 15.2744C20.8482 14.8544 21.1762 14.4261 21.3271 14.0942L20.9629 13.9287C20.8416 14.1957 20.5532 14.5829 20.1319 14.985C19.7136 15.3841 19.1765 15.786 18.5703 16.0883L18.7488 16.4463ZM17.7614 17.4566C17.9726 17.2363 18.2894 16.9058 18.7989 16.4108L18.5202 16.1239C18.0057 16.6237 17.6851 16.9581 17.4726 17.1798L17.7614 17.4566ZM17.0586 17.9425C17.1115 17.9425 17.1682 17.9368 17.2288 17.9151C17.2881 17.8939 17.3397 17.8613 17.389 17.8225C17.4804 17.7505 17.5944 17.6309 17.7614 17.4566L17.4726 17.1798C17.2944 17.3657 17.205 17.4582 17.1414 17.5083C17.1132 17.5305 17.0995 17.5366 17.0938 17.5386C17.0894 17.5402 17.0815 17.5425 17.0586 17.5425V17.9425ZM16.6882 17.0519C16.359 17.3828 16.598 17.9425 17.0586 17.9425V17.5425C16.9502 17.5425 16.8962 17.41 16.9718 17.3341L16.6882 17.0519ZM18.0733 15.6592L16.6882 17.052L16.9718 17.334L18.3569 15.9412L18.0733 15.6592ZM18.5927 14.8437L18.0469 15.692L18.3833 15.9084L18.9291 15.0601L18.5927 14.8437ZM18.5882 14.8864C18.5912 14.8833 18.5935 14.8814 18.595 14.8804C18.5964 14.8793 18.5972 14.8789 18.5973 14.8789C18.5973 14.8788 18.5969 14.879 18.596 14.8793C18.5951 14.8795 18.594 14.8798 18.5927 14.8799C18.5872 14.8803 18.5844 14.8784 18.5843 14.8784C18.5842 14.8783 18.584 14.8781 18.5837 14.8777C18.5833 14.8772 18.5825 14.876 18.5819 14.8738C18.5812 14.8715 18.5808 14.8687 18.5811 14.8661C18.5813 14.8633 18.5819 14.8626 18.5811 14.8644L18.9407 15.0394C19.131 14.6484 18.6264 14.2718 18.3008 14.6082L18.5882 14.8864ZM16.8047 16.7713L18.5898 14.8848L18.2992 14.6098L16.5142 16.4964L16.8047 16.7713ZM16.7932 16.7835C16.7973 16.7792 16.802 16.7743 16.8046 16.7715L16.5143 16.4963C16.5097 16.5011 16.5078 16.5032 16.5055 16.5056L16.7932 16.7835ZM16.7814 16.7953C16.7859 16.791 16.7899 16.7869 16.7932 16.7834L16.5055 16.5056C16.5042 16.507 16.5035 16.5076 16.5033 16.5078L16.7814 16.7953ZM16.26 17.0742C16.4525 16.9817 16.5643 16.928 16.6317 16.8933C16.6981 16.8593 16.7412 16.8342 16.7814 16.7953L16.5033 16.5078C16.5032 16.5079 16.5039 16.5072 16.5047 16.5066C16.5053 16.5061 16.5046 16.5067 16.5015 16.5087C16.4942 16.5134 16.4796 16.5218 16.449 16.5375C16.3876 16.5691 16.2823 16.6197 16.0867 16.7137L16.26 17.0742ZM16.2627 17.0729L16.2628 17.0729L16.0839 16.7151L16.0838 16.7151L16.2627 17.0729ZM14.6433 17.8587C15.475 17.4515 15.9657 17.2156 16.2599 17.0743L16.0866 16.7137C15.792 16.8554 15.3003 17.0917 14.4674 17.4994L14.6433 17.8587ZM13.7153 19.4063C13.7325 19.1213 13.789 18.2735 14.6427 17.859L14.468 17.4992C13.3927 18.0213 13.3333 19.0967 13.3161 19.3822L13.7153 19.4063ZM13.6992 19.5314C13.7086 19.5015 13.7109 19.4698 13.7117 19.4609C13.713 19.4449 13.7142 19.4253 13.7153 19.4063L13.3161 19.3822C13.3148 19.4032 13.314 19.417 13.3131 19.4269C13.3127 19.4318 13.3125 19.4333 13.3126 19.4327C13.3126 19.4323 13.3129 19.4304 13.3135 19.4274C13.314 19.4248 13.3153 19.4188 13.3178 19.411L13.6992 19.5314ZM13.1395 19.9617C13.4265 19.9884 13.6812 19.7767 13.7076 19.4895L13.3093 19.4529C13.3031 19.5201 13.2433 19.5696 13.1765 19.5634L13.1395 19.9617ZM12.6675 19.3938C12.6411 19.6812 12.8524 19.9353 13.1397 19.9617L13.1763 19.5634C13.1091 19.5572 13.0596 19.4978 13.0658 19.4304L12.6675 19.3938ZM12.6752 19.3155C12.6737 19.3385 12.6727 19.3541 12.6717 19.3652C12.6712 19.3706 12.6709 19.3726 12.671 19.3724C12.671 19.3722 12.6713 19.3703 12.6719 19.3673C12.6724 19.3647 12.6738 19.3582 12.6766 19.3498L13.0567 19.4744C13.0668 19.4435 13.0693 19.4098 13.0701 19.4009C13.0716 19.3839 13.073 19.3628 13.0744 19.3417L12.6752 19.3155ZM14.1863 16.9193C12.784 17.6004 12.698 18.9691 12.6752 19.3155L13.0744 19.3417C13.0966 19.0031 13.1759 17.8548 14.3611 17.2791L14.1863 16.9193ZM16.1442 15.9681L14.1863 16.9193L14.3611 17.2791L16.319 16.3279L16.1442 15.9681ZM17.8335 14.1642L16.0864 16.0105L16.3769 16.2854L18.124 14.4391L17.8335 14.1642ZM19.1386 13.9922C18.7243 13.7328 18.1784 13.8075 17.835 14.1626L18.1225 14.4407C18.3394 14.2164 18.678 14.1757 18.9263 14.3312L19.1386 13.9922ZM19.6059 15.0652C19.6845 14.6565 19.5096 14.2242 19.1385 13.9921L18.9264 14.3312C19.1533 14.4731 19.2614 14.7384 19.2131 14.9897L19.6059 15.0652ZM20.2153 13.9283C19.9443 14.2773 19.6306 14.5946 19.2846 14.8712L19.5344 15.1836C19.9047 14.8876 20.2406 14.5479 20.5312 14.1735L20.2153 13.9283ZM20.5228 13.339C20.3536 13.7188 20.318 13.7959 20.2153 13.9282L20.5312 14.1736C20.6692 13.9959 20.7234 13.8716 20.8882 13.5017L20.5228 13.339ZM20.9351 12.4318C20.7405 12.8502 20.6135 13.1353 20.5228 13.339L20.8882 13.5017C20.9786 13.2987 21.1046 13.016 21.2978 12.6005L20.9351 12.4318ZM6.74224 20.61H10.6893V20.21H6.74224V20.61ZM6.19498 21.1573C6.19498 20.8557 6.44063 20.61 6.74224 20.61V20.21C6.21972 20.21 5.79498 20.6348 5.79498 21.1573H6.19498ZM6.19498 22.2528V21.1573H5.79498V22.2528H6.19498ZM6.74224 22.7999C6.4406 22.7999 6.19498 22.5542 6.19498 22.2528H5.79498C5.79498 22.7752 6.21975 23.1999 6.74224 23.1999V22.7999ZM10.6893 22.7999H6.74224V23.1999H10.6893V22.7999ZM11.2364 22.2528C11.2364 22.5543 10.9908 22.7999 10.6893 22.7999V23.1999C11.2117 23.1999 11.6364 22.7752 11.6364 22.2528H11.2364ZM11.2364 21.1573V22.2528H11.6364V21.1573H11.2364ZM10.6893 20.61C10.9907 20.61 11.2364 20.8557 11.2364 21.1573H11.6364C11.6364 20.6348 11.2117 20.21 10.6893 20.21V20.61ZM10.6893 22.5554C10.8563 22.5554 10.9919 22.4199 10.9919 22.2528H10.5919C10.5919 22.1989 10.6354 22.1554 10.6893 22.1554V22.5554ZM6.74224 22.5554H10.6893V22.1554H6.74224V22.5554ZM6.43968 22.2528C6.43968 22.4199 6.57522 22.5554 6.74224 22.5554V22.1554C6.79613 22.1554 6.83968 22.1989 6.83968 22.2528H6.43968ZM6.43968 21.1573V22.2528H6.83968V21.1573H6.43968ZM6.74224 20.8547C6.57522 20.8547 6.43968 20.9903 6.43968 21.1573H6.83968C6.83968 21.2112 6.79613 21.2547 6.74224 21.2547V20.8547ZM10.6893 20.8547H6.74224V21.2547H10.6893V20.8547ZM10.9919 21.1573C10.9919 20.9903 10.8563 20.8547 10.6893 20.8547V21.2547C10.6354 21.2547 10.5919 21.2112 10.5919 21.1573H10.9919ZM10.9919 22.2528V21.1573H10.5919V22.2528H10.9919ZM16.9139 20.21H12.9667V20.61H16.9139V20.21ZM17.861 21.1573C17.861 20.6348 17.4363 20.21 16.9139 20.21V20.61C17.2153 20.61 17.461 20.8557 17.461 21.1573H17.861ZM17.861 22.2528V21.1573H17.461V22.2528H17.861ZM16.9139 23.1999C17.4363 23.1999 17.861 22.7752 17.861 22.2528H17.461C17.461 22.5543 17.2153 22.7999 16.9139 22.7999V23.1999ZM12.9667 23.1999H16.9139V22.7999H12.9667V23.1999ZM12.0196 22.2528C12.0196 22.7752 12.4443 23.1999 12.9667 23.1999V22.7999C12.6652 22.7999 12.4196 22.5543 12.4196 22.2528H12.0196ZM12.0196 21.1573V22.2528H12.4196V21.1573H12.0196ZM12.9667 20.21C12.4443 20.21 12.0196 20.6348 12.0196 21.1573H12.4196C12.4196 20.8557 12.6652 20.61 12.9667 20.61V20.21ZM16.8163 22.2528C16.8163 22.1994 16.8596 22.1554 16.9139 22.1554V22.5554C17.0814 22.5554 17.2163 22.4194 17.2163 22.2528H16.8163ZM16.8163 21.1573V22.2528H17.2163V21.1573H16.8163ZM16.9139 21.2547C16.8596 21.2547 16.8163 21.2108 16.8163 21.1573H17.2163C17.2163 20.9907 17.0814 20.8547 16.9139 20.8547V21.2547ZM12.9667 21.2547H16.9139V20.8547H12.9667V21.2547ZM13.0643 21.1573C13.0643 21.211 13.0209 21.2547 12.9667 21.2547V20.8547C12.7996 20.8547 12.6643 20.9905 12.6643 21.1573H13.0643ZM13.0643 22.2528V21.1573H12.6643V22.2528H13.0643ZM12.9667 22.1554C13.0209 22.1554 13.0643 22.1992 13.0643 22.2528H12.6643C12.6643 22.4196 12.7996 22.5554 12.9667 22.5554V22.1554ZM16.9139 22.1554H12.9667V22.5554H16.9139V22.1554Z" fill="#28FFA5" mask="url(#path-1-outside-1)"/>
<path d="M38.6949 13V9.86698H33.4039V8.80098H35.9779V6.81198H33.4039V5.74598H38.6949V2.59998H29.2959V13H38.6949Z" fill="white"/>
<path d="M52.2807 13L48.3677 2.59998H44.2467L40.3857 13H43.8047L44.2467 11.648H47.5747L48.0167 13H52.2807ZM46.8077 9.38598H44.9877L45.8717 6.62998L46.8077 9.38598Z" fill="white"/>
<path d="M64.8377 13C64.5907 12.493 64.3437 11.921 64.3437 11.258V10.4C64.3437 8.70998 63.1737 8.04698 62.4197 7.85198C63.5767 7.55298 64.3437 6.56498 64.3437 5.22598C64.3437 3.86098 63.0567 2.59998 60.9377 2.59998H54.1127V13H58.2207V8.94398H59.9367C60.2227 8.94398 60.4697 9.19098 60.4697 9.47697V11.388C60.4697 11.934 60.6777 12.545 60.9897 13H64.8377ZM60.4697 6.35698C60.4697 6.65598 60.2227 6.96798 59.9367 6.96798H58.2207V5.74598H59.9367C60.2227 5.74598 60.4697 6.05798 60.4697 6.35698Z" fill="white"/>
<path d="M76.7273 5.74598V2.59998H66.2623V5.74598H69.4473V13H73.5553V5.74598H76.7273Z" fill="white"/>
<path d="M89.3988 13V2.59998H85.2908V6.35698H82.8598V2.59998H78.7518V13H82.8598V9.34698H85.2908V13H89.3988Z" fill="white"/>
<path d="M30.89 22.192V17.188C30.89 16.459 30.458 16 29.945 16C29.432 16 29 16.459 29 17.188V22.192C29 22.921 29.432 23.38 29.945 23.38C30.458 23.38 30.89 22.921 30.89 22.192ZM30.161 22.3C30.161 22.489 30.089 22.588 29.945 22.588C29.783 22.588 29.711 22.489 29.711 22.3V17.08C29.711 16.891 29.783 16.792 29.945 16.792C30.089 16.792 30.161 16.891 30.161 17.08V22.3Z" fill="white"/>
<path d="M33.7263 19.168V17.179C33.7263 16.261 33.2583 16.09 32.8893 16.09H31.9353V23.29H32.6553V20.239H32.8893C33.2583 20.239 33.7263 20.068 33.7263 19.168ZM33.0333 19.204C33.0333 19.411 32.9883 19.492 32.8983 19.492H32.6553V16.837H32.8983C32.9883 16.837 33.0333 16.918 33.0333 17.125V19.204Z" fill="white"/>
<path d="M36.3034 23.29V22.543H35.4754V19.969H36.0424V19.222H35.4754V16.882H36.3034V16.09H34.7734V23.29H36.3034Z" fill="white"/>
<path d="M39.2666 23.29V16.09H38.6906V20.131L37.9166 16.09H37.2776V23.29H37.8716V19.312L38.7716 23.29H39.2666Z" fill="white"/>
<path d="M42.7605 23.29V16.09H42.0405V23.29H42.7605Z" fill="white"/>
<path d="M45.8387 23.29V16.09H45.2627V20.131L44.4887 16.09H43.8497V23.29H44.4437V19.312L45.3437 23.29H45.8387Z" fill="white"/>
<path d="M48.8878 23.29V16.09H48.3118V20.131L47.5378 16.09H46.8988V23.29H47.4928V19.312L48.3928 23.29H48.8878Z" fill="white"/>
<path d="M51.8199 22.192V17.188C51.8199 16.459 51.3879 16 50.8749 16C50.3619 16 49.9299 16.459 49.9299 17.188V22.192C49.9299 22.921 50.3619 23.38 50.8749 23.38C51.3879 23.38 51.8199 22.921 51.8199 22.192ZM51.0909 22.3C51.0909 22.489 51.0189 22.588 50.8749 22.588C50.7129 22.588 50.6409 22.489 50.6409 22.3V17.08C50.6409 16.891 50.7129 16.792 50.8749 16.792C51.0189 16.792 51.0909 16.891 51.0909 17.08V22.3Z" fill="white"/>
<path d="M54.7462 16.09H54.0982L53.7652 20.428L53.4502 16.09H52.7662L53.3872 23.29H54.1072L54.7462 16.09Z" fill="white"/>
<path d="M57.7556 23.29L57.2336 16.09H56.3066L55.7936 23.29H56.4146L56.4866 21.94H56.9726L57.0266 23.29H57.7556ZM56.9276 21.112H56.5496L56.7656 18.034L56.9276 21.112Z" fill="white"/>
<path d="M60.4851 16.954V16.09H58.7661V16.954H59.2971V23.29H59.9991V16.954H60.4851Z" fill="white"/>
<path d="M61.9597 23.29V16.09H61.2397V23.29H61.9597Z" fill="white"/>
<path d="M64.6509 22.192V17.188C64.6509 16.459 64.2189 16 63.7059 16C63.1929 16 62.7609 16.459 62.7609 17.188V22.192C62.7609 22.921 63.1929 23.38 63.7059 23.38C64.2189 23.38 64.6509 22.921 64.6509 22.192ZM63.9219 22.3C63.9219 22.489 63.8499 22.588 63.7059 22.588C63.5439 22.588 63.4719 22.489 63.4719 22.3V17.08C63.4719 16.891 63.5439 16.792 63.7059 16.792C63.8499 16.792 63.9219 16.891 63.9219 17.08V22.3Z" fill="white"/>
<path d="M67.6852 23.29V16.09H67.1092V20.131L66.3352 16.09H65.6962V23.29H66.2902V19.312L67.1902 23.29H67.6852Z" fill="white"/>
<path d="M72.4211 23.29V16.09H71.8451V20.131L71.0711 16.09H70.4321V23.29H71.0261V19.312L71.9261 23.29H72.4211Z" fill="white"/>
<path d="M75.0112 23.29V22.543H74.1832V19.969H74.7502V19.222H74.1832V16.882H75.0112V16.09H73.4812V23.29H75.0112Z" fill="white"/>
<path d="M77.3713 16.954V16.09H75.6523V16.954H76.1833V23.29H76.8853V16.954H77.3713Z" fill="white"/>
<path d="M80.8349 16.09H80.1869L79.8629 19.924L79.5479 16.09H79.1789L78.8819 19.924L78.5669 16.09H77.8829L78.5399 23.29H79.0529L79.3679 19.726L79.6739 23.29H80.1599L80.8349 16.09Z" fill="white"/>
<path d="M83.6947 22.192V17.188C83.6947 16.459 83.2627 16 82.7497 16C82.2367 16 81.8047 16.459 81.8047 17.188V22.192C81.8047 22.921 82.2367 23.38 82.7497 23.38C83.2627 23.38 83.6947 22.921 83.6947 22.192ZM82.9657 22.3C82.9657 22.489 82.8937 22.588 82.7497 22.588C82.5877 22.588 82.5157 22.489 82.5157 22.3V17.08C82.5157 16.891 82.5877 16.792 82.7497 16.792C82.8937 16.792 82.9657 16.891 82.9657 17.08V22.3Z" fill="white"/>
<path d="M86.657 23.29C86.612 22.939 86.549 22.543 86.549 22.084V20.554C86.549 20.212 86.387 19.996 86.189 19.807C86.387 19.618 86.531 19.402 86.531 19.06V17.179C86.531 16.261 86.063 16.09 85.694 16.09H84.74V23.29H85.46V20.149H85.685C85.793 20.149 85.847 20.275 85.847 20.437V22.174C85.847 22.552 85.892 22.975 85.946 23.29H86.657ZM85.838 19.132C85.838 19.339 85.793 19.42 85.703 19.42H85.46V16.837H85.703C85.793 16.837 85.838 16.918 85.838 17.125V19.132Z" fill="white"/>
<path d="M89.5209 23.29L89.0079 19.393L89.4309 16.09H88.7649L88.3329 19.456V16.09H87.6309V23.29H88.3329V21.292L88.4949 20.392L88.8098 23.29H89.5209Z" fill="white"/>
</svg>
