<svg width="19" height="20" viewBox="0 0 19 20" fill="none" xmlns="http://www.w3.org/2000/svg">
<circle cx="9.5" cy="9.5" r="9.5" fill="#00D57C"/>
<path d="M11.3984 12.0312C11.3984 11.5885 11.2578 11.224 10.9766 10.9375C10.6953 10.6458 10.2266 10.3854 9.57031 10.1562C8.91406 9.92188 8.40365 9.70573 8.03906 9.50781C6.82552 8.85677 6.21875 7.89323 6.21875 6.61719C6.21875 5.7526 6.48177 5.04167 7.00781 4.48438C7.53385 3.92708 8.2474 3.59635 9.14844 3.49219V1.78906H10.3984V3.50781C11.3047 3.63802 12.0052 4.02344 12.5 4.66406C12.9948 5.29948 13.2422 6.1276 13.2422 7.14844H11.3516C11.3516 6.49219 11.2031 5.97656 10.9062 5.60156C10.6146 5.22135 10.2161 5.03125 9.71094 5.03125C9.21094 5.03125 8.82031 5.16667 8.53906 5.4375C8.25781 5.70833 8.11719 6.09635 8.11719 6.60156C8.11719 7.05469 8.25521 7.41927 8.53125 7.69531C8.8125 7.96615 9.28646 8.22396 9.95312 8.46875C10.6198 8.71354 11.1432 8.9401 11.5234 9.14844C11.9036 9.35677 12.224 9.59635 12.4844 9.86719C12.7448 10.1328 12.9453 10.4401 13.0859 10.7891C13.2266 11.138 13.2969 11.5469 13.2969 12.0156C13.2969 12.8958 13.026 13.6094 12.4844 14.1562C11.9479 14.7031 11.1979 15.026 10.2344 15.125V16.6484H8.99219V15.1328C7.96094 15.0182 7.16667 14.6484 6.60938 14.0234C6.05729 13.3984 5.78125 12.5703 5.78125 11.5391H7.67969C7.67969 12.1953 7.84375 12.7031 8.17188 13.0625C8.50521 13.4219 8.97396 13.6016 9.57812 13.6016C10.1719 13.6016 10.6224 13.4583 10.9297 13.1719C11.2422 12.8854 11.3984 12.5052 11.3984 12.0312Z" fill="#F4FAF4"/>
</svg>
